<?xml version="1.0" standalone="no"?>
<!DOCTYPE svg PUBLIC "-//W3C//DTD SVG 20010904//EN"
 "http://www.w3.org/TR/2001/REC-SVG-20010904/DTD/svg10.dtd">
<svg version="1.0" xmlns="http://www.w3.org/2000/svg"
 width="3840.000000pt" height="2160.000000pt" viewBox="0 0 3840.000000 2160.000000"
 preserveAspectRatio="xMidYMid meet">
<metadata>
Created by potrace 1.16, written by Peter Selinger 2001-2019
</metadata>
<g transform="translate(0.000000,2160.000000) scale(0.100000,-0.100000)"
fill="#000000" stroke="none">
<path d="M18530 21369 c-160 -9 -517 -43 -770 -74 -169 -20 -602 -91 -670
-110 -30 -8 -116 -26 -190 -40 -74 -14 -144 -30 -155 -34 -11 -5 -85 -23 -165
-41 -80 -18 -149 -37 -154 -41 -6 -5 -19 -9 -30 -9 -19 0 -224 -55 -261 -70
-11 -4 -54 -17 -95 -29 -135 -39 -163 -48 -315 -100 -154 -54 -275 -97 -310
-112 -11 -5 -56 -22 -100 -39 -44 -17 -89 -34 -100 -39 -11 -5 -51 -21 -90
-36 -180 -72 -330 -138 -555 -247 -102 -50 -194 -94 -205 -99 -60 -28 -319
-167 -445 -239 -403 -231 -731 -442 -1025 -660 -27 -20 -95 -70 -150 -110 -83
-61 -292 -227 -379 -300 -11 -10 -53 -45 -91 -77 -39 -32 -86 -72 -105 -89
-19 -17 -62 -55 -95 -84 -65 -57 -274 -251 -337 -313 -22 -21 -36 -43 -32 -49
5 -7 3 -8 -5 -4 -12 8 -167 -145 -349 -342 -42 -46 -90 -98 -107 -116 -16 -18
-52 -59 -80 -91 -27 -32 -57 -65 -65 -74 -8 -9 -40 -46 -70 -81 -30 -36 -65
-76 -78 -90 -13 -14 -31 -37 -40 -52 -9 -16 -19 -28 -23 -28 -3 0 -18 -17 -32
-38 -13 -21 -42 -59 -63 -83 -22 -25 -50 -60 -64 -79 -14 -18 -44 -57 -67 -86
-24 -29 -43 -56 -43 -59 0 -4 -6 -12 -12 -19 -37 -37 -354 -492 -378 -541 -3
-6 -30 -49 -61 -95 -76 -116 -108 -168 -179 -290 -34 -58 -75 -127 -92 -155
-17 -27 -51 -88 -76 -135 -25 -47 -65 -121 -89 -165 -47 -87 -146 -288 -213
-430 -80 -170 -110 -236 -110 -241 0 -3 -13 -31 -29 -64 -16 -32 -32 -69 -36
-82 -4 -12 -15 -41 -25 -63 -17 -40 -23 -56 -75 -190 -15 -38 -31 -78 -37 -88
-9 -19 -18 -42 -108 -297 -101 -286 -156 -466 -229 -740 -10 -41 -31 -119 -46
-173 -14 -54 -30 -117 -34 -140 -5 -23 -22 -103 -39 -177 -31 -132 -94 -465
-112 -585 -14 -88 -59 -422 -65 -480 -3 -27 -10 -86 -15 -130 -16 -149 -40
-519 -50 -784 -10 -271 0 -792 20 -1016 5 -60 14 -173 20 -250 15 -189 76
-664 104 -810 2 -11 14 -76 26 -145 36 -204 48 -261 64 -330 9 -36 25 -105 36
-155 43 -202 142 -569 200 -745 10 -30 25 -77 34 -105 23 -76 111 -331 141
-410 14 -38 30 -81 35 -95 5 -14 18 -50 30 -80 13 -30 32 -82 44 -115 11 -33
23 -62 26 -65 3 -3 18 -36 34 -75 38 -96 81 -194 129 -295 22 -47 57 -123 79
-170 62 -137 211 -428 270 -530 30 -52 67 -120 83 -150 16 -30 48 -87 72 -126
24 -39 43 -76 43 -82 0 -7 3 -12 8 -12 4 0 23 -27 42 -61 40 -70 38 -67 110
-179 134 -209 455 -671 480 -690 3 -3 17 -21 30 -40 13 -19 29 -40 35 -47 5
-7 17 -20 25 -30 8 -9 34 -43 57 -74 52 -71 279 -345 347 -419 28 -30 73 -80
99 -110 199 -227 546 -575 782 -785 50 -44 92 -82 95 -85 3 -4 68 -60 145
-125 77 -66 142 -122 145 -125 10 -12 388 -304 441 -340 12 -8 27 -21 35 -28
7 -6 15 -12 19 -12 3 0 20 -13 38 -30 18 -16 36 -30 40 -30 4 0 32 -18 62 -40
46 -34 327 -224 381 -257 186 -115 304 -189 326 -204 15 -11 30 -19 34 -19 3
0 40 -20 81 -45 40 -25 75 -45 78 -45 2 0 41 -22 87 -48 46 -26 148 -81 228
-121 80 -41 147 -77 150 -81 3 -4 16 -11 29 -15 13 -4 83 -35 155 -70 72 -34
147 -69 166 -77 38 -17 119 -54 203 -92 97 -45 639 -256 656 -256 5 0 51 -15
102 -34 52 -19 132 -46 179 -61 47 -14 94 -30 105 -35 34 -14 306 -90 510
-142 22 -5 47 -11 55 -14 8 -2 35 -8 60 -14 25 -6 99 -24 165 -40 66 -16 206
-45 310 -65 105 -20 210 -40 235 -46 25 -5 110 -18 190 -29 80 -11 172 -25
205 -30 124 -19 426 -50 595 -60 96 -6 223 -15 281 -20 305 -24 1051 -13 1404
20 55 5 161 14 235 20 74 7 193 21 265 31 71 11 197 29 280 40 82 11 179 26
215 34 36 8 117 24 180 35 104 19 181 36 455 99 130 30 374 95 490 130 55 17
106 31 113 31 8 0 28 6 45 14 18 7 73 26 122 40 50 15 106 33 125 41 19 8 60
22 90 31 91 28 432 156 555 208 17 7 41 18 55 23 14 6 46 20 71 32 25 11 49
21 53 21 25 0 568 261 786 378 239 128 587 330 677 393 23 16 44 29 46 29 11
0 383 253 512 349 92 67 113 83 141 101 12 8 49 36 82 62 33 27 65 48 71 48 6
0 11 4 11 9 0 5 24 27 53 49 53 41 77 60 151 121 23 18 61 50 85 70 25 20 68
56 96 81 28 25 77 68 109 95 132 114 330 300 520 491 141 142 299 310 487 519
99 110 341 410 451 560 48 66 99 133 113 149 14 16 25 30 25 32 0 3 35 53 78
112 42 59 82 115 87 124 6 9 31 48 56 85 26 37 81 122 124 188 42 66 90 139
106 163 16 23 29 45 29 48 0 3 15 28 33 57 18 29 62 104 98 167 35 63 69 124
76 135 7 11 15 27 19 35 4 8 28 51 52 95 46 82 226 438 257 510 10 22 35 76
55 120 54 115 90 195 90 201 0 3 8 24 19 47 51 114 101 238 101 250 0 7 4 17
8 22 8 9 42 96 112 285 46 122 124 360 160 485 9 33 19 67 23 75 5 13 30 102
67 235 24 89 101 395 116 465 55 256 68 325 100 505 43 247 101 681 111 825 2
30 7 91 12 135 5 44 12 159 16 257 4 97 8 191 10 210 2 18 4 186 4 373 2 464
-16 837 -55 1165 -54 467 -99 752 -166 1055 -17 77 -35 163 -40 190 -5 28 -12
57 -15 65 -8 19 -7 17 -17 65 -23 121 -180 675 -227 800 -10 28 -31 91 -48
140 -52 162 -161 455 -202 542 -10 24 -19 48 -19 54 0 6 -7 23 -14 37 -8 15
-36 77 -61 137 -25 61 -59 137 -75 170 -16 33 -43 92 -60 130 -46 102 -222
451 -259 513 -17 29 -31 56 -31 59 0 3 -33 62 -72 131 -40 69 -84 145 -98 169
-75 132 -282 460 -355 563 -13 19 -62 89 -108 155 -152 216 -232 325 -336 454
-80 99 -159 198 -180 225 -14 17 -39 47 -55 66 -17 20 -53 62 -81 95 -228 269
-630 679 -945 965 -58 52 -107 97 -110 100 -28 29 -74 59 -82 54 -6 -4 -8 -2
-5 3 8 13 -233 218 -408 348 -22 16 -46 35 -53 42 -7 7 -17 13 -21 13 -4 0
-22 15 -41 33 -20 18 -51 42 -70 54 -19 12 -44 30 -56 40 -11 10 -27 23 -37
28 -16 10 -183 127 -202 143 -39 30 -364 240 -422 272 -24 13 -43 27 -43 32 0
4 -7 8 -15 8 -8 0 -15 5 -15 10 0 6 -4 10 -10 10 -9 0 -110 58 -120 69 -3 4
-21 14 -40 23 -19 9 -46 24 -60 32 -109 67 -357 200 -560 302 -123 62 -359
174 -365 174 -3 0 -33 13 -67 29 -35 15 -85 39 -113 51 -51 23 -244 102 -455
185 -35 14 -141 51 -370 129 -267 91 -552 174 -860 249 -188 46 -234 56 -395
86 -49 9 -94 19 -100 22 -5 4 -35 10 -65 14 -30 4 -64 9 -75 11 -11 3 -62 11
-112 19 -51 9 -98 17 -105 20 -7 2 -35 7 -63 10 -27 3 -77 10 -110 15 -83 13
-493 58 -730 81 -146 14 -1175 20 -1385 8z m1330 -689 c238 -18 688 -70 840
-97 47 -8 121 -20 165 -28 44 -7 130 -23 190 -34 61 -11 119 -22 130 -24 11
-2 27 -7 35 -10 8 -3 33 -9 55 -12 58 -8 567 -134 586 -144 9 -5 34 -13 55
-17 22 -4 55 -13 74 -20 19 -7 76 -25 125 -39 116 -35 232 -73 272 -91 17 -8
36 -14 43 -14 14 0 347 -123 407 -151 24 -10 45 -19 48 -19 7 0 153 -61 325
-137 161 -70 630 -304 630 -314 0 -4 10 -9 23 -13 19 -4 125 -61 217 -116 123
-73 172 -100 180 -100 6 0 10 -3 10 -8 0 -4 17 -16 38 -27 20 -10 50 -28 67
-40 16 -11 46 -28 65 -39 19 -10 37 -22 40 -26 3 -4 28 -20 55 -35 62 -36 339
-227 343 -237 2 -5 8 -8 14 -8 5 0 42 -24 81 -53 40 -29 117 -86 171 -127 55
-40 107 -79 115 -86 9 -7 59 -48 111 -90 122 -98 189 -154 215 -179 12 -11 43
-37 70 -58 45 -34 103 -86 289 -257 99 -91 393 -386 520 -523 183 -197 488
-559 616 -732 25 -33 55 -71 68 -85 12 -14 22 -28 22 -33 0 -4 4 -13 10 -20
86 -105 363 -510 405 -593 11 -21 23 -41 26 -44 7 -5 131 -205 142 -230 4 -8
21 -37 37 -65 17 -27 36 -61 43 -75 6 -14 14 -27 18 -30 26 -21 389 -753 389
-786 0 -8 5 -14 10 -14 6 0 10 -5 10 -11 0 -5 11 -34 24 -62 13 -29 45 -104
70 -167 26 -63 55 -133 66 -155 10 -22 32 -78 48 -125 16 -47 55 -157 87 -245
31 -88 65 -187 76 -220 150 -479 247 -871 338 -1375 26 -143 36 -211 62 -420
11 -91 22 -176 24 -190 4 -23 23 -240 42 -490 5 -52 8 -336 7 -630 -1 -569 -7
-702 -54 -1085 -6 -44 -17 -141 -26 -215 -9 -74 -24 -184 -35 -245 -11 -60
-28 -166 -39 -235 -11 -69 -27 -147 -35 -175 -8 -27 -16 -66 -18 -85 -2 -20
-6 -40 -9 -45 -3 -6 -9 -28 -13 -50 -17 -93 -99 -426 -134 -542 -5 -18 -7 -33
-4 -33 3 0 1 -6 -5 -13 -6 -7 -20 -48 -32 -92 -11 -44 -31 -111 -44 -150 -13
-38 -36 -108 -51 -155 -15 -47 -33 -99 -41 -117 -8 -17 -14 -38 -14 -47 0 -8
-6 -30 -14 -48 -8 -18 -29 -71 -46 -118 -33 -88 -65 -170 -79 -205 -5 -11 -23
-56 -41 -100 -37 -92 -39 -97 -123 -285 -138 -312 -366 -753 -504 -977 -35
-57 -63 -105 -63 -108 0 -3 -19 -34 -42 -69 -36 -54 -77 -118 -123 -194 -21
-35 -175 -261 -229 -337 -32 -44 -65 -91 -74 -103 -9 -13 -44 -59 -77 -101
-33 -43 -99 -129 -147 -192 -81 -107 -219 -273 -347 -418 -31 -35 -69 -79 -86
-99 -77 -92 -457 -479 -596 -606 -35 -33 -91 -85 -124 -116 -33 -31 -96 -87
-140 -125 -44 -37 -106 -91 -139 -119 -32 -28 -66 -55 -75 -60 -9 -5 -32 -25
-51 -43 -19 -18 -37 -33 -40 -33 -3 0 -26 -18 -50 -40 -24 -22 -47 -40 -51
-40 -3 0 -17 -9 -30 -21 -48 -42 -327 -247 -434 -320 -60 -41 -112 -76 -115
-79 -3 -3 -30 -21 -60 -40 -30 -19 -56 -38 -58 -42 -2 -5 -8 -8 -14 -8 -5 0
-24 -10 -41 -23 -18 -12 -41 -27 -52 -34 -11 -7 -69 -43 -130 -81 -136 -86
-410 -242 -424 -242 -6 0 -11 -3 -11 -7 0 -5 -10 -13 -23 -19 -12 -6 -143 -72
-292 -147 -148 -74 -282 -139 -297 -142 -16 -4 -28 -11 -28 -16 0 -5 -5 -9
-11 -9 -5 0 -34 -11 -62 -24 -95 -44 -420 -177 -557 -227 -74 -27 -144 -54
-155 -59 -11 -5 -58 -21 -105 -36 -47 -14 -98 -32 -115 -39 -16 -7 -48 -17
-70 -24 -82 -23 -182 -53 -255 -76 -41 -13 -106 -31 -145 -40 -38 -9 -97 -25
-130 -36 -33 -10 -109 -30 -170 -43 -60 -13 -159 -36 -220 -50 -176 -40 -475
-94 -700 -126 -402 -56 -527 -68 -974 -91 -215 -11 -922 -7 -1051 6 -25 2
-144 12 -265 20 -213 15 -351 30 -540 60 -49 8 -112 17 -140 20 -27 3 -84 11
-125 19 -41 8 -127 24 -190 36 -159 30 -388 77 -430 89 -19 6 -46 12 -60 15
-73 13 -482 122 -515 136 -11 5 -56 19 -100 31 -44 11 -100 29 -125 39 -25 9
-85 31 -135 48 -167 56 -330 113 -360 127 -29 13 -77 32 -280 113 -49 19 -92
38 -95 42 -3 4 -16 11 -30 15 -22 7 -49 18 -170 72 -64 29 -474 232 -555 276
-129 70 -200 110 -205 116 -3 3 -34 21 -70 40 -36 19 -72 40 -81 47 -8 8 -19
14 -22 14 -11 0 -222 133 -225 142 -2 4 -9 8 -14 8 -13 0 -168 99 -288 183
-47 33 -91 60 -97 60 -7 0 -11 2 -8 5 5 5 -15 22 -109 87 -39 27 -77 54 -85
61 -9 7 -45 34 -81 61 -36 26 -70 52 -76 58 -6 5 -26 21 -44 35 -37 28 -153
120 -245 194 -84 68 -185 156 -217 187 -14 15 -33 31 -41 36 -70 40 -684 653
-832 831 -16 19 -40 46 -54 61 -14 15 -35 38 -46 51 -11 14 -58 70 -105 125
-196 232 -543 695 -610 813 -8 15 -18 29 -21 32 -12 10 -149 222 -222 345 -7
11 -22 34 -34 52 -13 17 -23 34 -23 38 0 3 -22 42 -50 86 -27 44 -50 83 -50
85 0 3 -21 42 -47 87 -106 184 -403 778 -403 807 0 4 -7 21 -15 37 -14 27 -21
44 -60 138 -9 22 -35 83 -57 135 -42 103 -99 252 -129 340 -11 30 -23 64 -28
75 -5 11 -19 52 -31 90 -13 39 -31 93 -41 120 -10 28 -27 84 -39 125 -12 41
-37 125 -56 185 -46 151 -92 328 -160 620 -3 11 -11 54 -19 95 -8 41 -24 120
-35 175 -30 143 -69 376 -80 475 -5 47 -14 114 -19 150 -10 65 -46 390 -55
505 -45 541 -22 1548 45 1995 5 36 16 117 24 180 20 159 51 349 69 425 3 11
19 93 36 182 27 141 113 499 165 688 10 33 19 71 22 85 3 14 9 30 13 35 4 6
11 26 15 45 4 19 20 76 37 125 16 50 40 124 53 165 39 125 144 413 180 495 7
17 34 84 60 150 26 66 50 125 54 130 4 6 16 30 25 55 10 25 31 74 48 110 16
36 46 101 66 145 52 112 213 430 251 493 17 29 31 55 31 58 0 6 145 261 181
319 10 17 22 37 26 45 3 8 9 17 13 20 3 3 21 30 38 60 63 107 114 185 123 188
5 2 9 8 9 12 0 12 141 224 152 228 4 2 8 8 8 13 0 5 19 36 43 68 23 33 49 69
57 82 8 12 27 36 41 53 14 17 41 54 60 81 19 28 37 52 40 55 5 5 61 76 144
185 20 28 55 70 75 95 21 25 66 79 100 120 35 41 65 77 69 80 4 3 47 52 96
110 99 116 168 189 387 412 81 83 145 155 141 161 -4 6 -1 7 6 2 8 -4 42 21
94 72 45 43 124 116 176 163 51 47 99 90 105 95 96 88 382 320 526 427 36 27
79 60 95 73 17 14 91 68 165 120 74 52 140 98 145 102 6 5 35 24 65 43 30 19
56 38 58 42 2 5 9 8 15 8 6 0 18 6 26 14 9 8 27 21 41 28 14 8 77 47 140 88
64 41 128 82 142 90 15 8 78 45 140 82 62 36 142 81 178 100 36 18 67 35 70
38 11 11 440 229 536 272 32 15 100 45 149 68 50 23 113 51 140 61 28 11 59
24 70 29 76 36 342 138 545 210 189 66 223 78 380 125 85 25 182 55 215 65 33
10 114 32 180 49 66 16 146 37 177 45 97 26 559 120 648 131 30 4 59 10 65 13
5 3 23 7 40 9 16 2 93 12 170 22 243 34 518 64 760 82 347 27 1040 26 1385 -1z
m-10906 -12916 c3 -8 2 -12 -4 -9 -6 3 -10 10 -10 16 0 14 7 11 14 -7z"/>
<path d="M18265 20059 c-66 -5 -199 -15 -295 -24 -96 -8 -204 -18 -240 -20
-111 -10 -107 -8 -114 -72 -3 -32 -13 -260 -21 -508 -19 -592 -24 -724 -35
-1010 -6 -132 -15 -361 -20 -510 -5 -148 -12 -321 -16 -384 l-7 -114 24 6 c40
10 439 65 520 72 l76 7 7 107 c6 110 22 524 30 791 28 932 29 962 44 923 16
-44 90 -214 138 -320 18 -39 36 -83 40 -97 3 -14 10 -26 15 -26 5 0 9 -5 9
-11 0 -5 11 -34 24 -62 40 -86 66 -146 66 -151 0 -3 15 -38 34 -78 33 -69 74
-159 118 -258 11 -25 33 -72 48 -105 15 -33 34 -76 43 -96 9 -19 30 -65 46
-102 l30 -67 264 0 265 0 15 38 c16 39 54 123 118 260 21 46 39 87 39 90 0 4
7 20 15 36 8 16 36 77 61 135 26 58 63 142 84 186 21 44 45 98 55 120 50 113
75 168 114 255 88 194 101 226 101 242 0 8 6 23 14 34 13 17 14 9 11 -69 -5
-83 0 -227 25 -852 5 -137 13 -329 16 -425 3 -96 9 -247 13 -335 l6 -160 110
-12 c61 -7 160 -20 220 -29 61 -8 141 -20 180 -25 38 -5 78 -12 88 -15 18 -6
19 1 13 208 -3 117 -8 263 -11 323 -6 140 -22 532 -35 880 -6 149 -15 367 -20
485 -5 118 -12 318 -15 445 -3 126 -9 232 -13 236 -4 3 -101 13 -217 23 -115
10 -257 21 -315 26 -58 5 -157 11 -220 12 l-114 3 -37 -90 c-20 -49 -42 -101
-48 -115 -5 -14 -22 -56 -36 -95 -15 -38 -37 -92 -49 -120 -12 -27 -33 -77
-46 -110 -13 -33 -26 -64 -30 -70 -4 -5 -10 -23 -14 -39 -4 -15 -16 -47 -26
-70 -11 -22 -35 -81 -55 -130 -19 -48 -47 -116 -61 -150 -14 -33 -33 -79 -41
-101 -16 -42 -28 -71 -48 -120 -64 -151 -95 -236 -97 -270 -4 -56 -19 -50 -34
15 -7 30 -29 93 -47 140 -19 47 -69 171 -111 275 -42 105 -83 202 -91 217 -8
14 -15 32 -15 38 0 7 -16 47 -36 88 -19 42 -40 96 -47 119 -6 24 -15 43 -19
43 -4 0 -8 7 -8 15 0 9 -11 38 -25 65 -14 27 -25 57 -25 66 0 9 -6 28 -14 42
-8 15 -29 63 -46 107 -17 44 -35 89 -40 100 -5 11 -22 50 -39 88 l-30 67 -48
-1 c-26 -1 -102 -6 -168 -10z m792 -1451 c-3 -8 -6 -5 -6 6 -1 11 2 17 5 13 3
-3 4 -12 1 -19z m990 -650 c-3 -8 -6 -5 -6 6 -1 11 2 17 5 13 3 -3 4 -12 1
-19z"/>
<path d="M24407 18422 c-9 -15 -41 -64 -70 -109 -146 -229 -389 -608 -407
-633 -34 -50 -110 -171 -110 -176 0 -3 -15 -26 -32 -52 -18 -26 -37 -54 -43
-64 -5 -9 -39 -62 -75 -117 -36 -56 -78 -124 -95 -151 -30 -50 -38 -61 -87
-131 -16 -21 -28 -43 -28 -48 0 -5 -4 -11 -8 -13 -7 -3 -57 -79 -86 -133 -27
-48 -150 -230 -157 -233 -5 -2 -9 -8 -9 -14 0 -6 -29 -57 -65 -114 -36 -57
-65 -106 -65 -110 0 -3 7 -3 16 0 8 3 13 2 10 -2 -2 -4 40 -43 95 -87 151
-122 199 -162 313 -262 l105 -93 133 69 c273 142 528 273 708 363 102 51 187
95 190 98 3 3 57 32 120 64 63 32 133 71 154 87 59 43 71 36 33 -18 -33 -46
-89 -151 -280 -523 -49 -96 -94 -176 -98 -178 -5 -2 -9 -11 -9 -21 0 -9 -6
-25 -14 -36 -7 -11 -57 -105 -111 -210 -53 -104 -115 -223 -137 -263 -41 -74
-41 -79 -8 -112 40 -40 234 -266 355 -414 22 -27 49 -60 60 -72 l20 -22 140
89 c77 49 150 95 162 102 20 11 136 84 293 185 105 68 126 81 295 186 94 58
177 110 185 116 93 61 182 118 210 133 19 11 56 35 83 53 26 19 51 34 55 34 4
0 17 7 27 15 34 26 200 131 360 228 11 7 22 15 25 18 3 3 32 21 65 39 33 18
62 37 63 41 2 5 8 9 14 9 5 0 24 11 42 25 18 14 36 25 40 25 4 0 21 10 39 22
18 13 34 24 36 25 5 3 -94 135 -118 157 -12 11 -21 23 -21 27 0 4 -12 21 -27
37 -16 16 -50 57 -78 91 -46 58 -74 92 -130 159 l-20 23 -220 -145 c-121 -80
-225 -146 -231 -146 -7 0 -14 -4 -16 -8 -1 -5 -37 -31 -78 -58 -41 -27 -77
-51 -80 -54 -3 -3 -21 -14 -40 -24 -19 -11 -37 -22 -40 -26 -3 -3 -30 -21 -60
-40 -30 -19 -59 -38 -65 -43 -5 -4 -32 -22 -60 -40 -27 -17 -54 -35 -60 -40
-19 -15 -360 -237 -375 -244 -8 -4 -33 -24 -55 -45 -40 -38 -65 -48 -65 -26 0
6 9 21 19 32 21 23 127 228 436 843 l196 391 -208 209 -209 208 -259 -129
c-762 -378 -962 -479 -992 -502 -43 -32 -60 -22 -24 15 22 22 465 676 546 805
11 17 47 71 80 120 33 48 69 102 80 120 11 17 47 71 80 120 33 48 65 95 70
104 6 9 27 43 48 75 32 48 36 61 26 73 -7 8 -18 13 -25 10 -7 -3 -11 0 -9 7 3
7 -19 29 -48 50 -28 20 -65 50 -82 65 -48 44 -305 241 -315 242 -3 0 -13 -12
-23 -28z"/>
<path d="M13255 17965 c-137 -29 -246 -87 -416 -223 -88 -70 -359 -338 -519
-513 -63 -69 -155 -169 -205 -223 -49 -54 -99 -108 -110 -121 -11 -12 -36 -41
-55 -64 -19 -24 -49 -59 -66 -79 -87 -102 -171 -202 -192 -228 -13 -16 -53
-66 -90 -111 -36 -46 -70 -83 -74 -83 -4 0 -8 -5 -8 -11 0 -7 -21 -36 -47 -66
-29 -35 -42 -57 -35 -62 6 -3 53 -47 104 -96 52 -50 127 -121 168 -159 41 -38
120 -112 176 -165 55 -53 158 -150 229 -216 71 -66 146 -136 166 -155 21 -19
97 -91 170 -160 73 -69 176 -166 229 -216 52 -50 135 -128 185 -175 49 -46 94
-89 100 -95 5 -6 74 -71 153 -144 l143 -133 55 59 c30 32 66 73 81 89 57 64
122 136 253 275 75 80 169 181 210 225 41 44 110 118 155 164 44 46 98 103
120 126 22 23 126 131 231 241 226 236 297 311 321 341 63 77 76 95 97 126
216 318 237 575 68 831 -48 73 -136 166 -181 191 -199 111 -338 130 -561 76
-25 -6 -55 -17 -67 -23 -13 -6 -25 -9 -27 -7 -2 2 3 45 12 94 12 75 13 103 3
165 -13 79 -31 152 -41 160 -3 3 -18 31 -35 63 -57 112 -195 232 -317 276
-117 42 -260 52 -383 26z m207 -526 c55 -14 115 -74 138 -139 24 -66 25 -84 4
-163 -25 -97 -110 -205 -411 -517 -40 -41 -87 -91 -105 -110 -40 -43 -439
-459 -490 -512 -21 -21 -40 -38 -43 -38 -3 0 -35 28 -72 63 -36 34 -86 82
-112 105 -169 160 -182 174 -168 191 7 9 58 68 113 131 54 64 124 145 154 180
30 36 80 92 111 125 31 33 117 125 191 205 149 160 354 360 429 420 27 21 66
44 86 50 21 7 42 16 46 20 10 9 71 3 129 -11z m787 -640 c89 -19 157 -108 166
-216 1 -18 -2 -33 -6 -33 -5 0 -9 -11 -9 -24 0 -46 -72 -162 -158 -255 -100
-109 -264 -283 -297 -317 -22 -23 -94 -99 -160 -170 -66 -71 -159 -169 -207
-219 -48 -49 -97 -101 -108 -115 -44 -51 -173 -180 -181 -180 -5 0 -57 46
-116 103 -59 57 -141 134 -181 172 -40 38 -71 75 -70 82 3 12 214 237 431 459
65 66 122 125 126 132 24 39 508 522 543 542 40 22 121 47 160 49 9 1 39 -4
67 -10z"/>
<path d="M18830 17043 c-787 -48 -1465 -207 -2190 -515 -139 -60 -460 -219
-586 -291 -61 -35 -117 -66 -125 -70 -18 -9 -260 -163 -275 -175 -6 -5 -37
-27 -69 -48 -33 -22 -66 -44 -75 -51 -8 -6 -53 -40 -100 -74 -311 -227 -686
-565 -920 -828 -70 -79 -106 -119 -149 -166 -15 -16 -54 -64 -86 -105 -32 -41
-62 -77 -65 -80 -8 -7 -120 -157 -149 -200 -13 -19 -26 -37 -30 -40 -3 -3 -28
-39 -56 -80 -27 -41 -53 -76 -57 -78 -5 -2 -8 -8 -8 -14 0 -6 -10 -25 -23 -42
-28 -38 -98 -150 -134 -213 -14 -26 -30 -52 -35 -57 -28 -31 -231 -428 -297
-581 -28 -66 -62 -143 -75 -171 -79 -167 -230 -623 -294 -884 -64 -260 -127
-601 -151 -825 -26 -234 -41 -577 -36 -790 6 -200 28 -579 40 -665 13 -93 87
-532 99 -585 47 -203 60 -256 101 -400 47 -166 180 -558 205 -603 5 -10 21
-48 36 -87 38 -101 46 -118 162 -355 58 -118 130 -258 160 -310 30 -52 60
-104 66 -115 6 -11 28 -46 49 -78 20 -31 37 -59 37 -62 0 -2 21 -36 48 -76 26
-39 54 -83 62 -97 8 -15 18 -29 21 -32 3 -3 21 -27 39 -55 104 -153 326 -433
476 -601 120 -134 363 -384 373 -384 4 0 31 -25 61 -56 30 -31 107 -99 170
-152 63 -53 117 -99 120 -102 3 -3 25 -21 50 -40 25 -19 49 -40 53 -47 4 -7
12 -13 18 -13 8 0 37 -20 141 -100 57 -44 175 -126 228 -160 30 -19 57 -37 60
-40 3 -4 31 -22 63 -41 31 -18 57 -37 57 -41 0 -5 6 -8 13 -8 7 0 44 -19 82
-43 303 -188 798 -417 1180 -545 138 -46 192 -63 390 -121 58 -17 272 -67 325
-76 8 -1 22 -5 30 -7 8 -3 80 -17 160 -32 253 -45 366 -60 569 -75 257 -20
347 -23 626 -24 392 0 676 27 1130 108 338 60 847 211 1180 350 17 7 55 23 85
35 144 58 622 295 628 311 2 5 8 9 12 9 5 0 33 14 62 31 29 18 71 42 93 54 62
35 378 244 409 270 6 6 34 26 61 44 28 19 52 37 55 40 15 17 90 71 99 71 5 0
11 4 13 8 2 4 57 53 123 107 66 55 122 102 125 105 3 3 50 46 104 95 164 149
434 424 526 538 14 17 45 54 69 81 73 85 84 98 146 180 113 147 345 478 345
492 0 3 17 31 39 62 21 31 50 80 65 107 15 28 49 88 76 135 77 134 310 610
310 633 0 4 11 30 24 59 13 29 31 73 41 98 9 25 22 56 27 70 28 72 134 402
165 515 126 458 199 909 224 1379 10 174 10 292 1 528 -7 167 -16 332 -21 368
-5 36 -15 108 -21 160 -17 145 -50 370 -61 420 -6 25 -17 79 -25 120 -46 245
-157 638 -235 840 -16 41 -29 78 -29 83 0 4 -9 26 -19 50 -10 23 -33 78 -50
122 -18 44 -36 89 -41 100 -57 133 -89 200 -178 375 -134 264 -134 264 -141
270 -6 5 -24 36 -58 100 -10 19 -20 37 -23 40 -6 6 -75 112 -105 162 -22 37
-131 196 -167 244 -21 28 -38 56 -38 61 0 6 -6 13 -13 16 -7 3 -26 24 -42 48
-17 24 -32 46 -35 49 -3 3 -28 34 -55 70 -27 36 -52 67 -55 70 -11 9 -120 139
-120 144 0 4 -26 33 -239 255 -95 99 -170 170 -177 167 -7 -3 -11 0 -8 7 4 12
-91 104 -213 205 -34 28 -64 56 -68 62 -3 6 -39 34 -78 63 -40 30 -79 60 -87
68 -20 21 -297 224 -390 286 -100 67 -250 163 -255 163 -2 0 -46 25 -97 56
-100 61 -517 277 -558 289 -14 4 -54 22 -90 39 -36 17 -105 47 -155 66 -49 18
-94 37 -100 40 -5 4 -55 22 -110 39 -55 18 -109 36 -120 41 -59 27 -456 143
-520 153 -11 1 -25 6 -31 9 -6 4 -37 12 -70 18 -32 5 -113 21 -179 35 -120 25
-247 46 -405 65 -47 6 -118 16 -157 21 -73 10 -122 14 -398 29 -146 8 -474 10
-585 3z m525 -338 c330 -12 519 -32 870 -91 120 -21 374 -78 510 -116 111 -30
464 -147 565 -187 30 -12 75 -29 100 -38 25 -8 50 -19 56 -24 6 -5 28 -15 50
-23 126 -44 558 -267 746 -384 204 -127 491 -325 561 -387 7 -6 46 -37 87 -70
41 -33 84 -69 95 -80 11 -11 29 -27 41 -35 67 -48 391 -360 526 -507 72 -78
250 -290 309 -368 60 -78 279 -384 279 -389 0 -2 20 -35 45 -73 25 -37 45 -74
45 -80 0 -7 4 -13 8 -13 5 0 17 -18 28 -40 10 -22 22 -40 27 -40 4 0 7 -6 7
-13 0 -7 11 -28 24 -47 41 -62 246 -458 246 -477 0 -3 11 -29 24 -57 55 -115
87 -191 103 -239 9 -29 19 -56 23 -62 4 -5 20 -46 35 -90 16 -44 33 -91 38
-105 6 -14 11 -31 13 -38 1 -6 14 -49 28 -95 63 -203 75 -248 96 -337 12 -52
33 -140 45 -195 25 -105 32 -142 65 -345 38 -239 70 -630 70 -861 l0 -59
-2982 -2 -2983 -3 -5 -2984 -5 -2985 -60 2 c-357 12 -743 46 -934 84 -30 5
-64 12 -75 14 -249 43 -595 132 -836 216 -202 70 -286 101 -295 108 -5 4 -28
13 -50 20 -37 12 -94 38 -285 127 -122 57 -362 181 -425 220 -11 7 -28 16 -37
19 -10 3 -18 10 -18 15 0 5 -4 9 -10 9 -10 0 -112 60 -120 71 -3 3 -14 9 -26
13 -11 3 -29 14 -40 24 -10 9 -53 39 -94 66 -41 27 -76 53 -78 58 -2 4 -8 8
-14 8 -12 0 -105 64 -143 98 -7 6 -16 12 -20 12 -5 0 -17 9 -48 36 -7 6 -34
27 -61 47 -26 21 -89 72 -140 115 -50 42 -102 86 -116 97 -82 67 -348 328
-474 465 -38 41 -114 129 -168 195 -55 66 -113 136 -129 155 -16 19 -70 91
-119 160 -50 69 -94 130 -98 135 -8 11 -81 123 -147 225 -57 89 -145 238 -145
245 0 4 -9 19 -19 34 -45 62 -311 625 -311 657 0 3 -7 20 -15 37 -27 60 -113
302 -149 422 -20 66 -41 134 -46 150 -29 96 -93 374 -119 520 -60 334 -86 580
-98 908 l-6 187 2986 0 2987 0 0 2978 c0 1637 0 2983 0 2990 0 8 7 11 18 8 9
-2 94 -7 187 -11z m2885 -815 c0 -5 -2 -10 -4 -10 -3 0 -8 5 -11 10 -3 6 -1
10 4 10 6 0 11 -4 11 -10z"/>
</g>
</svg>
