<?xml version="1.0" standalone="no"?>
<!DOCTYPE svg PUBLIC "-//W3C//DTD SVG 20010904//EN"
 "http://www.w3.org/TR/2001/REC-SVG-20010904/DTD/svg10.dtd">
<svg version="1.0" xmlns="http://www.w3.org/2000/svg"
 width="3840.000000pt" height="2160.000000pt" viewBox="0 0 3840.000000 2160.000000"
 preserveAspectRatio="xMidYMid meet">
<metadata>
Created by potrace 1.16, written by Peter Selinger 2001-2019
</metadata>
<g transform="translate(0.000000,2160.000000) scale(0.100000,-0.100000)"
fill="#000000" stroke="none">
<path d="M28728 12091 l-413 -479 -1680 -4 c-1570 -3 -1682 -4 -1712 -20 -42
-24 -70 -61 -87 -119 -21 -71 -40 -738 -29 -1049 8 -234 10 -247 33 -289 14
-25 41 -54 60 -65 35 -21 47 -21 1038 -24 853 -2 1003 -4 999 -16 -4 -11
-1052 -1232 -1170 -1364 l-21 -22 839 2 839 3 600 695 601 695 64 5 c83 7 102
28 110 132 l6 73 989 1145 c544 630 996 1153 1004 1163 14 16 -26 17 -821 17
l-836 0 -413 -479z m-57 -537 c27 -24 24 -32 -16 -51 -32 -15 -35 -20 -35 -62
l0 -46 -1363 -2 c-1011 -2 -1373 -6 -1406 -15 -56 -15 -115 -71 -130 -123 -18
-64 -14 -216 6 -245 38 -58 111 -121 97 -85 -4 10 3 18 21 25 40 15 2707 9
2712 -7 2 -6 -14 -19 -36 -29 -39 -17 -41 -20 -41 -63 l0 -46 -1742 3 c-958 1
-1744 5 -1747 8 -3 3 -6 94 -7 202 -1 109 -2 209 -3 225 -1 26 -2 27 -65 27
l-64 0 5 87 c4 100 27 162 69 189 17 12 57 21 108 25 45 4 877 6 1849 4 1664
-3 1770 -4 1788 -21z m-768 -418 l-98 -115 -720 -3 c-1225 -5 -1187 -6 -1219
15 -27 18 -28 21 -24 94 3 67 6 78 31 99 l28 24 1050 0 1050 0 -98 -114z
m-524 -606 l-112 -131 -687 3 c-797 3 -740 -4 -740 99 0 78 19 121 61 142 31
15 107 17 812 17 l778 0 -112 -130z m-1687 83 c1 -10 2 -56 3 -103 3 -87 14
-131 42 -162 15 -17 100 -18 1520 -18 1199 0 1504 -3 1501 -12 -3 -7 -21 -22
-41 -33 -34 -18 -37 -23 -37 -65 l0 -45 -1037 3 c-571 1 -1395 3 -1831 5
l-794 2 -19 24 c-17 21 -19 41 -19 200 0 144 3 181 16 199 15 22 15 22 355 22
316 0 339 -1 341 -17z"/>
<path d="M29777 10605 l-1697 -1965 838 0 837 0 1690 1957 c930 1076 1692
1960 1693 1965 2 4 -371 8 -830 8 l-833 0 -1698 -1965z"/>
<path d="M11560 11630 c-837 -45 -1343 -184 -1594 -438 -123 -124 -161 -218
-160 -387 1 -122 18 -185 79 -280 143 -223 484 -381 1010 -469 721 -120 1907
-109 2575 24 363 73 602 175 762 328 121 115 178 246 178 406 0 133 -48 243
-150 346 -239 242 -716 392 -1453 456 -206 18 -1003 27 -1247 14z m1100 -41
c459 -26 861 -95 1127 -195 93 -35 253 -110 253 -118 0 -2 -17 -4 -37 -4 -21
0 -42 0 -47 -1 -6 -1 27 -26 72 -57 45 -31 105 -81 134 -113 74 -81 130 -216
113 -271 -6 -19 -18 -20 -350 -20 l-344 0 -6 38 c-12 80 -37 143 -79 200 -126
170 -400 276 -871 334 -140 18 -841 17 -1000 0 -405 -45 -674 -136 -826 -279
-72 -68 -123 -156 -135 -233 -4 -25 -12 -48 -18 -52 -6 -4 -160 -8 -343 -8
-374 0 -369 -1 -357 68 12 75 24 109 59 167 44 73 81 113 164 176 l64 49 -54
0 -54 0 50 32 c163 103 467 193 820 242 422 58 1106 77 1665 45z m-52 -344
c435 -54 710 -176 765 -339 80 -235 -163 -412 -665 -486 -403 -60 -976 -47
-1330 30 -207 45 -344 106 -435 195 -51 50 -64 70 -78 118 -18 62 -12 115 20
176 42 83 201 184 360 230 147 43 375 79 595 95 125 9 650 -4 768 -19z m1610
-641 c2 -12 -4 -28 -12 -37 -9 -9 -16 -19 -16 -22 0 -15 -109 -120 -160 -155
-254 -173 -694 -278 -1340 -319 -522 -34 -1095 -21 -1540 35 -542 68 -943 221
-1102 422 -20 25 -34 50 -32 54 3 4 0 8 -5 8 -6 0 -11 9 -11 20 0 21 4 21 343
20 l343 -2 78 -73 c53 -51 105 -88 164 -118 86 -44 222 -98 245 -96 7 0 -13 9
-43 20 -71 24 -170 71 -170 79 0 4 30 8 68 9 37 1 95 4 129 6 44 4 91 -2 165
-19 238 -56 551 -81 913 -73 455 11 750 63 965 172 80 41 91 44 189 48 92 5
107 8 127 29 l24 23 337 -5 c335 -5 338 -5 341 -26z"/>
<path d="M11225 10325 c22 -8 49 -13 60 -13 11 0 -2 6 -30 14 -63 17 -84 16
-30 -1z"/>
<path d="M11318 10303 c6 -2 18 -2 25 0 6 3 1 5 -13 5 -14 0 -19 -2 -12 -5z"/>
<path d="M11368 10293 c6 -2 18 -2 25 0 6 3 1 5 -13 5 -14 0 -19 -2 -12 -5z"/>
<path d="M11423 10283 c9 -2 23 -2 30 0 6 3 -1 5 -18 5 -16 0 -22 -2 -12 -5z"/>
<path d="M12798 10283 c7 -3 16 -2 19 1 4 3 -2 6 -13 5 -11 0 -14 -3 -6 -6z"/>
<path d="M11493 10273 c9 -2 23 -2 30 0 6 3 -1 5 -18 5 -16 0 -22 -2 -12 -5z"/>
<path d="M12728 10273 c7 -3 16 -2 19 1 4 3 -2 6 -13 5 -11 0 -14 -3 -6 -6z"/>
<path d="M11563 10263 c9 -2 25 -2 35 0 9 3 1 5 -18 5 -19 0 -27 -2 -17 -5z"/>
<path d="M12648 10263 c6 -2 18 -2 25 0 6 3 1 5 -13 5 -14 0 -19 -2 -12 -5z"/>
<path d="M11668 10253 c12 -2 30 -2 40 0 9 3 -1 5 -23 4 -22 0 -30 -2 -17 -4z"/>
<path d="M12543 10253 c9 -2 25 -2 35 0 9 3 1 5 -18 5 -19 0 -27 -2 -17 -5z"/>
<path d="M11798 10243 c17 -2 47 -2 65 0 17 2 3 4 -33 4 -36 0 -50 -2 -32 -4z"/>
<path d="M12383 10243 c15 -2 39 -2 55 0 15 2 2 4 -28 4 -30 0 -43 -2 -27 -4z"/>
<path d="M12073 10233 c20 -2 54 -2 75 0 20 2 3 4 -38 4 -41 0 -58 -2 -37 -4z"/>
<path d="M5255 11611 c-156 -9 -222 -37 -260 -111 -24 -45 -40 -393 -40 -865
0 -422 1 -452 19 -488 22 -45 66 -80 127 -103 38 -15 110 -18 559 -21 597 -6
2082 12 2280 27 449 34 757 98 970 202 68 34 102 59 170 128 134 134 185 257
184 445 -1 148 -42 244 -153 358 -236 245 -712 382 -1446 416 -254 12 -2241
21 -2410 12z m2150 -41 c521 -12 783 -39 1074 -111 182 -45 368 -119 436 -173
19 -16 17 -16 -35 -15 -30 0 -75 0 -100 0 l-45 -1 35 -22 c177 -107 244 -168
290 -263 36 -72 50 -153 29 -166 -23 -15 -645 -11 -657 4 -5 6 -13 38 -16 69
-16 127 -115 252 -256 323 -79 40 -232 82 -390 109 -211 35 -344 41 -1055 41
-656 0 -703 -1 -753 -19 -67 -23 -126 -78 -141 -131 -6 -22 -14 -122 -18 -222
l-6 -183 -313 0 c-172 0 -319 3 -328 6 -14 5 -16 35 -16 230 l0 224 -37 1
c-21 1 -51 1 -67 1 l-29 -1 6 105 c4 93 8 109 28 131 31 32 70 52 122 63 58
11 1738 11 2242 0z m135 -369 c251 -29 459 -86 565 -156 95 -64 135 -134 135
-237 0 -202 -190 -325 -594 -385 -93 -13 -229 -17 -836 -20 -517 -3 -736 -1
-763 7 -69 20 -68 17 -65 403 3 389 1 377 82 396 59 14 1341 7 1476 -8z
m-1746 -617 c3 -26 6 -65 6 -88 0 -62 8 -68 78 -64 54 3 62 1 71 -18 5 -11 26
-29 48 -40 36 -18 72 -19 668 -22 635 -3 840 4 1042 33 213 32 397 104 489
191 l49 47 403 5 c302 3 402 2 402 -7 0 -28 -45 -97 -98 -149 -146 -145 -447
-233 -947 -277 -112 -10 -388 -20 -730 -25 -643 -11 -1954 -13 -2044 -4 -48 6
-64 12 -74 28 -16 29 -23 374 -8 389 6 6 11 19 11 29 0 17 18 18 314 18 l313
0 7 -46z"/>
<path d="M15230 11611 c-113 -6 -130 -9 -178 -35 -29 -16 -61 -43 -72 -60 -31
-51 -44 -305 -45 -856 0 -447 1 -488 18 -518 21 -38 85 -87 136 -103 84 -26
2430 -17 2826 11 455 32 765 98 980 208 149 77 276 222 324 372 21 68 31 189
21 263 -36 258 -291 468 -708 583 -198 54 -396 87 -692 114 -203 19 -2301 36
-2610 21z m2525 -51 c459 -33 833 -113 1050 -223 124 -63 125 -67 13 -64 -54
2 -98 0 -98 -4 0 -3 37 -28 83 -54 109 -63 217 -172 244 -246 32 -84 36 -124
17 -143 -14 -14 -53 -16 -337 -14 l-321 3 -12 72 c-16 96 -47 156 -119 228
-101 102 -215 149 -485 200 -216 41 -345 47 -1041 52 -453 3 -699 2 -744 -6
-122 -19 -191 -70 -215 -160 -5 -20 -12 -116 -16 -213 l-6 -178 -318 0 c-244
0 -321 3 -327 13 -4 6 -8 111 -8 232 l0 220 -63 -2 -64 -3 4 104 c3 95 5 107
28 131 30 32 65 52 117 65 53 13 2422 5 2618 -10z m-355 -341 c283 -20 476
-60 616 -129 145 -71 206 -153 206 -281 2 -206 -187 -334 -582 -394 -139 -21
-887 -39 -1304 -31 -321 7 -363 13 -384 53 -17 32 -21 171 -14 454 8 309 7
308 80 327 50 13 1198 15 1382 1z m-1635 -657 c3 -37 8 -82 11 -101 l5 -34 69
7 c64 6 69 5 84 -18 33 -51 40 -51 781 -51 507 0 722 4 810 13 312 35 504 96
624 199 24 20 51 38 60 40 53 8 141 9 141 2 0 -5 11 -4 25 1 18 7 459 14 633
10 14 0 17 -40 2 -40 -5 0 -9 -3 -9 -7 3 -19 -2 -31 -22 -54 -12 -13 -26 -31
-33 -39 -21 -29 -111 -98 -156 -120 -202 -102 -550 -165 -1045 -190 -242 -12
-2423 -26 -2517 -16 -107 12 -103 2 -103 239 0 140 4 208 12 218 9 12 64 14
316 11 l305 -3 7 -67z"/>
<path d="M21360 11598 c-1053 -30 -1590 -290 -1590 -768 0 -372 314 -614 935
-720 344 -59 777 -72 2205 -68 l1016 3 49 26 c55 28 89 71 106 133 17 62 18
640 1 688 -16 45 -59 84 -110 98 -52 14 -2093 14 -2145 -1 -20 -5 -43 -20 -51
-32 -29 -47 -30 -244 0 -284 11 -17 56 -18 627 -23 606 -5 616 -5 644 -26 34
-25 49 -82 39 -148 -13 -82 43 -76 -705 -76 -367 0 -728 5 -802 10 -250 19
-461 65 -582 127 -204 103 -259 337 -115 489 28 30 74 68 103 84 127 73 363
123 650 140 94 5 677 10 1296 10 1124 0 1126 0 1153 21 26 20 26 22 26 150 0
116 -2 131 -20 149 -11 11 -35 21 -52 22 -107 5 -2492 2 -2678 -4z m2694 -34
c26 -10 18 -33 -19 -55 -33 -20 -35 -24 -35 -73 0 -40 4 -54 20 -63 10 -7 24
-23 30 -35 10 -21 9 -20 -12 3 -13 15 -33 32 -45 38 -29 15 -2225 15 -2428 1
-400 -30 -646 -110 -792 -261 -47 -48 -91 -129 -100 -184 l-6 -37 52 7 c46 6
51 5 51 -13 0 -48 -34 -102 -65 -102 -3 0 -15 19 -25 43 -14 29 -20 35 -20 21
0 -12 -7 -25 -16 -28 -9 -3 -166 -6 -350 -6 l-334 0 0 55 c0 124 76 238 221
334 l93 61 -50 1 c-27 0 -76 1 -108 0 -67 0 -66 4 22 53 223 126 599 208 1078
235 163 9 2815 14 2838 5z m-74 -603 c36 -20 70 -52 70 -68 0 -11 -193 -13
-1097 -13 -604 0 -1115 3 -1135 6 -44 8 -50 30 -17 60 30 28 154 31 1229 30
765 -1 929 -3 950 -15z m-48 -128 c10 -10 -191 -13 -1004 -13 -559 0 -1019 4
-1022 9 -3 4 -2 11 1 15 4 3 458 5 1009 4 786 -2 1006 -6 1016 -15z m-3222
-237 c52 -66 139 -142 191 -167 63 -31 123 -35 769 -44 206 -3 447 -7 535 -10
88 -3 346 -8 572 -11 l412 -7 13 29 c6 16 14 77 16 136 l4 107 357 0 357 0 11
-52 c11 -51 10 -237 -2 -325 -6 -37 -11 -46 -38 -57 -72 -29 -2423 -25 -2782
5 -404 33 -729 102 -890 188 -59 32 -170 133 -193 176 -33 64 -47 61 288 66
168 3 316 3 330 1 14 -2 36 -18 50 -35z"/>
</g>
</svg>
