<?xml version="1.0" standalone="no"?>
<!DOCTYPE svg PUBLIC "-//W3C//DTD SVG 20010904//EN"
 "http://www.w3.org/TR/2001/REC-SVG-20010904/DTD/svg10.dtd">
<svg version="1.0" xmlns="http://www.w3.org/2000/svg"
 width="300.000000pt" height="168.000000pt" viewBox="0 0 300.000000 168.000000"
 preserveAspectRatio="xMidYMid meet">
<metadata>
Created by potrace 1.16, written by Peter Selinger 2001-2019
</metadata>
<g transform="translate(0.000000,168.000000) scale(0.100000,-0.100000)"
fill="#000000" stroke="none">
<path d="M0 1340 l0 -340 148 -1 c81 0 198 -3 260 -5 82 -4 112 -3 112 6 0 7
-13 11 -32 10 -49 -3 -72 -1 -66 6 6 5 397 7 415 2 13 -4 73 23 139 63 76 46
124 71 124 64 0 -2 -18 -14 -40 -25 -25 -13 -38 -25 -34 -32 4 -7 3 -8 -5 -4
-13 8 -224 -121 -217 -133 3 -4 -5 -8 -16 -8 -20 -2 -20 -1 -2 20 10 12 12 17
5 10 -9 -8 -21 -9 -37 -3 -13 5 -24 6 -24 1 0 -4 -21 -5 -47 -1 -27 4 -56 4
-66 -1 -9 -6 -38 -7 -65 -3 -26 3 -51 6 -57 6 -5 -1 -29 -2 -52 -3 -24 -1 -43
-4 -43 -8 0 -3 -21 -5 -47 -5 -27 1 -58 -2 -71 -7 -12 -5 -22 -5 -22 0 0 4
-12 7 -27 5 -16 -2 -74 -4 -130 -5 l-103 -1 0 -119 c0 -97 2 -117 14 -113 18
7 30 -12 15 -22 -8 -5 -9 -3 -4 6 5 8 3 11 -6 8 -9 -3 -15 -24 -17 -66 -3 -57
-1 -62 24 -75 26 -13 26 -14 5 -20 -11 -3 -19 -1 -16 3 3 5 1 11 -5 15 -6 4
-10 -34 -10 -109 l0 -116 93 0 c67 0 99 4 115 15 20 15 21 14 16 0 -12 -29 17
-65 56 -71 31 -5 41 -14 69 -60 20 -34 47 -62 72 -77 21 -12 39 -25 39 -29 0
-5 -34 -8 -75 -8 -41 0 -75 -4 -75 -9 0 -5 -23 -11 -50 -15 -28 -4 -57 -9 -65
-12 -25 -10 -17 -31 16 -43 81 -28 204 -32 839 -27 611 6 1032 17 895 26 -41
2 -49 4 -25 7 166 15 296 29 550 58 162 18 318 36 345 40 28 3 58 6 68 6 21 0
21 6 3 25 -9 8 -47 16 -100 20 -48 4 -85 10 -83 13 19 34 40 92 46 125 l7 41
121 3 122 3 0 294 0 294 -22 4 -22 4 23 2 22 1 0 355 0 355 -756 0 c-606 0
-755 -3 -751 -13 3 -7 -3 -13 -14 -13 -13 0 -15 4 -8 13 9 10 -142 12 -730 13
l-741 0 0 -340z m370 295 c-7 -9 -15 -13 -19 -10 -3 3 1 10 9 15 21 14 24 12
10 -5z m297 9 c-3 -3 -12 -4 -19 -1 -8 3 -5 6 6 6 11 1 17 -2 13 -5z m1058
-182 c-3 -3 -11 0 -18 7 -9 10 -8 11 6 5 10 -3 15 -9 12 -12z m-631 0 c2 -4
-4 -8 -14 -8 -10 0 -16 4 -14 8 3 4 9 8 14 8 5 0 11 -4 14 -8z m1161 -230
c107 -8 325 -67 325 -88 0 -8 6 -14 13 -14 6 0 25 -17 41 -38 l29 -37 -29 25
c-16 14 8 -11 54 -55 45 -44 82 -83 82 -87 0 -4 -17 -10 -37 -14 l-37 -7 23
-18 c13 -11 31 -19 41 -19 30 0 40 -24 46 -111 4 -46 13 -95 21 -107 10 -17
14 -45 11 -94 -3 -67 -2 -69 19 -65 12 2 20 0 17 -4 -3 -5 -13 -9 -22 -9 -9 0
-31 -14 -49 -32 -18 -18 -33 -27 -33 -21 0 7 5 15 10 18 15 9 12 135 -5 191
-8 28 -26 61 -39 73 -22 20 -33 23 -81 19 -58 -5 -94 -24 -127 -69 -29 -39
-71 -169 -74 -233 -2 -32 -6 -61 -9 -65 -4 -3 -66 -6 -138 -6 -73 0 -117 1
-99 3 17 2 32 8 32 14 0 6 16 7 43 3 27 -4 37 -3 27 3 -8 5 -37 12 -65 15 -28
3 -39 3 -25 -1 22 -7 23 -9 7 -15 -10 -4 -30 -7 -43 -7 -16 0 -24 -6 -24 -16
0 -14 -7 -16 -40 -11 -21 3 -40 2 -42 -2 -2 -4 -86 -17 -187 -29 -101 -13
-192 -27 -203 -33 -24 -13 -24 7 -1 33 24 27 21 152 -7 240 -36 117 -94 152
-217 131 -105 -18 -165 -80 -207 -212 -37 -116 -46 -177 -30 -199 18 -26 9
-32 -43 -32 -51 0 -55 6 -73 116 -13 79 -57 149 -86 137 -12 -4 -9 -9 14 -19
32 -13 39 -27 44 -89 l3 -39 -65 -24 c-75 -27 -134 -40 -110 -23 12 9 10 11
-12 11 -15 0 -34 7 -42 16 -9 9 -26 17 -39 19 -97 16 -170 24 -213 25 -35 0
-56 5 -65 16 -12 15 -3 16 105 13 134 -4 143 0 99 53 -68 80 -94 119 -87 130
4 6 3 8 -4 4 -6 -3 -14 -1 -18 6 -5 7 9 26 37 50 l44 38 -115 0 c-63 0 -149 5
-190 10 -53 7 -77 7 -85 -1 -7 -8 -6 -13 3 -16 16 -6 16 -26 0 -21 -15 5 -46
-40 -77 -111 -42 -99 -40 -103 52 -116 l47 -6 0 42 0 42 53 -7 c28 -3 67 -6
85 -6 l32 0 0 -60 0 -60 -52 0 c-29 0 -80 7 -113 15 -73 17 -119 19 -147 4
-20 -11 -21 -10 -15 42 4 30 7 92 7 138 l0 84 23 -21 c37 -35 42 -26 8 13 -17
20 -31 40 -31 45 0 6 -5 10 -11 10 -6 0 -9 -9 -6 -20 3 -11 2 -18 -3 -15 -4 3
-10 13 -13 24 -4 17 0 19 30 16 24 -2 41 3 54 16 15 15 19 16 19 4 0 -8 6 -15
13 -15 8 0 7 -4 -3 -10 -13 -9 -13 -10 0 -10 22 0 41 36 34 66 -15 59 59 95
291 141 156 30 119 29 400 17 316 -12 377 -12 382 4 3 8 -9 13 -39 14 l-43 1
40 4 c22 3 47 10 55 17 20 17 224 116 239 116 6 0 11 5 11 12 0 6 -3 8 -6 5
-4 -3 -16 -2 -27 4 -13 8 -17 8 -13 0 8 -12 -30 -35 -44 -26 -6 3 -10 1 -10
-5 0 -7 -6 -10 -13 -7 -8 3 -31 -3 -53 -12 -21 -10 -52 -21 -69 -25 l-30 -8
28 26 c16 15 48 32 72 38 24 7 41 16 38 21 -3 6 -1 7 5 3 6 -4 28 0 48 9 20 8
45 15 55 15 11 0 19 4 19 9 0 5 30 9 66 10 91 2 113 16 38 24 -79 9 -343 8
-424 -1 -59 -6 -62 -8 -32 -15 19 -4 57 -4 85 -1 31 4 48 3 42 -3 -10 -9 -91
-37 -135 -47 -14 -3 -41 -19 -59 -35 -19 -17 -38 -28 -43 -25 -6 4 -22 1 -36
-6 -15 -7 -37 -17 -49 -23 -13 -6 -23 -13 -23 -17 0 -17 86 11 170 54 14 8 31
11 38 9 14 -5 72 18 72 29 0 5 12 8 28 8 l27 0 -23 -18 c-16 -12 -21 -23 -16
-35 5 -15 2 -17 -18 -12 -29 7 -57 -19 -60 -57 -2 -19 -8 -25 -28 -26 -34 -1
-124 -9 -190 -17 -39 -4 -51 -3 -40 5 11 7 -14 9 -87 8 -56 -2 -105 1 -109 5
-4 4 -1 7 7 7 8 0 25 10 39 21 14 11 19 17 11 13 -9 -5 -12 -3 -7 5 4 6 12 9
17 6 5 -4 24 5 41 18 18 14 49 32 68 42 19 9 43 27 53 39 10 11 16 15 12 9 -7
-14 -4 -14 110 36 64 28 67 30 35 30 -19 0 -53 -6 -75 -14 -50 -18 -57 -18
-24 0 14 8 61 24 105 36 73 21 101 23 359 24 154 1 307 3 340 5 l60 3 -50 8
c-33 5 -7 6 80 5 72 -2 139 0 150 4 12 5 24 3 30 -4 6 -6 28 -13 50 -14z
m-1200 -42 c3 -5 1 -10 -4 -10 -6 0 -11 5 -11 10 0 6 2 10 4 10 3 0 8 -4 11
-10z m65 -60 c0 -5 -5 -10 -11 -10 -5 0 -7 5 -4 10 3 6 8 10 11 10 2 0 4 -4 4
-10z m236 -127 c-10 -10 -19 5 -10 18 6 11 8 11 12 0 2 -7 1 -15 -2 -18z
m-1213 10 c-13 -2 -33 -2 -45 0 -13 2 -3 4 22 4 25 0 35 -2 23 -4z m165 0
c-10 -2 -26 -2 -35 0 -10 3 -2 5 17 5 19 0 27 -2 18 -5z m1037 -43 c3 -5 -1
-10 -10 -10 -9 0 -13 5 -10 10 3 6 8 10 10 10 2 0 7 -4 10 -10z m1484 -6 c10
-9 -35 -3 -49 6 -11 8 -7 9 15 4 17 -4 32 -8 34 -10z m-2669 -279 c0 -8 -5
-17 -12 -21 -8 -5 -9 -2 -5 9 4 12 1 17 -11 17 -14 0 -15 2 -2 9 17 11 30 5
30 -14z m333 -55 c5 -23 4 -24 -9 -5 -14 19 -14 19 -28 -1 -13 -17 -12 -20 12
-25 l27 -7 -27 -1 c-30 -1 -46 15 -29 32 18 18 12 28 -10 16 -13 -7 -19 -7
-15 -1 4 6 -7 12 -26 15 -18 2 -3 3 34 3 63 0 67 -2 71 -26z m110 13 c-7 -2
-19 -2 -25 0 -7 3 -2 5 12 5 14 0 19 -2 13 -5z m-252 -41 c-13 -2 -27 0 -32 5
-6 6 3 7 23 4 28 -4 29 -6 9 -9z m79 -17 c14 -19 14 -19 -2 -6 -10 7 -18 18
-18 24 0 6 1 8 3 6 1 -2 9 -13 17 -24z m-322 -29 c-7 -8 -15 -12 -17 -11 -5 6
10 25 20 25 5 0 4 -6 -3 -14z m245 -13 c-7 -2 -19 -2 -25 0 -7 3 -2 5 12 5 14
0 19 -2 13 -5z m2327 -13 c18 -18 19 -23 6 -48 -8 -15 -24 -36 -37 -47 -12
-11 -19 -14 -14 -6 6 11 4 13 -9 8 -13 -5 -21 2 -32 29 -16 39 -28 36 -39 -7
-5 -22 -2 -27 17 -33 l23 -7 -25 -12 c-14 -6 -28 -16 -32 -22 -10 -14 -10 1 3
55 14 63 52 110 90 110 16 0 38 -9 49 -20z m-2167 3 c-7 -2 -21 -2 -30 0 -10
3 -4 5 12 5 17 0 24 -2 18 -5z m-180 -50 c-7 -2 -19 -2 -25 0 -7 3 -2 5 12 5
14 0 19 -2 13 -5z m1162 -12 c49 -22 73 -48 91 -98 40 -114 -21 -242 -128
-268 -34 -9 -95 11 -126 39 -40 35 -62 90 -61 148 1 44 3 48 9 23 l7 -30 11
25 11 25 7 -22 c4 -16 14 -23 30 -23 13 0 24 5 24 10 0 6 5 10 10 10 7 0 7 -6
0 -20 -9 -17 -17 -19 -55 -13 -42 5 -45 4 -45 -16 0 -12 4 -20 9 -16 5 3 13 0
17 -6 5 -8 3 -9 -6 -4 -9 6 -10 2 -5 -16 12 -41 24 -46 45 -19 11 14 23 34 26
45 10 31 27 36 42 12 7 -12 11 -15 9 -7 -3 10 2 16 15 17 15 2 17 -1 8 -12 -9
-11 -7 -12 9 -8 16 4 21 1 21 -16 0 -23 -14 -28 -26 -10 -4 7 -15 -10 -26 -40
-11 -28 -24 -51 -29 -51 -13 0 -11 12 6 34 19 25 19 66 2 66 -8 0 -22 -18 -32
-40 -18 -39 -18 -41 1 -55 31 -23 111 -17 143 11 3 2 -6 15 -19 29 -22 24 -23
27 -7 42 15 15 16 15 11 -3 -7 -27 28 -60 44 -41 14 17 -25 77 -49 77 -21 0
-32 27 -14 34 8 3 15 2 17 -2 2 -5 19 -20 40 -35 l36 -28 6 31 c21 105 21 97
-2 77 -11 -10 -36 -21 -56 -24 -36 -6 -44 3 -37 41 1 5 -5 4 -13 -3 -9 -7 -13
-17 -10 -22 3 -5 -2 -6 -10 -3 -16 6 -11 12 79 87 l29 24 -42 22 c-22 11 -44
21 -47 21 -3 0 -5 -20 -5 -44 0 -48 -14 -72 -16 -27 -2 51 -13 81 -29 75 -20
-8 -19 -73 1 -103 16 -22 16 -23 -4 -12 -22 12 -47 74 -37 91 13 21 -10 9 -42
-22 -37 -36 -42 -48 -14 -41 10 3 22 0 25 -6 4 -7 1 -8 -8 -5 -9 3 -16 3 -16
0 0 -4 13 -12 29 -17 16 -6 32 -17 35 -25 7 -18 -8 -18 -26 -1 -7 7 -26 13
-43 13 -26 -1 -30 2 -27 23 4 36 38 77 84 100 52 26 71 26 123 2z m1204 -37
c-7 -13 -19 -24 -28 -24 -11 0 -9 4 7 16 13 9 22 27 23 42 1 19 3 22 6 8 3
-10 -1 -29 -8 -42z m-13 -63 c23 4 34 -3 34 -19 0 -30 -13 -35 -31 -11 -24 33
-45 15 -23 -19 17 -26 17 -27 -2 -12 -10 8 -23 20 -27 25 -5 6 -7 4 -4 -6 3
-9 1 -31 -3 -50 -9 -34 -9 -34 -8 -4 1 70 -10 73 -22 6 -6 -33 -4 -40 11 -44
25 -7 79 29 79 53 0 11 5 20 10 20 13 0 13 -6 -5 -40 -29 -56 -82 -64 -121
-17 -14 16 -22 32 -19 35 3 4 10 1 14 -7 6 -9 10 -6 14 11 13 48 9 61 -18 55
-17 -3 -24 0 -22 7 3 6 10 10 17 8 7 -1 18 2 26 9 11 9 16 6 23 -12 9 -22 10
-22 11 -4 1 11 4 14 7 8 2 -7 9 -13 15 -13 6 0 8 6 5 14 -8 19 3 28 19 16 6
-6 16 -10 20 -9z m101 13 c-3 -3 -12 -4 -19 -1 -8 3 -5 6 6 6 11 1 17 -2 13
-5z m-2165 -43 c120 -9 221 -21 225 -25 13 -13 -503 27 -567 44 -39 11 -20 10
342 -19z m426 -71 c19 0 23 3 13 9 -7 5 -12 14 -9 21 3 9 9 8 21 -4 9 -10 17
-13 17 -7 0 6 5 11 10 11 7 0 7 -6 0 -20 -7 -14 -21 -20 -45 -20 -35 0 -85 18
-85 30 0 17 13 17 31 -1 10 -10 31 -19 47 -19z m1299 24 c8 -8 22 -14 32 -14
10 0 22 -13 29 -32 6 -17 11 -32 9 -33 -1 -1 -65 2 -142 6 -77 4 -207 5 -290
2 l-150 -6 32 27 c29 24 38 27 74 21 26 -5 44 -3 48 4 4 6 65 15 135 20 71 5
130 12 133 14 10 11 78 4 90 -9z m-790 -36 c-3 -8 -6 -5 -6 6 -1 11 2 17 5 13
3 -3 4 -12 1 -19z m-977 -28 c12 -8 12 -10 -2 -15 -23 -9 -50 -3 -56 13 -4 14
36 16 58 2z m60 -4 c0 -3 -4 -8 -10 -11 -5 -3 -10 -1 -10 4 0 6 5 11 10 11 6
0 10 -2 10 -4z m1035 -6 c3 -5 -1 -10 -9 -10 -9 0 -16 5 -16 10 0 6 4 10 9 10
6 0 13 -4 16 -10z m-615 -32 c0 -4 12 -8 28 -9 27 0 77 -17 55 -18 -42 -3
-376 -32 -412 -36 l-44 -5 41 30 c23 16 45 37 50 47 9 17 20 17 146 9 75 -5
136 -13 136 -18z"/>
<path d="M2037 1179 c-90 -13 -129 -26 -180 -60 -44 -29 -142 -138 -142 -158
0 -6 -7 -16 -15 -23 -9 -7 -23 -23 -33 -34 -18 -22 -18 -22 35 -20 45 1 55 5
63 24 5 12 13 22 16 22 4 0 5 8 2 18 -3 13 6 28 28 46 28 24 38 27 68 21 20
-4 48 -8 63 -9 14 0 24 -4 22 -7 -2 -4 3 -12 11 -19 32 -27 17 -38 -62 -45
-88 -7 -128 -19 -117 -37 5 -7 3 -8 -5 -4 -18 11 -43 -25 -29 -41 16 -20 44
-15 61 11 12 18 27 24 72 29 31 3 62 10 69 16 11 9 192 29 431 46 84 7 91 9
122 40 18 18 33 40 33 49 0 18 -79 72 -153 104 -90 40 -222 51 -360 31z m381
-103 c3 -3 -10 -7 -29 -7 l-34 -1 30 -7 c19 -4 -18 -9 -100 -13 -138 -7 -177
2 -103 24 44 13 224 15 236 4z m-288 -15 c0 -6 -4 -13 -10 -16 -5 -3 -10 1
-10 9 0 9 5 16 10 16 6 0 10 -4 10 -9z m-60 -12 c0 -6 4 -8 9 -5 10 7 23 -19
14 -28 -4 -3 -24 -6 -47 -6 -38 0 -39 1 -20 15 18 15 15 16 -33 13 -54 -3 -60
8 -8 14 62 7 85 6 85 -3z m-256 -13 c-7 -18 -32 -28 -39 -16 -3 5 3 13 12 19
25 14 33 13 27 -3z"/>
<path d="M1728 1123 c6 -2 18 -2 25 0 6 3 1 5 -13 5 -14 0 -19 -2 -12 -5z"/>
<path d="M1020 970 c-13 -8 -12 -10 3 -10 9 0 17 5 17 10 0 12 -1 12 -20 0z"/>
<path d="M1535 933 c-29 -7 -39 -19 -21 -26 8 -3 25 3 38 13 23 19 20 22 -17
13z"/>
<path d="M1440 919 c0 -5 5 -7 10 -4 6 3 10 8 10 11 0 2 -4 4 -10 4 -5 0 -10
-5 -10 -11z"/>
<path d="M2495 880 c-3 -5 3 -10 14 -10 12 0 21 5 21 10 0 6 -6 10 -14 10 -8
0 -18 -4 -21 -10z"/>
<path d="M2507 853 c-33 -5 -26 -23 9 -23 14 0 23 4 19 9 -3 5 3 12 12 14 22
6 -1 6 -40 0z"/>
<path d="M2097 827 c-4 -10 2 -13 19 -9 13 2 24 8 24 13 0 14 -37 10 -43 -4z"/>
<path d="M1240 785 c-25 -7 -38 -14 -30 -14 13 -1 13 -3 0 -10 -22 -12 -99
-23 -80 -11 24 15 0 13 -125 -12 -112 -22 -155 -40 -155 -64 0 -11 25 -14 126
-14 l126 0 99 65 c121 79 125 85 39 60z"/>
<path d="M2079 787 c5 -5 21 -7 37 -5 27 3 26 4 -8 9 -22 3 -34 1 -29 -4z"/>
<path d="M1158 763 c7 -3 16 -2 19 1 4 3 -2 6 -13 5 -11 0 -14 -3 -6 -6z"/>
<path d="M1128 634 c-4 -3 -35 -8 -70 -10 -84 -6 -152 -12 -215 -19 -45 -5
-52 -4 -47 10 5 13 2 14 -21 5 -15 -6 -37 -17 -48 -25 -21 -14 -21 -15 -2 -15
107 1 423 38 431 51 6 10 -19 13 -28 3z"/>
<path d="M434 449 c-3 -5 6 -8 20 -7 26 2 26 10 1 14 -8 1 -17 -2 -21 -7z"/>
<path d="M1988 433 c7 -3 16 -2 19 1 4 3 -2 6 -13 5 -11 0 -14 -3 -6 -6z"/>
<path d="M1883 411 c-34 -9 -65 -20 -69 -24 -12 -12 7 -8 86 17 86 28 75 32
-17 7z"/>
<path d="M1990 360 c8 -5 20 -10 25 -10 6 0 3 5 -5 10 -8 5 -19 10 -25 10 -5
0 -3 -5 5 -10z"/>
<path d="M2601 513 c3 -75 33 -90 63 -31 22 41 21 42 -13 53 -22 7 -23 6 -18
-36 l6 -44 -11 43 c-12 47 -29 56 -27 15z"/>
<path d="M1528 369 c-37 -19 -48 -41 -28 -54 11 -7 80 31 80 43 -1 26 -17 29
-52 11z"/>
<path d="M2696 345 c4 -8 8 -15 10 -15 2 0 4 7 4 15 0 8 -4 15 -10 15 -5 0 -7
-7 -4 -15z"/>
<path d="M645 999 c-12 -4 21 -8 82 -8 56 -1 104 2 106 7 7 10 -163 11 -188 1z"/>
<path d="M568 993 c12 -2 30 -2 40 0 9 3 -1 5 -23 4 -22 0 -30 -2 -17 -4z"/>
<path d="M2944 141 c5 -8 56 -3 56 5 0 2 -14 4 -31 4 -16 0 -28 -4 -25 -9z"/>
<path d="M18 113 c-10 -2 -18 -9 -18 -15 0 -6 10 -8 23 -4 12 3 39 6 60 6 20
0 37 4 37 8 0 8 -74 12 -102 5z"/>
<path d="M161 116 c8 -8 98 -10 105 -3 4 4 -19 7 -51 7 -32 0 -56 -2 -54 -4z"/>
</g>
</svg>
