<?xml version="1.0" standalone="no"?>
<!DOCTYPE svg PUBLIC "-//W3C//DTD SVG 20010904//EN"
 "http://www.w3.org/TR/2001/REC-SVG-20010904/DTD/svg10.dtd">
<svg version="1.0" xmlns="http://www.w3.org/2000/svg"
 width="800.000000pt" height="532.000000pt" viewBox="0 0 800.000000 532.000000"
 preserveAspectRatio="xMidYMid meet">
<metadata>
Created by potrace 1.16, written by Peter Selinger 2001-2019
</metadata>
<g transform="translate(0.000000,532.000000) scale(0.100000,-0.100000)"
fill="#000000" stroke="none">
<path d="M1 4755 c0 -379 4 -567 11 -571 6 -4 8 2 3 17 -5 18 -4 20 4 9 5 -8
13 -43 17 -77 3 -35 10 -63 14 -63 10 0 20 26 20 51 0 10 7 19 15 19 8 0 15
-7 15 -15 0 -8 15 -21 34 -29 37 -16 50 -33 61 -84 10 -47 -3 -122 -21 -122
-8 0 -14 -8 -14 -17 0 -22 -60 40 -110 115 -19 29 -38 52 -42 52 -5 0 -8 -747
-8 -1660 0 -1064 3 -1660 10 -1660 5 0 7 -6 4 -13 -6 -18 22 -42 31 -27 3 5 1
10 -4 10 -6 0 -11 5 -11 10 0 12 87 12 115 0 14 -6 2 -8 -35 -5 -43 3 -51 1
-36 -7 10 -6 40 -8 66 -5 61 7 120 -8 120 -31 0 -13 2 -14 9 -3 6 9 14 10 27
3 11 -6 22 -10 27 -11 10 -1 140 -39 207 -61 30 -10 88 -28 128 -40 39 -13 72
-27 72 -32 0 -6 6 -8 14 -5 13 5 272 -71 264 -78 -3 -3 -346 -130 -743 -275
-240 -87 -275 -103 -263 -115 5 -6 92 24 403 140 99 37 230 85 290 106 61 22
160 58 220 81 61 23 124 42 140 42 17 0 98 -22 180 -48 440 -140 523 -166 555
-174 19 -5 159 -49 310 -96 175 -55 287 -86 309 -84 25 2 -15 18 -170 66 -112
35 -274 85 -359 112 -85 27 -218 69 -295 93 -341 107 -475 152 -475 157 0 3
44 20 98 37 53 18 121 41 151 52 30 11 58 18 62 15 5 -3 9 -1 9 3 0 12 83 35
101 28 9 -3 28 -1 43 5 17 6 25 6 21 0 -11 -17 5 -32 21 -19 8 6 21 8 31 3 10
-4 27 -8 38 -9 132 -10 195 -18 195 -24 0 -5 27 -7 60 -7 33 1 60 -2 60 -6 0
-4 7 -8 15 -8 8 0 15 5 15 10 0 13 33 13 64 -1 19 -9 29 -9 40 0 16 14 373 13
392 -1 15 -11 75 2 68 14 -4 6 6 9 22 7 16 -1 61 3 99 9 39 6 77 11 85 11 41
2 137 13 150 18 8 4 17 6 20 5 8 -1 138 15 215 27 39 5 119 15 179 20 60 6
114 15 120 20 21 18 172 50 216 47 53 -5 181 -22 228 -32 22 -5 32 -3 32 6 0
8 -8 10 -21 7 -12 -3 -18 -2 -13 2 5 5 35 11 66 13 47 4 54 2 40 -7 -9 -7 -26
-14 -36 -16 -23 -5 -34 -29 -13 -29 9 0 22 7 31 15 8 8 21 15 30 15 8 0 25 4
38 9 13 5 97 15 188 21 382 27 531 74 670 210 42 41 82 93 109 143 32 58 47
77 59 73 23 -7 318 -58 517 -90 88 -15 237 -40 330 -56 94 -16 179 -29 190
-29 44 2 -127 34 -804 149 -129 22 -237 43 -239 45 -3 3 2 22 11 42 30 68 67
215 79 310 11 85 27 119 43 93 4 -6 1 -10 -5 -10 -18 0 0 -20 28 -31 31 -12
148 21 183 52 12 10 26 19 31 19 9 0 72 28 185 81 58 28 82 56 68 78 -9 16 16
24 71 22 54 -2 99 14 123 43 7 9 17 14 21 11 4 -3 24 -7 43 -9 l36 -5 4 67 3
67 2 -66 2 -66 121 -12 c67 -7 128 -15 136 -18 11 -4 14 -1 11 8 -5 14 -9 15
-49 18 -12 0 -17 5 -13 12 3 6 17 9 30 6 19 -3 26 1 30 20 7 26 0 160 -8 169
-3 2 -52 14 -109 24 -132 26 -140 30 -55 28 46 -1 71 3 74 10 2 8 -9 12 -31
12 -44 0 -97 11 -97 19 0 12 208 111 232 111 12 0 29 7 39 15 15 14 18 14 32
0 9 -8 32 -15 52 -15 20 0 37 -6 40 -13 2 -6 11 -37 19 -67 23 -83 74 -162
119 -183 l37 -19 -18 -31 c-11 -18 -22 -50 -25 -71 l-6 -40 22 32 c12 17 29
32 38 32 31 0 224 51 245 65 89 57 154 187 185 370 7 39 13 144 14 235 2 91 3
173 4 183 1 21 21 23 21 2 0 -8 7 -15 16 -15 8 0 12 4 9 10 -3 5 1 10 10 10
10 0 13 -5 9 -12 -5 -8 2 -9 26 -4 41 8 39 5 -25 -29 -47 -25 -48 -27 -15 -20
19 4 47 14 62 21 15 8 30 14 33 14 9 0 27 -52 30 -90 2 -19 9 -36 14 -38 23
-8 9 -22 -21 -22 -28 -1 -30 -2 -15 -11 9 -6 32 -9 49 -7 30 3 34 8 49 58 19
61 11 83 -21 62 -24 -15 -30 -15 -30 -2 0 6 7 10 15 10 8 0 15 7 15 15 0 8 -4
15 -10 15 -5 0 -10 7 -10 15 0 7 -8 19 -17 24 -10 6 -14 11 -9 11 5 0 3 6 -3
14 -8 9 -8 16 -2 20 13 9 2 36 -14 36 -16 0 -28 27 -15 35 5 3 12 0 15 -5 4
-7 15 4 26 24 24 45 24 46 -5 46 -13 0 -23 -6 -22 -12 3 -28 -19 -21 -25 7 -4
17 -7 23 -8 15 -1 -18 -17 -2 -26 28 -6 22 -6 22 97 21 148 0 234 -17 200 -38
-7 -4 -18 -36 -25 -71 -10 -46 -19 -65 -33 -70 -18 -7 -18 -7 4 -14 12 -4 22
-12 22 -17 0 -5 11 -7 25 -3 19 5 24 3 20 -7 -12 -34 9 -38 85 -17 41 12 91
20 110 19 19 -1 77 -2 129 -2 84 0 94 -2 98 -19 5 -20 37 -28 47 -12 6 9 -30
72 -41 73 -45 5 -186 2 -190 -3 -6 -11 -23 -10 -23 2 0 5 11 12 25 16 14 3 25
9 25 13 0 7 90 5 163 -3 58 -6 46 19 -15 33 -29 6 -63 14 -75 17 -17 5 -23 2
-23 -11 0 -13 -3 -15 -12 -7 -9 7 -36 6 -88 -4 -73 -14 -126 -13 -62 1 23 5
34 15 38 32 5 16 9 21 14 13 4 -7 16 -9 29 -5 33 10 25 25 -14 25 -23 0 -38 6
-42 15 -5 14 -7 14 -23 0 -21 -19 -35 -5 -17 17 10 12 33 13 122 9 115 -6 112
-4 98 -51 -3 -12 10 -21 50 -33 70 -22 77 -22 75 6 -2 19 -7 23 -28 19 -18 -2
-21 -1 -11 6 11 8 11 10 0 15 -8 3 -3 7 14 12 27 7 27 8 27 91 0 76 -2 84 -22
95 l-23 12 23 10 c20 9 22 17 22 77 0 64 -1 68 -25 72 -19 4 -25 1 -25 -13 0
-11 -4 -19 -10 -19 -13 0 -13 23 2 57 16 38 18 39 27 24 16 -26 31 0 31 54 0
33 -5 56 -12 59 -10 5 -10 7 0 12 6 3 12 15 12 27 0 20 -3 19 -32 -11 -28 -27
-31 -34 -18 -42 12 -8 12 -10 -5 -10 -11 0 -27 5 -35 10 -12 9 -9 15 20 40 19
16 43 32 53 35 23 8 26 125 2 125 -7 0 -18 6 -22 13 -4 8 -16 16 -25 20 -10 3
-18 11 -18 17 0 11 7 14 53 24 20 5 27 12 27 30 0 27 -17 36 -63 35 l-32 0 38
-17 c40 -18 40 -32 0 -32 -12 0 -36 -13 -51 -30 -27 -28 -72 -41 -72 -22 0 11
-149 33 -223 34 -35 0 -61 6 -68 14 -8 9 -33 14 -75 14 -59 0 -82 11 -52 23 7
3 -14 6 -47 7 l-60 2 50 11 c29 6 177 9 353 8 l302 -2 0 140 0 140 -37 4 -38
4 38 1 37 2 0 55 0 56 -138 -7 c-81 -4 -141 -11 -147 -18 -5 -6 -21 -11 -35
-12 -14 0 -53 -3 -87 -7 -53 -6 -63 -4 -63 9 0 11 -6 14 -23 8 -21 -6 -21 -6
-4 13 9 11 17 29 17 41 0 15 8 24 25 28 19 5 25 13 25 33 0 15 7 36 15 47 8
10 15 29 15 42 0 20 -4 22 -52 21 -50 -1 -128 -15 -100 -18 9 -1 12 -16 10
-51 -2 -27 -6 -50 -10 -50 -5 0 -8 -22 -8 -50 0 -27 5 -50 10 -50 6 0 10 6 10
13 0 8 4 7 10 -3 15 -24 12 -40 -9 -40 -11 0 -48 -24 -82 -53 -86 -73 -87 -73
-100 -60 -8 8 -6 16 10 32 23 23 26 37 11 46 -16 10 -11 22 12 28 18 5 19 9 9
21 -7 8 -25 18 -41 21 -16 3 -31 13 -34 21 -4 12 -21 15 -73 13 -97 -3 -103
-6 -103 -45 0 -34 1 -34 45 -34 l45 0 0 -48 c0 -26 5 -53 12 -60 8 -8 8 -15 0
-24 -5 -7 -12 -26 -14 -43 -3 -27 -8 -31 -50 -42 -63 -15 -68 -19 -68 -57 0
-45 30 -71 81 -69 22 1 37 -2 34 -6 -2 -5 4 -11 15 -14 10 -3 20 -1 22 4 4 12
68 -9 68 -21 0 -5 -10 -25 -21 -45 -25 -42 -58 -63 -69 -45 -4 7 -13 9 -19 6
-6 -4 -11 -3 -11 3 0 6 -23 21 -50 33 -38 17 -49 27 -46 41 3 12 -2 17 -19 17
-21 0 -22 -3 -14 -37 4 -21 13 -39 18 -41 6 -2 11 -15 11 -29 0 -16 -4 -23
-13 -20 -9 3 -13 -11 -14 -54 -1 -33 1 -59 6 -59 4 0 6 -15 4 -32 -3 -22 -1
-29 5 -20 12 17 22 -39 22 -123 0 -55 -13 -68 -22 -21 -1 10 -14 26 -27 34
l-24 16 7 -47 c6 -39 4 -48 -10 -54 -27 -10 -99 19 -99 40 0 11 -9 26 -21 35
-11 10 -23 25 -27 36 -5 14 -13 17 -32 12 -29 -7 -56 5 -103 45 -40 35 -65 36
-168 5 -43 -13 -109 -32 -146 -41 -72 -19 -137 -53 -122 -63 5 -4 10 -23 9
-42 0 -30 -4 -35 -32 -43 -17 -5 -33 -18 -36 -28 -8 -28 -35 -34 -73 -16 -37
18 -47 38 -14 30 16 -4 19 -2 14 11 -3 9 0 17 7 19 8 2 29 9 46 15 21 6 35 7
39 1 7 -12 34 8 34 26 0 19 -42 26 -66 10 -28 -18 -94 -30 -94 -17 0 6 10 14
23 17 12 4 48 19 80 33 59 28 77 49 31 38 -20 -5 -33 -1 -49 14 -32 30 -67 19
-63 -19 4 -47 -31 -79 -126 -110 -46 -16 -111 -35 -143 -42 -32 -7 -60 -16
-63 -19 -3 -4 -63 -28 -135 -53 -71 -25 -156 -55 -188 -67 -32 -11 -74 -21
-93 -22 -29 -1 -34 -5 -32 -22 2 -12 -2 -20 -8 -19 -7 1 -14 -7 -17 -18 -4
-13 -1 -19 6 -16 11 4 15 -16 17 -81 0 -13 5 -32 10 -43 9 -17 7 -19 -17 -19
l-28 -1 27 -16 c27 -17 47 -75 28 -81 -7 -3 -8 -8 -1 -16 8 -9 0 -20 -30 -39
-43 -28 -59 -33 -59 -18 0 5 -22 32 -50 61 -27 29 -50 55 -50 60 0 14 -28 19
-59 10 -30 -8 -30 -8 -16 14 14 21 13 23 -23 40 -51 25 -129 46 -174 46 -42 0
-151 -26 -189 -46 -41 -21 -62 -93 -36 -123 24 -28 -5 -100 -54 -135 -55 -39
-155 -158 -209 -250 -25 -42 -47 -76 -50 -76 -3 0 -16 16 -30 34 -14 19 -28
32 -31 30 -14 -8 -30 26 -23 48 l8 23 8 -25 c6 -21 7 -20 3 8 -2 17 -1 32 4
32 5 0 11 9 14 20 8 30 2 25 -33 -30 -27 -42 -35 -48 -50 -40 -36 19 -34 10 3
-17 20 -14 37 -31 37 -37 0 -6 -4 -4 -10 4 -14 22 -20 8 -12 -25 5 -16 15 -31
23 -33 11 -4 12 -2 2 9 -17 17 -16 26 3 33 12 4 15 2 11 -9 -4 -8 -2 -17 4
-20 5 -4 7 -11 4 -16 -8 -11 6 -12 23 0 11 7 11 9 -2 14 -9 4 -16 12 -16 19 0
7 12 1 26 -13 l26 -27 -36 -73 c-44 -92 -59 -115 -50 -76 5 23 4 26 -11 21 -9
-4 -20 -2 -24 5 -5 8 -15 4 -34 -13 -14 -13 -28 -19 -30 -13 -2 6 -31 -6 -66
-27 -35 -20 -70 -35 -77 -32 -8 3 -14 1 -14 -4 0 -4 -15 -12 -32 -15 -18 -4
-37 -11 -43 -15 -5 -4 -22 -10 -37 -14 -26 -6 -28 -10 -28 -54 0 -26 -4 -54
-10 -62 -5 -9 -5 -19 1 -26 6 -7 9 -34 7 -61 l-3 -48 -26 52 c-21 43 -25 64
-23 120 2 66 2 67 -8 26 -6 -24 -15 -43 -20 -43 -6 0 -30 18 -55 40 -43 38
-73 51 -73 31 0 -8 -13 -10 -92 -13 -20 -1 -35 -5 -33 -9 6 -9 -23 -14 -220
-39 -88 -12 -171 -22 -185 -25 -59 -8 -123 -14 -106 -9 11 4 25 12 33 19 10
11 10 14 -3 19 -8 3 -23 2 -32 -3 -10 -5 -40 -9 -67 -8 -28 1 -62 -2 -77 -6
-17 -4 -28 -3 -28 3 0 5 10 12 23 14 69 14 88 18 152 30 39 7 104 19 145 27
41 7 78 18 82 23 4 6 36 11 72 11 37 0 66 3 66 7 0 3 9 4 20 1 11 -3 20 -1 20
4 0 5 27 8 60 7 40 -2 58 1 54 8 -4 6 1 8 14 4 26 -9 56 6 104 52 23 22 34 40
30 50 -3 9 -1 13 5 9 12 -8 21 19 15 46 -2 9 -8 17 -14 17 -6 0 -7 -8 -3 -17
5 -15 4 -16 -6 -5 -17 16 -72 15 -134 -3 -140 -39 -234 -64 -275 -70 -25 -4
-49 -10 -55 -13 -5 -3 -16 -7 -25 -8 -8 -1 -37 -9 -65 -17 -49 -14 -89 -14
-152 -1 -20 4 -33 2 -33 -4 0 -5 -6 -9 -12 -9 -27 3 -143 -15 -160 -24 -30
-16 -55 -1 -84 48 l-27 47 25 21 c13 11 23 26 22 33 -1 7 0 8 3 2 7 -14 40
-13 45 2 3 7 31 12 74 13 75 2 117 12 108 26 -3 5 6 9 19 9 14 0 44 7 67 15
23 8 53 15 66 15 14 0 32 4 42 9 50 25 131 52 232 76 285 68 543 169 606 237
84 89 194 231 188 241 -4 7 -4 9 1 5 4 -4 29 21 55 56 l48 63 129 37 c70 21
167 48 214 61 143 39 192 66 236 126 21 30 44 66 52 81 14 27 41 46 41 28 0
-11 56 4 76 21 11 9 14 8 14 -5 0 -23 18 -20 56 9 38 29 44 30 44 11 0 -8 -12
-23 -26 -33 l-26 -19 27 -18 c48 -32 78 -35 120 -15 21 11 43 19 48 19 6 0 19
8 29 17 16 15 25 15 63 5 24 -6 51 -9 60 -6 9 4 15 1 15 -7 0 -21 99 -18 133
3 14 10 38 18 51 18 14 0 49 9 77 20 29 12 58 18 66 16 8 -3 23 -1 33 4 11 6
32 12 47 13 57 7 124 30 133 47 6 11 37 23 90 34 102 22 112 24 129 25 8 1 12
4 8 7 -3 3 -1 12 6 19 9 9 14 9 24 -1 17 -17 16 -34 -2 -34 -8 0 -15 -4 -15
-10 0 -5 14 -7 33 -3 35 6 167 50 175 58 6 6 -42 -1 -98 -14 -59 -14 -60 -14
-54 4 4 8 13 15 21 15 13 0 13 3 3 15 -10 12 -9 15 4 15 13 0 8 8 -15 30 l-33
29 25 10 c18 8 8 9 -41 4 -36 -3 -69 -9 -75 -13 -5 -5 -21 -10 -35 -13 -20 -3
-18 -5 10 -6 41 -3 49 1 -114 -51 -100 -32 -148 -34 -110 -5 22 17 12 19 -36
5 l-35 -9 29 24 c17 13 39 26 50 28 98 22 270 62 306 72 l45 13 -62 -5 c-59
-4 -62 -3 -68 19 -2 13 -10 43 -16 68 -6 25 -14 65 -19 90 -4 25 -12 59 -16
75 l-7 30 23 -20 c12 -11 36 -32 52 -47 17 -16 35 -28 42 -29 26 -2 52 -7 66
-13 8 -3 21 -2 27 2 15 9 20 68 9 100 -6 19 -4 22 21 22 22 0 25 2 13 10 -13
9 -13 11 -1 19 12 7 12 13 3 24 -7 7 -9 17 -5 20 3 4 -2 7 -11 7 -13 0 -17 -6
-13 -20 5 -18 2 -19 -36 -12 -23 4 -67 7 -98 7 l-57 0 -17 47 c-9 26 -13 52
-10 59 4 6 26 19 49 29 54 23 142 15 139 -13 -1 -15 4 -18 20 -13 12 3 26 6
30 6 12 0 -26 36 -48 45 l-20 8 20 5 c26 6 37 24 22 35 -11 8 47 2 83 -8 27
-8 130 -238 130 -289 0 -1 -10 -2 -22 -2 -20 1 -23 -3 -20 -36 3 -35 1 -38
-24 -38 l-27 0 27 -25 c14 -13 26 -31 26 -39 0 -8 6 -17 13 -20 8 -3 6 -9 -7
-20 -22 -18 -40 -21 -31 -6 3 6 -9 26 -28 46 l-34 36 -51 -24 c-28 -12 -52
-27 -52 -32 0 -6 12 -22 26 -37 28 -30 25 -49 -8 -49 -12 0 -19 -3 -15 -6 8
-9 157 26 197 46 40 21 64 45 110 115 19 28 38 53 44 57 6 4 8 8 3 8 -4 0 5
23 20 51 26 50 26 52 9 84 -36 67 -105 140 -153 162 -67 31 -80 29 -49 -8 14
-17 26 -35 26 -40 0 -6 22 -49 48 -97 43 -79 47 -89 35 -112 l-13 -25 -7 25
c-9 35 -132 276 -147 289 -15 12 -231 57 -346 71 -108 13 -303 12 -355 -1 -99
-27 -169 -87 -262 -224 -56 -83 -196 -377 -213 -446 l-18 -74 -1 70 c-1 59 4
81 29 134 17 35 46 85 64 110 35 49 57 88 33 59 -52 -64 6 62 81 176 73 110
143 179 214 211 57 26 74 29 178 29 219 2 336 -15 594 -85 97 -26 95 -16 -2
15 -166 52 -401 87 -585 88 -92 0 -170 -14 -222 -39 -37 -18 -124 -109 -169
-177 -40 -60 -187 -342 -212 -406 -10 -25 -28 -56 -41 -69 -12 -14 -28 -38
-34 -54 -11 -26 -15 -28 -53 -23 -41 5 -41 5 -8 -6 17 -6 32 -16 32 -23 0 -7
6 -12 13 -11 14 1 17 -5 17 -38 0 -19 -5 -24 -20 -23 -14 1 -20 8 -20 26 0 37
-23 10 -24 -28 -1 -35 -14 -39 -46 -13 -21 17 -22 21 -9 58 7 21 12 43 11 48
-2 4 3 14 9 22 6 8 8 14 3 14 -5 0 -4 4 2 8 5 4 21 25 34 47 13 22 61 97 107
167 46 69 83 128 83 131 0 10 94 144 126 180 19 21 31 44 28 49 -4 6 -2 8 3 5
6 -4 13 2 16 13 3 11 11 19 18 18 7 -2 18 7 24 20 7 13 15 22 18 20 3 -2 17 7
31 20 15 12 43 32 64 43 l37 21 -31 -6 c-20 -3 -39 0 -50 9 -25 19 -50 19 -58
0 -6 -16 -26 -21 -26 -7 0 5 17 17 38 28 20 10 39 22 40 27 2 4 10 7 18 7 8 0
14 5 14 11 0 6 -8 8 -17 5 -10 -3 -80 -8 -156 -11 -76 -3 -146 -9 -155 -14
-15 -8 -356 -33 -422 -30 -23 0 -23 1 -5 9 67 29 -541 -15 -845 -61 -200 -31
-228 -32 -145 -10 38 11 99 23 135 26 36 4 90 10 120 15 30 5 91 12 135 15 44
3 87 8 95 10 8 2 58 6 110 10 52 3 158 12 235 19 77 7 241 14 365 16 124 1
245 4 270 6 25 1 136 8 248 15 l202 13 0 93 c0 92 0 94 -21 82 -12 -6 -45 -12
-75 -14 -29 -2 -57 -5 -61 -8 -10 -6 -139 -16 -243 -19 l-75 -3 -3 88 -3 87
31 6 c17 4 33 10 35 14 3 5 14 6 25 3 14 -4 20 0 20 11 0 9 -6 16 -13 14 -7
-2 -13 2 -15 7 -1 6 12 10 28 10 34 0 39 10 11 24 -14 8 -22 7 -32 -5 -8 -10
-15 -12 -23 -4 -18 18 -36 11 -36 -14 0 -13 -7 -29 -15 -36 -13 -11 -15 5 -17
131 0 79 -1 149 -1 156 0 7 -16 12 -46 11 -25 0 -84 7 -131 16 -47 9 -91 16
-99 16 -34 0 0 9 76 20 46 6 97 13 115 17 18 3 45 5 60 5 31 -1 29 17 -5 51
-17 17 -17 20 -2 31 11 8 16 22 13 41 l-3 30 -543 3 c-363 1 -541 -1 -537 -8
3 -5 0 -11 -7 -11 -49 -5 -74 -9 -166 -23 -57 -9 -112 -14 -122 -11 -25 8
-167 13 -145 5 29 -10 3 -20 -67 -24 -34 -2 -76 -10 -93 -16 -18 -7 -74 -12
-135 -12 -68 1 -98 -2 -85 -8 14 -6 15 -9 5 -10 -8 0 -55 -3 -105 -6 -49 -2
-125 -10 -167 -16 -43 -6 -94 -7 -115 -3 -35 8 -29 9 57 21 180 24 315 43 413
59 54 8 142 20 195 25 53 6 135 16 182 24 l85 14 -97 1 c-53 0 -99 -3 -102 -7
-6 -9 -98 -8 -181 2 -39 4 -42 4 -17 -3 52 -14 47 -18 -30 -25 -40 -4 -92 -12
-116 -17 -24 -5 -67 -12 -95 -14 -55 -6 -142 3 -132 13 3 4 74 16 158 28 l152
22 -388 -1 c-214 -1 -380 -4 -370 -8 17 -7 17 -8 1 -8 -10 -1 -18 -7 -19 -13
0 -7 -5 -3 -11 10 -11 22 -12 22 -248 22 -145 0 -240 -4 -246 -10 -7 -7 -28
-7 -63 0 -68 13 -191 13 -191 0 0 -5 26 -8 58 -8 31 1 73 -3 92 -7 32 -8 27
-10 -55 -20 l-90 -10 3 -110 c1 -60 9 -245 18 -410 15 -300 21 -450 30 -770 3
-101 9 -171 15 -173 6 -3 6 -9 -1 -17 -8 -9 -9 -38 -4 -85 5 -56 10 -70 21
-66 8 4 17 6 19 6 13 0 1 19 -13 23 -18 3 168 19 217 17 14 0 42 3 62 6 25 4
38 2 38 -5 0 -6 -12 -8 -32 -4 -26 5 -30 3 -25 -10 6 -17 -19 -32 -28 -17 -9
15 -25 12 -25 -5 0 -17 -16 -20 -25 -5 -9 15 -121 3 -168 -18 l-38 -17 4 -90
c4 -88 5 -90 28 -87 23 2 23 1 -6 -22 -16 -14 -38 -25 -47 -26 -23 0 -175 -56
-223 -82 -22 -12 -66 -39 -98 -60 -61 -39 -89 -49 -67 -23 13 16 6 35 -15 35
-7 0 -52 -23 -99 -51 -51 -30 -92 -49 -101 -45 -10 4 -14 2 -9 -5 4 -7 -3 -19
-16 -29 l-23 -17 25 -6 c19 -5 27 -15 30 -36 2 -17 1 -28 -4 -25 -4 3 -8 11
-8 19 0 8 -9 21 -21 29 -19 13 -25 12 -55 -5 -45 -25 -45 -24 -28 11 9 17 22
30 30 30 11 0 13 6 9 21 -7 21 -6 21 16 5 13 -9 28 -16 34 -16 5 0 2 5 -8 11
-15 9 -15 12 -3 25 18 17 33 18 39 2 2 -7 8 -10 13 -5 10 10 7 201 -11 522 -8
143 -19 382 -25 530 -5 149 -12 299 -15 335 -3 36 -10 178 -15 315 -5 138 -13
296 -16 353 l-7 102 -267 0 c-301 0 -280 6 -280 -80 0 -41 3 -50 22 -56 20 -6
18 -8 -19 -23 -63 -24 -62 -31 3 -31 87 0 218 26 354 69 66 21 120 35 120 31
0 -4 -11 -11 -25 -14 -14 -4 -25 -11 -25 -16 0 -5 8 -6 18 -3 16 6 16 6 0 -10
-9 -9 -22 -17 -28 -17 -7 0 -40 -13 -74 -29 -63 -30 -171 -50 -298 -56 -38 -1
-75 -8 -83 -15 -13 -11 -15 -8 -15 18 0 17 -4 33 -9 36 -4 3 -6 48 -3 101 l5
95 -337 0 -336 0 1 -565z m3009 541 c-11 -11 -29 -13 -65 -8 -42 5 -46 7 -25
13 14 4 43 7 65 8 34 1 37 -1 25 -13z m-1790 -6 c0 -5 -5 -10 -11 -10 -5 0 -7
5 -4 10 3 6 8 10 11 10 2 0 4 -4 4 -10z m1669 -9 c9 -6 5 -10 -15 -14 -204
-43 -234 -45 -234 -19 0 15 13 20 73 29 95 13 159 15 176 4z m-731 -38 c-2
-11 -13 -18 -28 -19 -14 -1 -45 -2 -70 -3 -33 -1 -41 -4 -30 -11 11 -7 8 -9
-15 -9 -16 1 -43 5 -60 9 l-30 7 25 6 c52 14 166 35 188 36 17 1 23 -4 20 -16z
m946 4 c10 -10 5 -13 -28 -13 -52 -1 -148 -15 -161 -23 -5 -4 -44 -8 -86 -10
-84 -3 -117 14 -47 24 24 3 84 12 133 19 120 18 174 19 189 3z m2024 -29 c-5
-15 -48 -24 -48 -10 0 14 12 22 33 22 10 0 17 -5 15 -12z m-4940 -5 c-10 -2
-26 -2 -35 0 -10 3 -2 5 17 5 19 0 27 -2 18 -5z m2527 -12 c30 -7 29 -8 -15
-18 -46 -10 -68 -4 -56 16 8 12 25 12 71 2z m-2352 -8 c-7 -2 -21 -2 -30 0
-10 3 -4 5 12 5 17 0 24 -2 18 -5z m100 -10 c-13 -2 -35 -2 -50 0 -16 2 -5 4
22 4 28 0 40 -2 28 -4z m1694 1 c-3 -3 -12 -4 -19 -1 -8 3 -5 6 6 6 11 1 17
-2 13 -5z m-1609 -11 c-10 -2 -26 -2 -35 0 -10 3 -2 5 17 5 19 0 27 -2 18 -5z
m-115 -10 c-7 -2 -19 -2 -25 0 -7 3 -2 5 12 5 14 0 19 -2 13 -5z m80 -10 c-13
-2 -33 -2 -45 0 -13 2 -3 4 22 4 25 0 35 -2 23 -4z m4407 -3 l25 -8 -25 0
c-14 0 -34 3 -45 8 l-20 9 20 -1 c11 0 31 -4 45 -8z m-4313 -6 c-3 -3 -12 -4
-19 -1 -8 3 -5 6 6 6 11 1 17 -2 13 -5z m3024 -17 c-13 -13 -26 -3 -16 12 3 6
11 8 17 5 6 -4 6 -10 -1 -17z m-1446 3 c-3 -5 -11 -10 -16 -10 -6 0 -7 5 -4
10 3 6 11 10 16 10 6 0 7 -4 4 -10z m535 -4 c0 -3 -4 -8 -10 -11 -5 -3 -10 -1
-10 4 0 6 5 11 10 11 6 0 10 -2 10 -4z m-509 -24 c-12 -22 -41 -48 -41 -36 0
8 40 54 47 54 2 0 -1 -8 -6 -18z m-1061 -81 c0 -6 -9 -9 -20 -8 -11 1 -20 5
-20 9 0 4 9 8 20 8 11 0 20 -4 20 -9z m1507 -104 c3 -30 0 -37 -14 -37 -24 0
-345 -28 -410 -35 l-53 -6 0 30 c0 17 3 31 8 31 4 0 79 9 167 21 88 11 182 22
209 24 27 3 51 7 54 10 17 16 37 -3 39 -38z m-1869 8 c1 -19 -3 -25 -18 -25
-17 0 -18 3 -8 25 6 14 14 25 17 25 4 0 8 -11 9 -25z m-454 -41 c89 -7 90 -7
67 -25 -12 -10 -29 -15 -36 -12 -8 3 -15 0 -15 -6 0 -6 -4 -11 -9 -11 -5 0 -7
10 -5 23 l5 22 -10 -22 c-12 -28 -27 -30 -34 -5 -5 20 -56 36 -82 26 -21 -9
-85 5 -85 17 0 7 20 9 58 5 31 -3 97 -9 146 -12z m-189 -24 c3 -5 1 -10 -4
-10 -6 0 -11 5 -11 10 0 6 2 10 4 10 3 0 8 -4 11 -10z m443 4 c50 -4 89 -11
86 -15 -2 -4 -12 -6 -22 -3 -9 3 -6 -2 8 -11 23 -15 23 -16 3 -12 -12 3 -24
-1 -27 -8 -3 -9 2 -11 15 -8 15 4 22 0 26 -16 7 -27 9 -27 294 8 318 40 321
40 313 21 -3 -8 -7 -20 -7 -26 0 -6 -14 -11 -31 -12 -17 0 -42 -1 -55 -1 -12
-1 -28 -4 -34 -8 -6 -4 -23 -7 -37 -7 -19 -1 -26 -8 -31 -31 -6 -27 -14 -17
-10 13 2 14 -35 17 -44 2 -3 -5 -3 -21 1 -35 6 -23 10 -25 53 -22 26 2 53 7
59 11 7 4 12 3 12 -3 0 -8 20 -8 40 -1 3 1 13 2 23 1 11 -2 17 5 17 19 0 20 1
20 25 4 15 -10 24 -25 24 -38 -2 -20 -2 -20 -6 2 -2 12 -11 22 -18 22 -9 0
-12 -6 -9 -15 4 -8 1 -15 -6 -15 -6 0 -9 -4 -6 -9 7 -10 -95 -27 -284 -46 -80
-8 -171 -17 -203 -21 -39 -5 -57 -3 -58 5 -1 6 -2 17 -3 24 -1 6 -5 16 -11 20
-7 6 -6 10 2 13 15 7 6 73 -13 95 -8 8 -14 20 -14 26 0 7 -15 9 -39 6 -42 -6
-59 7 -36 27 9 8 15 8 15 2 0 -6 -6 -13 -12 -15 -7 -3 -8 -6 -3 -6 18 -1 38
17 30 28 -7 12 -45 5 -55 -9 -3 -4 -12 -1 -20 8 -13 14 -12 15 3 9 11 -4 17
-2 17 6 0 10 -16 12 -59 10 -33 -1 -63 2 -66 7 -7 12 27 13 153 4z m-401 -10
c-3 -3 -12 -4 -19 -1 -8 3 -5 6 6 6 11 1 17 -2 13 -5z m4091 -31 c-2 -21 -7
-38 -13 -38 -5 0 -11 17 -13 38 -3 29 0 37 13 37 13 0 16 -8 13 -37z m-127 12
c5 -61 6 -60 -40 -63 -47 -4 -81 17 -81 49 0 13 10 19 33 22 70 9 87 7 88 -8z
m44 6 c-3 -5 -1 -12 5 -16 19 -12 11 -45 -10 -45 -16 0 -20 7 -20 35 0 25 4
35 16 35 8 0 13 -4 9 -9z m-3749 -17 c-9 -8 -16 -21 -16 -27 0 -8 -4 -7 -9 2
-13 20 -2 41 21 41 18 0 18 -1 4 -16z m70 -15 c0 -13 4 -32 9 -42 4 -11 3 -23
-3 -29 -8 -8 -11 -6 -12 8 -1 38 -7 70 -15 83 -5 9 -3 12 6 9 8 -3 14 -16 15
-29z m1818 -309 c6 -165 6 -165 -14 -140 -17 22 -22 23 -39 13 -30 -19 -44
-16 -38 7 3 11 1 23 -4 26 -5 3 -10 -3 -10 -13 -4 -45 -17 101 -16 177 0 47 2
68 4 47 5 -40 23 -42 23 -1 0 17 5 24 20 24 30 0 24 17 -9 28 -22 8 -31 7 -34
-1 -2 -7 -2 12 1 41 3 35 1 52 -7 52 -9 0 -17 48 -8 51 1 0 25 3 52 6 28 2 52
7 55 10 7 7 17 -131 24 -327z m1585 125 c1 -113 -1 -205 -5 -205 -9 0 -45 39
-73 79 l-22 31 28 1 28 1 -27 10 c-23 8 -31 20 -43 66 -9 31 -23 69 -31 85
-14 26 -22 102 -11 113 4 4 64 14 143 23 7 1 12 -63 13 -204z m-3429 169 c0
-8 -4 -14 -10 -14 -5 0 -10 9 -10 21 0 11 5 17 10 14 6 -3 10 -13 10 -21z
m-230 2 c0 -3 -4 -8 -10 -11 -5 -3 -10 -1 -10 4 0 6 5 11 10 11 6 0 10 -2 10
-4z m93 -3 c-7 -2 -19 -2 -25 0 -7 3 -2 5 12 5 14 0 19 -2 13 -5z m3824 -51
c-11 -2 -27 -12 -37 -22 -20 -20 -52 -17 -71 6 -12 15 -6 19 36 26 28 5 95 -5
72 -10z m103 8 c0 -5 -4 -10 -9 -10 -6 0 -13 5 -16 10 -3 6 1 10 9 10 9 0 16
-4 16 -10z m-3650 -35 c0 -8 -2 -15 -4 -15 -2 0 -6 7 -10 15 -3 8 -1 15 4 15
6 0 10 -7 10 -15z m3490 -39 c0 -7 10 -16 22 -20 27 -6 16 -20 -24 -30 -24 -5
-28 -3 -28 14 0 11 5 20 11 20 8 0 8 5 -1 15 -10 12 -10 15 4 15 9 0 16 -6 16
-14z m-443 -46 c-3 -11 -2 -20 2 -20 7 0 31 -44 31 -55 0 -12 -24 -3 -36 12
-7 10 -16 14 -21 10 -9 -10 33 -47 53 -47 10 0 14 16 15 63 0 46 3 55 9 36 4
-14 7 -72 7 -130 0 -97 0 -100 -8 -45 -11 73 -19 84 -19 25 l0 -44 -16 30
c-20 39 -19 38 -43 23 -18 -11 -23 -11 -31 2 -12 19 -13 33 -1 25 8 -4 4 63
-4 73 -8 10 -54 -21 -57 -39 -4 -26 -28 -39 -28 -15 0 9 -6 16 -14 16 -8 0
-17 6 -20 13 -4 8 -5 7 -5 -3 3 -45 -1 -53 -17 -39 -25 21 -77 100 -69 107 3
3 10 1 14 -7 7 -10 10 -9 14 3 7 18 47 22 47 5 0 -16 28 -40 34 -30 4 5 3 16
0 24 -7 18 7 22 100 25 64 2 68 1 63 -18z m-261 -65 c40 -55 56 -94 35 -81
-23 15 -51 -75 -31 -99 10 -12 9 -15 -4 -15 -10 0 -14 -5 -11 -10 4 -6 1 -25
-5 -44 -10 -30 -15 -34 -56 -39 -25 -2 -54 -13 -64 -22 -18 -16 -20 -17 -20
-2 0 10 -7 17 -15 17 -8 0 -15 -7 -15 -15 0 -20 -29 -19 -36 0 -5 11 -15 14
-39 9 l-32 -6 -7 99 c-3 54 -9 132 -12 175 l-6 76 88 7 c49 3 96 8 104 10 8 2
30 2 49 2 30 -2 40 -10 77 -62z m630 -101 c-3 -8 -12 -14 -21 -14 -20 0 -20
44 0 64 8 8 16 27 17 43 1 15 3 4 5 -26 2 -29 2 -60 -1 -67z m-1389 44 c-2
-13 -4 -3 -4 22 0 25 2 35 4 23 2 -13 2 -33 0 -45z m2561 55 c-9 -2 -16 -10
-14 -16 1 -7 1 -9 -1 -4 -3 4 -37 8 -76 9 l-72 1 55 7 c63 8 133 10 108 3z
m42 -38 c0 -25 -3 -45 -8 -45 -4 0 -6 20 -4 45 2 25 6 45 8 45 2 0 4 -20 4
-45z m-220 25 c0 -5 -10 -11 -22 -11 l-23 -2 22 -4 c18 -3 20 -7 10 -17 -17
-19 -37 -8 -37 20 0 19 5 24 25 24 14 0 25 -4 25 -10z m590 0 c0 -5 -7 -7 -15
-4 -8 4 -15 8 -15 10 0 2 7 4 15 4 8 0 15 -4 15 -10z m-5115 -10 c3 -5 1 -10
-4 -10 -6 0 -11 5 -11 10 0 6 2 10 4 10 3 0 8 -4 11 -10z m4850 -31 c-8 -12
-35 -12 -35 0 0 11 22 20 33 14 4 -2 5 -9 2 -14z m-145 -14 c0 -10 -9 -15 -27
-14 -24 2 -25 2 -5 6 12 2 22 9 22 14 0 5 2 9 5 9 3 0 5 -7 5 -15z m-4703 -17
c-3 -8 -6 -5 -6 6 -1 11 2 17 5 13 3 -3 4 -12 1 -19z m3041 4 c2 -7 -3 -12
-12 -12 -9 0 -16 7 -16 16 0 17 22 14 28 -4z m-1458 -27 c0 -8 -7 -15 -15 -15
-8 0 -15 -7 -15 -15 0 -8 5 -15 11 -15 5 0 7 5 3 11 -4 7 -1 10 6 7 28 -9 22
-28 -9 -28 -25 0 -31 4 -31 21 0 12 -8 28 -17 35 -16 12 -13 13 25 14 31 0 42
-4 42 -15z m-2030 -35 c0 -5 -12 -10 -27 -10 -22 0 -25 2 -13 10 20 13 40 13
40 0z m234 0 c152 -2 180 -5 171 -21 -3 -4 -3 -20 1 -34 9 -35 51 -32 46 3 -3
23 -1 24 87 27 19 0 36 6 38 12 2 6 13 9 24 6 10 -3 26 0 34 7 11 9 15 9 15 1
0 -6 -11 -16 -24 -21 -22 -8 -24 -14 -21 -47 3 -21 2 -30 -1 -21 -3 9 -17 24
-31 33 -24 16 -28 16 -64 0 -21 -10 -41 -26 -44 -35 -3 -10 -12 -21 -20 -24
-8 -3 -15 -10 -15 -17 0 -7 15 -9 49 -4 l49 7 -5 -44 c-3 -24 -10 -46 -16 -49
-5 -4 -6 -16 -2 -28 8 -25 -7 -28 -29 -6 -12 12 -20 14 -36 5 -22 -12 -26 -25
-10 -35 5 -3 6 -13 3 -22 -4 -11 -2 -14 8 -11 8 3 13 12 11 20 -4 27 35 28 47
2 10 -22 8 -26 -15 -34 -51 -20 -62 -14 -74 43 -6 28 -14 57 -18 63 -7 11
-134 22 -272 25 -36 1 -57 3 -47 6 9 2 17 9 17 14 0 5 7 9 15 9 24 0 17 18 -7
22 -22 3 -20 6 17 40 42 40 48 55 28 76 -16 17 -111 26 -128 12 -10 -9 -12 -7
-9 7 4 14 14 18 42 17 20 -1 104 -3 186 -4z m276 6 c0 -3 -4 -8 -10 -11 -5 -3
-10 -1 -10 4 0 6 5 11 10 11 6 0 10 -2 10 -4z m250 -4 c0 -16 -25 -40 -44 -44
-11 -1 -21 -9 -24 -17 -3 -9 2 -11 17 -6 25 8 28 -10 7 -38 -8 -11 -17 -59
-21 -113 -6 -80 -10 -95 -24 -92 -11 2 -18 18 -22 51 -5 47 3 70 15 45 3 -7 4
7 1 32 -3 24 -11 48 -18 52 -8 5 0 11 21 19 17 6 32 15 32 19 0 17 -21 21 -37
8 -15 -11 -16 -11 -10 5 4 10 7 31 7 47 0 22 5 30 23 33 40 8 77 7 77 -1z
m-657 -39 c-7 -2 -21 -2 -30 0 -10 3 -4 5 12 5 17 0 24 -2 18 -5z m3820 -12
c26 -1 47 -6 47 -12 0 -6 -22 -10 -52 -10 -89 1 -228 -11 -234 -20 -3 -5 -13
-9 -22 -9 -14 1 -13 4 7 20 13 11 18 20 12 20 -6 0 -11 6 -11 13 0 9 24 11
102 6 57 -4 124 -7 151 -8z m1397 -10 c0 -16 -22 -18 -165 -20 -150 -2 -222
14 -83 18 45 1 84 4 87 7 8 8 161 4 161 -5z m-1935 -21 c3 -5 1 -10 -4 -10 -6
0 -11 5 -11 10 0 6 2 10 4 10 3 0 8 -4 11 -10z m231 -5 c16 -8 24 -15 17 -15
-6 0 -20 -3 -30 -6 -15 -5 -15 -4 -3 5 13 9 13 11 -2 11 -10 0 -18 5 -18 10 0
13 2 13 36 -5z m-823 -12 c131 -6 137 -7 136 -27 -1 -19 -2 -19 -6 -2 -4 14
-7 16 -13 6 -7 -11 -11 -11 -24 -1 -11 9 -20 10 -33 2 -17 -10 -17 -10 2 -11
16 0 17 -2 6 -9 -8 -5 -38 -8 -67 -5 -37 2 -55 -1 -64 -11 -13 -16 -35 -21
-26 -6 6 9 -49 27 -66 23 -5 -1 -8 2 -8 8 0 5 15 7 33 5 28 -4 29 -4 7 4 -14
5 -40 9 -59 10 -25 1 -32 -2 -28 -14 10 -25 -10 -25 -37 0 -33 31 -51 33 -36
5 9 -16 8 -20 -5 -20 -8 0 -15 -6 -15 -12 0 -9 -4 -8 -10 2 -8 12 -13 13 -30
2 -17 -10 -21 -10 -26 3 -6 14 -8 14 -24 0 -10 -9 -24 -13 -35 -9 -12 5 -23 1
-31 -11 -13 -17 -14 -16 -14 17 0 25 -6 40 -22 52 -22 16 -12 17 167 11 105
-3 252 -8 328 -12z m-1813 3 c0 -2 -6 -22 -14 -44 -48 -134 -131 -494 -175
-757 -17 -99 -36 -196 -43 -215 -12 -36 -13 -41 -24 -128 -4 -29 -11 -55 -17
-59 -6 -4 -8 7 -4 28 4 19 11 75 17 124 27 229 103 637 150 810 19 69 61 219
65 233 4 10 45 18 45 8z m2381 -33 c-8 -15 -10 -15 -11 -2 0 17 10 32 18 25 2
-3 -1 -13 -7 -23z m1147 20 c-10 -2 -28 -2 -40 0 -13 2 -5 4 17 4 22 1 32 -1
23 -4z m862 -3 c0 -5 -5 -10 -11 -10 -5 0 -7 5 -4 10 3 6 8 10 11 10 2 0 4 -4
4 -10z m-1025 -10 c-57 -11 -201 -22 -194 -16 7 8 139 23 194 24 l40 0 -40 -8z
m475 -20 c-8 -6 -40 -10 -71 -10 -125 0 -400 -36 -509 -67 -22 -6 -24 -5 -11
10 18 22 61 33 211 53 118 15 379 33 390 26 2 -2 -2 -7 -10 -12z m379 -6 c14
-13 -24 -15 -168 -8 -102 4 -158 10 -154 17 5 9 312 1 322 -9z m642 -41 c19
-46 19 -48 2 -61 -26 -19 -69 -7 -112 30 -42 37 -45 52 -11 57 23 3 24 4 5 12
-14 5 -2 8 38 8 l58 1 20 -47z m-3161 27 c0 -5 -7 -7 -15 -4 -8 4 -15 8 -15
10 0 2 7 4 15 4 8 0 15 -4 15 -10z m145 0 c3 -5 1 -10 -4 -10 -6 0 -11 5 -11
10 0 6 2 10 4 10 3 0 8 -4 11 -10z m633 -25 c1 -1 -10 -7 -25 -14 -24 -11 -25
-11 -12 5 12 15 12 16 -9 10 -18 -6 -22 -4 -22 14 0 20 1 20 33 4 17 -9 33
-17 35 -19z m-578 15 c-8 -5 -22 -9 -30 -9 -10 0 -8 3 5 9 27 12 43 12 25 0z
m931 -9 c-6 -10 -23 -23 -38 -29 -121 -46 -387 -142 -396 -142 -19 0 -220
-101 -264 -133 -24 -17 -46 -28 -49 -25 -3 3 28 28 69 54 40 27 74 53 75 57 3
21 170 117 201 117 9 -1 3 -7 -14 -16 -16 -8 -46 -23 -65 -34 l-35 -19 40 6
c22 3 65 18 95 32 30 15 82 35 115 45 33 10 98 32 145 47 l85 29 -60 -5 c-48
-4 -56 -3 -41 7 11 6 45 14 75 18 31 4 60 8 64 9 4 0 3 -7 -2 -18z m156 13
c-3 -3 -12 -4 -19 -1 -8 3 -5 6 6 6 11 1 17 -2 13 -5z m-1187 -13 c0 -11 -69
-20 -76 -10 -2 4 13 10 33 12 21 2 39 4 41 5 1 1 2 -2 2 -7z m1143 2 c-7 -2
-19 -2 -25 0 -7 3 -2 5 12 5 14 0 19 -2 13 -5z m-3918 -21 c-3 -3 -11 0 -18 7
-9 10 -8 11 6 5 10 -3 15 -9 12 -12z m2680 -2 c-3 -5 -12 -10 -18 -10 -7 0 -6
4 3 10 19 12 23 12 15 0z m3422 -16 c-3 -3 -12 -4 -19 -1 -8 3 -5 6 6 6 11 1
17 -2 13 -5z m-3436 -38 c-7 -8 -37 -20 -68 -26 -30 -7 -70 -18 -89 -26 -74
-31 -53 -10 31 31 50 24 96 42 103 40 6 -2 12 1 12 7 0 9 3 9 12 0 8 -8 8 -15
-1 -26z m709 29 c0 -2 -14 -12 -31 -21 -17 -8 -28 -11 -24 -4 4 6 17 15 29 20
27 11 26 11 26 5z m1782 -7 c-8 -8 -76 -17 -185 -24 -95 -7 -210 -15 -257 -18
-79 -6 -83 -6 -60 8 17 11 55 16 120 17 73 0 318 18 385 28 5 0 3 -5 -3 -11z
m-1037 -8 c-27 -12 -43 -12 -25 0 8 5 22 9 30 9 10 0 8 -3 -5 -9z m2335 -15
c17 -9 46 -39 65 -68 l35 -52 -22 -18 c-14 -11 -18 -20 -12 -23 6 -3 20 -11
30 -19 15 -11 16 -14 4 -15 -26 0 -38 14 -78 85 -21 39 -46 82 -56 98 -21 31
-10 35 34 12z m-2397 -2 c-7 -2 -19 -2 -25 0 -7 3 -2 5 12 5 14 0 19 -2 13 -5z
m-243 -13 c9 0 4 -9 -15 -25 -28 -23 -154 -69 -163 -60 -3 2 16 17 42 32 25
15 46 31 46 34 0 4 -21 4 -47 1 -28 -2 -44 -1 -40 4 10 10 113 23 142 18 11
-2 27 -4 35 -4z m170 0 c-8 -5 -26 -9 -40 -9 -23 1 -23 2 5 9 43 11 52 11 35
0z m610 5 c0 -14 -65 -34 -126 -39 -88 -7 -215 -23 -318 -41 -93 -17 -140 -19
-116 -6 15 8 75 19 340 60 69 11 136 22 150 24 39 7 70 7 70 2z m-4051 -26
c-22 -14 -33 -10 -19 6 7 8 17 12 22 9 6 -4 5 -10 -3 -15z m2354 14 c-13 -2
-35 -2 -50 0 -16 2 -5 4 22 4 28 0 40 -2 28 -4z m2793 -25 c10 -33 31 -49 64
-50 16 -1 37 -9 46 -20 16 -17 15 -18 -29 -18 -28 0 -52 6 -61 16 -15 14 -16
14 -16 0 0 -9 -6 -16 -14 -16 -8 0 -18 -10 -21 -21 -6 -19 -12 -15 -46 39 -21
33 -43 63 -49 67 -25 16 -5 25 54 25 58 0 65 -2 72 -22z m1874 -14 c0 -2 -7
-4 -15 -4 -8 0 -15 4 -15 10 0 5 7 7 15 4 8 -4 15 -8 15 -10z m-6811 -23 c7
-5 10 -14 7 -20 -10 -16 -24 -13 -30 7 -3 9 -4 5 -2 -11 5 -37 -11 -44 -16 -7
-4 26 2 37 22 39 3 0 11 -3 19 -8z m1408 -28 c-3 -10 -5 -4 -5 12 0 17 2 24 5
18 2 -7 2 -21 0 -30z m5435 2 c-5 -41 -55 -146 -81 -169 -11 -11 -21 -25 -21
-32 0 -7 -5 -16 -11 -20 -19 -11 0 103 27 171 25 62 48 88 74 82 10 -2 14 -12
12 -32z m-7262 21 c0 -3 -4 -8 -10 -11 -5 -3 -10 -1 -10 4 0 6 5 11 10 11 6 0
10 -2 10 -4z m185 -49 c-8 -20 -22 -37 -29 -37 -8 0 -21 -3 -29 -6 -10 -3 -17
3 -21 19 -3 14 -9 32 -12 41 -5 13 2 16 45 16 34 0 51 4 52 13 0 7 2 8 5 1 2
-6 -2 -27 -11 -47z m148 33 c-3 -11 -7 -20 -9 -20 -2 0 -4 9 -4 20 0 11 4 20
9 20 5 0 7 -9 4 -20z m2923 -2 c-11 -6 -76 -30 -145 -54 -69 -24 -153 -57
-185 -74 -33 -17 -61 -28 -63 -26 -8 8 73 64 107 74 19 6 94 31 165 55 120 41
168 51 121 25z m3854 17 c0 -3 -9 -16 -21 -28 -27 -29 -57 -88 -79 -157 -15
-47 -22 -55 -45 -58 -15 -2 -32 1 -38 7 -15 15 0 26 16 12 12 -9 14 -1 10 52
-6 72 6 103 39 110 20 4 19 4 -4 6 -30 1 -37 21 -15 39 7 6 37 12 67 15 30 2
58 4 63 5 4 1 7 0 7 -3z m-4994 -14 c-7 -11 -181 -106 -223 -122 -59 -22 1 19
110 75 111 58 122 62 113 47z m-1669 -23 c-3 -8 -6 -5 -6 6 -1 11 2 17 5 13 3
-3 4 -12 1 -19z m3145 10 c-7 -7 -106 -36 -220 -64 -114 -28 -216 -55 -227
-60 -17 -7 -18 -6 -7 8 7 9 25 18 40 21 15 3 52 12 82 21 50 14 98 27 270 70
73 18 76 18 62 4z m1031 -9 c-14 -14 -143 -33 -323 -49 -74 -7 -139 -15 -144
-18 -5 -3 3 -15 19 -28 24 -19 26 -25 16 -38 -14 -16 -43 -11 -39 8 1 6 -2 22
-6 34 -7 22 -13 23 -62 20 -61 -3 -68 4 -24 27 16 8 34 23 39 32 10 17 12 17
26 -1 15 -20 44 -22 145 -11 19 2 85 8 145 15 61 6 133 14 160 19 55 8 64 6
48 -10z m125 15 c40 -11 23 -24 -33 -24 -30 0 -55 4 -55 9 0 18 46 26 88 15z
m-4690 -45 c-3 -20 -5 -19 -9 9 -3 20 -2 29 4 23 5 -5 7 -19 5 -32z m1520 11
c-15 -24 -19 -21 -11 8 3 12 9 19 14 16 5 -3 3 -14 -3 -24z m5892 -9 c0 -6 -4
-13 -10 -16 -5 -3 -10 1 -10 9 0 9 5 16 10 16 6 0 10 -4 10 -9z m100 5 c0 -3
-4 -8 -10 -11 -5 -3 -10 -1 -10 4 0 6 5 11 10 11 6 0 10 -2 10 -4z m-3580 -30
c-9 -9 -56 -19 -115 -26 -187 -21 -380 -52 -407 -66 -32 -17 -38 -17 -38 -4 0
30 141 63 415 95 157 18 163 18 145 1z m-3718 -68 c9 -7 19 -27 23 -44 5 -26
3 -32 -15 -37 -25 -7 -35 13 -44 93 -5 50 -5 52 7 28 7 -15 20 -33 29 -40z
m122 17 c4 -19 2 -43 -4 -54 -5 -11 -10 -31 -10 -45 0 -48 -16 -27 -28 36 -10
54 -9 64 5 80 23 26 30 23 37 -17z m-67 -37 c-2 -13 -4 -3 -4 22 0 25 2 35 4
23 2 -13 2 -33 0 -45z m5122 19 c3 6 28 13 55 16 45 4 52 2 76 -23 27 -29 56
-130 67 -232 l5 -54 -38 -11 c-22 -7 -56 -15 -78 -19 -37 -6 -38 -6 -31 17 27
84 34 123 22 131 -6 4 -14 5 -16 2 -3 -3 1 -9 8 -13 22 -14 -14 -27 -116 -41
-63 -9 -93 -17 -93 -26 0 -14 -35 -28 -49 -20 -17 11 -42 -6 -39 -27 2 -11 -3
-22 -9 -24 -8 -3 -13 5 -13 21 0 14 -4 26 -10 26 -5 0 -10 -4 -10 -10 0 -5 -7
-10 -15 -10 -8 0 -15 4 -15 10 0 5 -8 9 -17 8 -45 -3 -54 1 -43 22 9 17 8 20
-12 21 -47 1 39 28 159 49 133 24 226 44 263 58 l25 10 -30 13 c-44 19 -368
19 -413 0 -31 -13 -35 -12 -55 7 -11 12 -19 23 -16 26 2 2 60 8 129 11 78 5
133 12 147 21 20 12 22 12 17 -1 -4 -8 -2 -15 3 -15 13 0 14 43 0 52 -9 6 -7
12 6 22 15 12 26 11 74 -6 34 -13 58 -17 62 -11z m-2349 15 c0 -12 -33 -29
-127 -65 -48 -19 -135 -58 -192 -86 -57 -29 -105 -50 -108 -48 -2 3 23 24 56
46 33 23 62 45 66 50 7 13 65 54 65 47 0 -2 -7 -12 -16 -20 -26 -27 2 -19 126
34 123 52 130 54 130 42z m2087 -13 c5 -5 26 -11 45 -12 28 -2 34 -6 30 -20
-4 -14 -11 -16 -41 -11 -36 6 -71 29 -71 46 0 11 24 10 37 -3z m-2362 -20 c-3
-8 -27 -25 -53 -39 -68 -36 -244 -140 -266 -159 -16 -13 -18 -13 -11 -1 5 8
22 26 39 40 16 14 46 39 66 56 39 34 105 74 122 74 6 0 17 8 25 18 8 9 12 11
8 5 -9 -18 5 -16 40 6 33 20 38 20 30 0z m3362 -11 c-3 -7 -5 -2 -5 12 0 14 2
19 5 13 2 -7 2 -19 0 -25z m-5987 -28 c0 -33 -11 -37 -53 -17 -30 13 -35 27
-11 27 8 0 12 5 9 10 -4 6 7 10 24 10 28 0 31 -3 31 -30z m3170 20 c0 -5 -19
-14 -42 -20 -111 -29 -230 -66 -337 -106 -36 -13 -66 -22 -68 -21 -2 2 7 13
20 24 20 19 184 70 332 104 28 6 57 15 65 20 21 11 30 11 30 -1z m2292 -28
c10 -16 22 -60 28 -98 5 -38 12 -79 15 -91 4 -17 1 -23 -13 -23 -14 0 -20 17
-35 98 -9 53 -20 107 -23 120 -9 31 8 28 28 -6z m-1892 -31 c0 -11 -39 -21
-45 -11 -2 4 -2 10 2 14 10 9 43 7 43 -3z m820 -21 c23 -13 -1 -19 -97 -22
-73 -3 -80 -1 -72 14 5 9 14 19 21 22 18 7 129 -3 148 -14z m-4400 -5 c9 6 20
-70 20 -146 0 -87 -27 -91 -50 -6 -6 20 -15 37 -20 37 -6 0 -11 8 -11 18 -1
16 -2 16 -6 0 -2 -10 -18 -20 -39 -24 -34 -6 -51 -20 -40 -31 3 -3 11 -1 18 5
7 5 24 12 38 14 21 2 26 -2 28 -23 3 -22 -3 -28 -30 -38 -18 -7 -40 -16 -49
-21 -9 -4 -31 -5 -50 -1 -32 6 -34 10 -56 86 -12 44 -21 80 -20 81 17 12 50
24 67 24 12 0 38 7 57 16 39 19 47 14 62 -36 l11 -35 -4 42 c-4 46 5 55 42 41
13 -4 27 -6 32 -3z m113 8 c-7 -2 -13 -22 -13 -43 0 -30 4 -37 18 -36 15 1 17
-9 18 -74 1 -41 -1 -63 -3 -47 -2 15 -9 27 -15 27 -5 0 -7 -7 -4 -16 3 -9 6
-27 6 -40 0 -14 6 -24 14 -24 27 0 30 -83 8 -248 -12 -87 -24 -185 -28 -220
-8 -73 -24 -93 -24 -29 0 38 -4 46 -22 51 -20 6 -20 8 -6 14 15 6 15 11 3 40
-15 35 -24 41 -21 16 0 -9 -3 -18 -9 -20 -9 -4 -11 27 -7 114 1 17 7 32 13 32
7 0 9 -11 6 -29 -6 -29 1 -71 12 -71 9 0 55 329 51 365 -2 17 -4 51 -4 77 -1
25 -4 44 -8 42 -9 -6 -28 62 -28 99 0 23 4 27 28 26 15 0 21 -3 15 -6z m5807
-12 c0 -18 -18 -21 -30 -6 -10 13 -9 15 9 15 11 0 21 -4 21 -9z m-3790 -10 c0
-5 -9 -13 -20 -16 -27 -9 -43 -42 -36 -75 4 -24 -1 -32 -32 -54 -21 -14 -41
-26 -45 -26 -8 0 -37 62 -51 108 -7 21 -4 22 37 22 29 0 49 6 58 16 23 28 89
46 89 25z m1453 -12 c3 -11 -4 -21 -20 -28 -31 -14 -53 -14 -53 0 0 8 -22 9
-77 4 -43 -5 -96 -9 -118 -11 -47 -3 -68 -7 -155 -29 -36 -8 -71 -16 -77 -17
-7 -1 -13 -5 -13 -9 0 -10 -53 -60 -58 -54 -8 8 51 94 69 100 10 4 19 11 19
16 0 5 5 9 11 9 5 0 8 -4 5 -9 -3 -4 6 -6 20 -3 20 3 23 7 12 14 -9 6 -1 8 24
6 21 -2 39 1 41 7 3 6 9 6 19 -2 8 -7 17 -10 20 -7 6 5 51 11 188 22 130 11
138 11 143 -9z m67 -4 c-7 -8 -16 -15 -21 -15 -5 0 -6 7 -3 15 4 8 13 15 21
15 13 0 13 -3 3 -15z m-1207 -40 c-6 -17 -165 -131 -223 -160 -27 -14 -32 -15
-23 -3 7 8 10 18 6 22 -8 7 56 66 71 66 5 0 17 6 25 13 28 24 95 61 87 49 -11
-19 9 -14 35 8 29 24 30 24 22 5z m232 -5 c-19 -21 -240 -150 -256 -150 -6 0
-33 -10 -60 -21 -72 -32 -70 -17 3 20 64 33 149 80 158 88 2 2 -2 8 -9 12 -17
11 -11 43 9 49 12 4 13 2 3 -9 -38 -39 25 -39 98 0 64 35 79 38 54 11z m-2992
-14 c4 -9 -2 -16 -14 -19 -11 -3 -8 -4 8 -3 35 1 73 -52 73 -102 0 -21 7 -40
18 -48 23 -18 35 -17 28 2 -6 15 0 16 41 10 42 -5 62 -18 63 -38 0 -4 -19 -11
-42 -15 -23 -5 -43 -14 -46 -22 -3 -9 2 -11 16 -7 13 5 22 1 26 -10 4 -11 14
-15 30 -12 20 4 25 -2 39 -49 10 -30 16 -61 16 -71 -1 -9 -4 -3 -8 13 -6 24
-11 29 -31 27 -23 -2 -24 -2 -6 11 11 8 16 19 12 25 -9 16 -59 15 -74 0 -20
-20 -14 -38 12 -38 14 0 27 -4 31 -10 3 -5 -6 -9 -22 -8 -15 1 -37 -1 -48 -5
-18 -6 -23 0 -37 53 -13 50 -14 60 -2 60 16 0 18 19 4 54 -13 35 -34 34 -27
-1 4 -20 -1 -33 -19 -50 -28 -26 -30 -33 -9 -33 8 0 15 -4 15 -10 0 -5 -19
-10 -42 -10 -34 1 -39 3 -25 11 9 5 17 19 17 29 0 13 7 20 19 20 28 0 35 17
13 29 -11 6 -22 8 -24 5 -3 -3 -8 4 -11 16 -4 15 0 20 16 20 33 0 51 15 43 36
-5 13 -9 15 -18 6 -15 -15 -48 -16 -48 -2 0 6 7 10 15 10 22 0 18 17 -5 23
-11 3 -20 13 -20 22 0 9 -8 30 -17 46 -16 26 -16 31 -3 39 22 14 37 12 43 -4z
m2122 -16 c-3 -5 -12 -10 -20 -10 -8 0 -17 5 -20 10 -4 6 5 10 20 10 15 0 24
-4 20 -10z m2287 -16 c3 -3 0 -26 -6 -52 l-12 -47 -113 -3 c-62 -1 -110 1
-108 5 3 4 10 27 16 50 l12 42 67 4 c37 2 83 4 103 5 20 1 38 0 41 -4z m-1190
-21 c15 -13 23 -14 43 -5 20 9 25 9 25 -3 0 -22 -41 -44 -121 -65 -99 -25
-309 -63 -316 -56 -6 5 14 10 82 21 42 7 215 59 250 76 14 6 0 8 -43 4 -81 -8
-97 3 -36 25 64 23 93 24 116 3z m3540 -88 c-2 -19 -9 -35 -14 -35 -6 0 -8 10
-4 23 3 12 6 33 6 47 0 16 3 21 8 13 4 -7 6 -29 4 -48z m-815 19 c-3 -3 -12
-4 -19 -1 -8 3 -5 6 6 6 11 1 17 -2 13 -5z m-5702 -18 c-16 -7 -32 -11 -35 -9
-8 7 24 23 45 22 15 0 13 -3 -10 -13z m100 -16 c3 -5 17 -10 31 -10 28 0 28
-2 13 -105 -11 -75 -18 -86 -36 -62 -16 20 -35 131 -23 135 16 6 12 22 -5 22
-8 0 -15 7 -15 15 0 17 25 20 35 5z m1825 0 c-20 -13 -43 -13 -35 0 3 6 16 10
28 10 18 0 19 -2 7 -10z m-50 -9 c0 -13 -182 -75 -201 -69 -6 2 33 20 88 40
112 41 113 41 113 29z m2797 -68 c-2 -16 -4 -5 -4 22 0 28 2 40 4 28 2 -13 2
-35 0 -50z m2111 -8 c48 -82 63 -95 116 -95 19 0 38 -4 41 -10 9 -14 -65 -12
-94 3 -22 11 -129 150 -130 170 -1 4 5 7 12 7 6 0 32 -34 55 -75z m452 66 c0
-5 -21 -26 -47 -46 -27 -21 -64 -55 -83 -75 -42 -44 -76 -64 -85 -50 -3 5 -2
10 3 10 5 0 39 36 76 79 47 56 75 81 94 84 15 2 30 5 35 6 4 0 7 -3 7 -8z
m-2900 -12 c-13 -6 -28 -15 -32 -22 -5 -8 -8 -7 -8 5 0 16 18 25 50 26 8 0 4
-4 -10 -9z m2611 -8 c-51 -9 -52 -31 -2 -31 24 0 41 5 41 11 0 8 5 8 15 -1 21
-17 19 -27 -11 -55 -26 -24 -77 -34 -88 -17 -3 5 8 6 24 4 26 -4 70 24 70 46
0 4 -27 5 -60 4 -33 -2 -60 0 -60 4 0 20 38 43 70 42 l35 -1 -34 -6z m-6891
-22 c0 -5 -4 -9 -10 -9 -5 0 -10 7 -10 16 0 8 5 12 10 9 6 -3 10 -10 10 -16z
m4150 13 c0 -4 -8 -8 -17 -9 -10 -1 -46 -6 -81 -11 -34 -4 -59 -5 -54 0 5 5
35 12 68 17 82 12 84 12 84 3z m1011 -18 c31 4 38 2 24 -4 -11 -5 -30 -9 -42
-9 -13 -1 -28 -10 -35 -21 -8 -12 -24 -20 -40 -20 -15 0 -29 -4 -32 -9 -3 -4
-17 -6 -31 -3 -14 2 -25 0 -25 -6 0 -5 -17 -13 -37 -18 -61 -13 -83 -12 -83 3
0 8 -4 11 -10 8 -5 -3 -10 -1 -10 4 0 6 9 11 20 11 33 0 234 42 245 51 12 12
-24 12 -61 0 -48 -14 -126 -30 -171 -35 -53 -5 -61 20 -10 29 94 17 233 30
243 23 6 -5 31 -6 55 -4z m-1011 -13 c0 -9 -24 -21 -43 -21 -6 0 -2 7 9 15 22
17 34 19 34 6z m-4136 -54 c5 -21 3 -28 -6 -25 -7 3 -14 22 -16 44 -2 42 10
31 22 -19z m2943 46 c-20 -2 -52 -2 -70 0 -17 2 0 4 38 4 39 0 53 -2 32 -4z
m252 -9 c2 -2 -35 -4 -82 -4 -53 0 -87 4 -87 10 0 10 158 3 169 -6z m716 7
c-6 -5 -19 -11 -30 -14 -11 -3 18 -4 65 -2 l85 4 -105 -19 c-115 -22 -190 -23
-110 -2 l45 12 -55 -5 c-30 -2 -71 -6 -90 -9 l-35 -6 35 11 c33 11 159 36 190
38 8 1 10 -2 5 -8z m-1476 -13 c28 -6 51 -17 51 -23 0 -12 -140 -55 -178 -55
-12 0 -26 9 -32 20 -22 40 28 77 70 50 17 -11 15 -13 -30 -34 -34 -16 -34 -16
-5 -10 17 3 48 10 70 16 l40 11 -40 18 c-49 21 -23 25 54 7z m1246 1 c-22 -4
-72 -9 -111 -12 -40 -2 -77 -8 -84 -12 -9 -5 -11 -4 -6 3 5 8 -2 12 -21 11
-15 0 -22 -3 -15 -6 15 -6 16 -23 1 -23 -6 0 -17 7 -25 15 -9 8 -25 15 -37 14
l-22 0 23 -16 c12 -8 22 -19 22 -24 0 -12 -47 -11 -55 1 -3 6 -12 10 -18 10
-8 0 -8 -3 2 -9 8 -5 9 -11 3 -15 -6 -3 -13 -2 -16 3 -3 5 -31 12 -61 16 -36
4 -55 11 -52 18 6 19 59 18 73 -1 11 -15 13 -15 14 -1 0 8 -4 19 -9 25 -6 5
72 9 212 10 122 0 204 -3 182 -7z m385 7 c0 -2 -7 -7 -16 -10 -8 -3 -12 -2 -9
4 6 10 25 14 25 6z m2755 -6 c3 -5 1 -10 -4 -10 -6 0 -11 5 -11 10 0 6 2 10 4
10 3 0 8 -4 11 -10z m-4195 -21 l65 -13 -65 -12 c-36 -7 -85 -13 -110 -12
l-45 0 38 10 c37 10 51 28 22 28 -8 0 -15 5 -15 11 0 7 9 9 23 6 12 -3 51 -11
87 -18z m1539 -3 c-9 -8 -98 -13 -93 -5 3 5 26 9 51 9 26 0 44 -2 42 -4z
m-491 -14 c8 -6 1 -9 -20 -10 -18 -1 -58 -3 -88 -6 -47 -4 -49 -4 -13 3 24 4
46 10 49 14 10 10 56 9 72 -1z m359 -8 c-3 -3 -12 -4 -19 -1 -8 3 -5 6 6 6 11
1 17 -2 13 -5z m161 -1 c-10 -2 -26 -2 -35 0 -10 3 -2 5 17 5 19 0 27 -2 18
-5z m-3621 -91 c13 -14 13 -16 -2 -25 -23 -12 -28 -4 -27 45 0 62 5 79 9 34 3
-21 11 -46 20 -54z m4023 84 c0 -3 -4 -8 -10 -11 -5 -3 -10 -1 -10 4 0 6 5 11
10 11 6 0 10 -2 10 -4z m-1113 -12 c-3 -3 -12 -4 -19 -1 -8 3 -5 6 6 6 11 1
17 -2 13 -5z m-3729 -32 c8 -51 -70 -74 -88 -26 -6 14 -8 30 -4 35 10 17 33 9
36 -13 2 -13 11 -24 22 -26 16 -4 18 0 13 28 -5 23 -3 30 6 28 6 -3 13 -14 15
-26z m4362 18 c-20 -13 -40 -13 -40 0 0 6 12 10 28 10 21 0 24 -2 12 -10z
m-2660 -4 c0 -11 -19 -15 -25 -6 -3 5 1 10 9 10 9 0 16 -2 16 -4z m394 -9 c16
-12 3 -16 -105 -36 -68 -12 -140 -24 -159 -27 -33 -6 -34 -6 -15 -21 11 -8 47
-28 80 -43 56 -26 65 -27 140 -20 44 5 109 13 145 19 116 20 281 37 285 30 3
-3 -46 -12 -107 -19 -61 -7 -121 -16 -132 -21 -28 -12 -224 -30 -316 -29 -201
1 -276 -2 -284 -10 -12 -12 -53 -13 -60 -2 -3 5 -19 7 -37 4 -18 -3 -26 -8
-19 -12 13 -8 -92 -11 -132 -4 -36 7 -35 16 5 35 17 9 73 37 122 61 50 25 119
55 154 67 l64 22 23 -22 c17 -16 30 -20 51 -16 15 3 53 11 83 17 30 6 82 17
115 24 79 18 78 18 99 3z m1796 -4 c10 -3 4 -10 -20 -23 -40 -22 -59 -25 -42
-8 21 21 13 28 -35 29 -46 2 -47 2 -13 9 34 6 78 4 110 -7z m1140 -4 c0 -5 9
-9 20 -9 13 0 18 -5 14 -15 -4 -8 -13 -15 -20 -15 -8 0 -17 7 -20 15 -4 8 -15
15 -25 15 -21 0 -26 16 -6 23 16 5 37 -3 37 -14z m-1655 -29 c-3 -5 -11 -10
-16 -10 -6 0 -7 5 -4 10 3 6 11 10 16 10 6 0 7 -4 4 -10z m2795 0 c0 -5 -7
-10 -16 -10 -8 0 -12 5 -9 10 3 6 10 10 16 10 5 0 9 -4 9 -10z m-2946 -21 c-7
-12 3 -11 56 5 35 10 48 11 56 2 9 -10 4 -12 -20 -12 -34 -1 -133 -29 -273
-80 -96 -36 -123 -41 -123 -24 0 6 11 10 23 10 30 0 64 34 46 45 -6 5 -60 11
-118 15 l-106 8 100 -1 c55 0 117 -2 138 -5 l38 -5 -23 -26 c-12 -14 -16 -20
-8 -13 8 6 23 12 33 12 12 0 17 5 14 13 -4 10 2 13 20 9 19 -4 24 -1 21 9 -3
11 -35 15 -129 19 l-124 5 79 8 c43 4 106 7 140 8 34 1 72 4 86 8 31 9 82 2
74 -10z m415 -3 c14 -9 3 -34 -19 -46 -15 -8 -17 -6 -13 10 7 28 -30 40 -130
42 l-82 1 65 6 c64 6 159 -1 179 -13z m881 16 c0 -11 -54 -120 -67 -133 -19
-22 -202 -84 -438 -149 -104 -28 -242 -67 -305 -86 -63 -18 -128 -36 -145 -39
-16 -2 -7 2 20 11 74 23 236 83 268 99 15 8 33 13 40 11 6 -1 8 -1 4 2 -13 7
33 35 86 54 27 9 56 25 65 35 47 50 302 160 387 166 11 1 23 7 28 12 4 6 11 4
18 -5 9 -12 10 -11 6 5 -3 15 1 21 14 21 11 0 19 -2 19 -4z m3030 -27 c-14
-17 -40 -20 -40 -6 0 6 10 17 22 26 26 17 37 3 18 -20z m-3590 5 c12 -8 11
-10 -7 -10 -13 0 -23 5 -23 10 0 13 11 13 30 0z m3341 2 c2 -11 2 -44 1 -84
l-2 -38 -162 0 c-89 0 -158 3 -155 6 4 4 58 7 122 7 91 -1 115 2 115 13 0 17
10 16 -138 19 l-123 2 6 -24 c5 -23 4 -24 -37 -21 l-43 3 -3 61 -3 61 211 2
c115 0 211 -3 211 -7z m-7305 -11 c-10 -16 21 -20 89 -10 54 7 69 6 81 -5 21
-22 17 -35 -13 -47 -19 -7 -33 -7 -49 1 -18 10 -34 5 -104 -30 -45 -23 -83
-40 -85 -38 -5 6 -45 87 -45 93 0 17 20 0 29 -25 7 -20 17 -30 31 -30 18 0 19
3 10 21 -7 11 -13 34 -15 50 -4 28 -2 29 36 29 22 0 38 -4 35 -9z m2727 2
c-13 -2 -35 -2 -50 0 -16 2 -5 4 22 4 28 0 40 -2 28 -4z m-203 -7 c0 -2 -7 -6
-15 -10 -8 -3 -15 -1 -15 4 0 6 7 10 15 10 8 0 15 -2 15 -4z m53 -3 c-7 -2
-21 -2 -30 0 -10 3 -4 5 12 5 17 0 24 -2 18 -5z m1327 -3 c0 -5 -7 -10 -16
-10 -8 0 -12 5 -9 10 3 6 10 10 16 10 5 0 9 -4 9 -10z m-157 -27 c-30 -21 -29
-31 5 -36 16 -2 9 -5 -20 -6 -58 -1 -66 21 -15 43 43 19 57 19 30 -1z m-984
-9 c11 -10 -19 -12 -234 -16 l-230 -5 133 12 c73 7 136 15 139 18 5 6 185 -3
192 -9z m3961 -15 c0 -17 -4 -28 -10 -24 -5 3 -10 17 -10 31 0 13 5 24 10 24
6 0 10 -14 10 -31z m-52 5 c23 -16 52 -64 52 -85 0 -7 -11 -2 -25 11 -67 63
-176 -17 -235 -174 -28 -77 -40 -80 -16 -4 16 50 28 78 77 186 20 44 68 82
104 82 11 0 31 -7 43 -16z m-3759 -10 c3 -4 0 -9 -6 -11 -7 -3 -13 -11 -13
-19 0 -8 -9 -14 -22 -13 -18 1 -19 2 -5 6 24 6 16 27 -11 31 -12 2 -22 8 -22
14 0 11 67 4 79 -8z m-2679 -15 c0 -6 -4 -7 -10 -4 -5 3 -10 11 -10 16 0 6 5
7 10 4 6 -3 10 -11 10 -16z m3603 14 c-7 -2 -21 -2 -30 0 -10 3 -4 5 12 5 17
0 24 -2 18 -5z m-1398 -23 c-38 -4 -140 -7 -225 -7 -115 0 -137 2 -85 7 39 4
140 7 225 7 120 0 139 -2 85 -7z m163 3 c-10 -2 -26 -2 -35 0 -10 3 -2 5 17 5
19 0 27 -2 18 -5z m173 -14 c15 -8 18 -14 10 -22 -7 -7 -16 -6 -29 6 -11 11
-36 17 -63 17 -24 0 -51 5 -59 11 -21 14 114 3 141 -12z m813 7 c-3 -8 2 -16
13 -19 10 -3 3 -5 -15 -6 -30 -1 -32 1 -22 19 12 23 32 28 24 6z m2146 -6 c0
-5 -9 -10 -20 -10 -11 0 -20 5 -20 10 0 6 9 10 20 10 11 0 20 -4 20 -10z m696
-17 c-4 -16 -16 -39 -27 -53 -10 -14 -24 -34 -30 -46 -9 -18 -18 -20 -65 -16
-32 3 -60 0 -67 -7 -19 -15 -27 -4 -27 42 l0 40 40 -6 c32 -4 45 -1 58 13 17
18 97 59 116 60 4 0 5 -12 2 -27z m-6400 -9 c-11 -7 -22 -11 -25 -8 -3 3 3 12
13 20 11 7 22 11 25 8 3 -3 -3 -12 -13 -20z m204 16 c0 -5 -4 -10 -10 -10 -5
0 -10 5 -10 10 0 6 5 10 10 10 6 0 10 -4 10 -10z m5960 6 c0 -11 -19 -15 -25
-6 -3 5 1 10 9 10 9 0 16 -2 16 -4z m-2733 -24 c-32 -35 -22 -45 38 -39 33 3
53 2 50 -4 -4 -5 -37 -9 -76 -9 -51 0 -69 3 -69 13 0 20 38 50 69 56 2 1 -3
-7 -12 -17z m2666 11 c-7 -2 -19 -2 -25 0 -7 3 -2 5 12 5 14 0 19 -2 13 -5z
m-6023 -13 c0 -5 -12 -10 -27 -10 -22 0 -25 2 -13 10 20 13 40 13 40 0z m74
-10 c-10 -4 -21 -6 -24 -3 -8 7 24 22 34 16 5 -4 1 -10 -10 -13z m2029 13
c-13 -2 -33 -2 -45 0 -13 2 -3 4 22 4 25 0 35 -2 23 -4z m217 -3 c-63 -3 -119
-3 -124 2 -6 4 46 7 115 6 l124 -1 -115 -7z m3887 4 c-3 -3 -12 -4 -19 -1 -8
3 -5 6 6 6 11 1 17 -2 13 -5z m-3666 -15 c14 -7 18 -16 14 -30 -4 -11 -2 -19
4 -19 6 0 11 -5 11 -11 0 -17 -21 1 -30 27 -6 14 -20 29 -32 34 -19 7 -19 9
-5 9 10 1 27 -4 38 -10z m3017 -60 c-24 -15 -34 -9 -32 19 2 39 3 39 25 13 15
-19 17 -26 7 -32z m-5530 28 c20 -24 -1 -35 -38 -19 -35 15 -35 15 -10 23 36
10 37 10 48 -4z m2351 -3 c2 -2 -37 -4 -87 -4 -52 0 -94 4 -97 10 -5 8 23 9
87 4 51 -4 95 -8 97 -10z m-2266 -13 c4 -17 2 -18 -24 -9 -35 12 -38 28 -5 28
15 0 26 -7 29 -19z m214 -28 c-3 -10 -5 -2 -5 17 0 19 2 27 5 18 2 -10 2 -26
0 -35z m5063 32 c-33 -19 -49 -19 -24 0 10 8 26 14 34 14 9 0 4 -6 -10 -14z
m550 8 c-1 -14 -49 -63 -61 -63 -6 0 -18 8 -25 18 -12 16 -13 16 -14 0 0 -25
-16 -30 -60 -23 -33 6 -38 10 -31 23 13 23 192 64 191 45z m-438 -16 c3 -6 -4
-16 -16 -22 -28 -15 -126 -27 -126 -16 0 13 30 22 51 16 11 -4 19 -2 19 4 0 6
9 11 21 11 11 0 18 4 15 8 -8 13 28 11 36 -1z m-3062 -11 c0 -8 -4 -18 -10
-21 -5 -3 -10 3 -10 14 0 12 5 21 10 21 6 0 10 -6 10 -14z m2897 8 c-3 -3 -12
-4 -19 -1 -8 3 -5 6 6 6 11 1 17 -2 13 -5z m-85 -24 l-23 -19 23 -12 c13 -7
31 -12 41 -10 9 1 24 -5 33 -13 14 -15 14 -16 0 -16 -9 0 -16 4 -16 9 0 12
-38 2 -47 -12 -4 -6 0 -8 10 -4 10 3 17 2 17 -2 0 -5 -7 -12 -16 -15 -34 -13
-7 -14 46 -1 68 16 111 35 104 47 -3 4 7 8 23 7 15 0 38 2 51 6 12 4 22 3 22
-2 0 -5 -26 -17 -57 -28 -32 -10 -63 -23 -68 -29 -20 -22 -52 -34 -105 -41
-30 -4 -73 -15 -95 -25 -78 -35 -203 -64 -231 -53 -17 6 -19 33 -1 33 6 1 1 7
-13 15 l-25 14 25 1 c17 0 21 3 13 11 -8 8 -17 8 -31 0 -18 -9 -21 -8 -19 9 1
15 6 18 24 14 14 -4 23 -2 23 5 0 6 -5 11 -11 11 -6 0 -9 6 -6 14 3 8 -5 18
-19 25 -13 6 -24 19 -24 28 0 13 3 14 8 5 11 -16 67 -32 114 -32 38 0 163 39
208 65 36 21 49 18 22 -5z m416 3 c-2 -10 -11 -19 -21 -21 -16 -3 -17 -1 -7
17 13 25 33 28 28 4z m1842 9 c0 -4 -49 -20 -110 -35 l-109 -28 -278 12 c-159
6 -282 16 -288 21 -7 7 8 9 46 4 30 -3 165 -8 300 -12 238 -6 246 -5 334 19
107 29 105 29 105 19z m-5016 -35 c-9 -5 -21 -4 -29 3 -22 18 -8 30 19 17 20
-10 22 -13 10 -20z m666 19 c6 -8 26 -17 43 -19 19 -2 8 -4 -25 -5 -43 -2 -58
2 -58 11 0 28 21 35 40 13z m3530 -5 c0 -5 -9 -7 -20 -4 -11 3 -20 7 -20 9 0
2 9 4 20 4 11 0 20 -4 20 -9z m-6720 -41 l79 0 11 -37 c6 -21 13 -67 17 -103
l5 -65 -33 0 c-23 0 -40 7 -52 23 -23 27 -40 28 -83 1 -24 -14 -43 -19 -63
-14 -27 6 -30 10 -46 96 -10 49 -15 92 -12 95 3 3 9 -11 13 -32 13 -74 50 -91
41 -19 -4 27 -2 47 4 51 6 3 8 15 5 26 -5 20 -4 20 15 -1 17 -18 31 -21 99
-21z m793 19 c-7 -7 -46 -8 -107 -3 -54 4 -93 10 -88 13 17 11 206 1 195 -10z
m4527 11 c0 -5 -4 -10 -10 -10 -5 0 -10 5 -10 10 0 6 5 10 10 10 6 0 10 -4 10
-10z m-2870 -10 c0 -5 -7 -10 -16 -10 -8 0 -12 5 -9 10 3 6 10 10 16 10 5 0 9
-4 9 -10z m4106 -67 c17 -17 17 -18 -7 -21 -13 -2 -28 -8 -34 -14 -7 -7 -3 -9
12 -5 14 3 28 -2 39 -14 17 -18 16 -19 -14 -13 -21 4 -38 2 -48 -7 -15 -12
-16 -11 -10 9 6 17 4 21 -8 16 -23 -9 -83 -141 -106 -231 -9 -32 -19 -53 -28
-53 -11 0 -12 9 -7 43 4 23 10 44 14 47 3 3 7 17 8 33 0 15 4 35 8 45 5 9 9
22 9 27 4 25 36 85 66 118 36 42 77 49 106 20z m194 -9 c8 -19 6 -34 -5 -56
-8 -17 -12 -34 -9 -39 7 -11 -21 -51 -29 -42 -20 19 3 163 25 163 5 0 13 -12
18 -26z m-2959 -22 c-5 -10 -17 -24 -25 -32 -14 -10 -16 -10 -16 6 -1 17 -2
17 -10 3 -5 -10 -44 -29 -85 -44 -42 -16 -75 -33 -75 -41 0 -10 9 -12 30 -7
17 3 30 3 30 0 0 -18 -79 -138 -114 -175 -44 -46 -103 -88 -112 -79 -3 3 9 13
28 23 18 9 28 19 22 21 -6 2 -33 -10 -60 -26 -27 -16 -110 -47 -184 -69 -118
-35 -179 -49 -352 -82 l-38 -7 0 38 c0 73 8 81 141 139 68 30 130 61 139 69
18 19 77 41 107 41 22 0 50 26 39 37 -3 3 -52 -3 -109 -15 -113 -24 -304 -58
-382 -67 -314 -40 -325 -43 -380 -84 -29 -22 -74 -60 -101 -85 l-49 -45 24
-18 c75 -56 161 -91 161 -65 0 4 23 20 50 35 56 32 64 22 25 -29 -18 -23 -36
-35 -63 -39 -20 -4 -60 -11 -88 -17 -50 -10 -52 -10 -147 42 -54 28 -94 56
-91 62 4 6 10 6 17 -1 20 -20 30 -11 11 10 -19 21 -18 21 11 46 17 13 57 48
90 77 111 96 96 91 365 125 399 51 554 80 755 141 72 22 144 42 160 44 17 3
53 12 80 21 28 8 64 15 81 15 17 0 38 7 45 16 14 17 45 32 67 33 9 1 10 -4 3
-17z m-3606 -2 c3 -5 9 -32 12 -60 6 -49 5 -50 -21 -50 -14 0 -25 4 -23 9 1 5
-5 16 -14 23 -9 7 -20 30 -23 51 -7 37 -7 37 28 37 19 0 38 -4 41 -10z m152
-22 c-3 -7 -5 -2 -5 12 0 14 2 19 5 13 2 -7 2 -19 0 -25z m5147 17 c-7 -16
-24 -21 -24 -6 0 8 7 13 27 20 1 1 0 -6 -3 -14z m-522 -79 c-3 -5 -9 -1 -12
10 -4 10 -5 23 -2 28 3 5 9 1 12 -10 4 -10 5 -23 2 -28z m351 24 c-6 -23 -33
-27 -33 -6 0 13 13 23 32 25 3 1 4 -8 1 -19z m1247 -40 c0 -5 -10 -6 -21 -3
-21 6 -22 4 -15 -55 4 -33 3 -63 -2 -66 -5 -3 -12 20 -15 50 -6 57 -12 72 -23
61 -4 -4 -1 -34 5 -68 14 -70 9 -88 -9 -32 -7 21 -16 42 -20 47 -10 10 -47
-104 -56 -174 -5 -42 -4 -51 11 -56 10 -4 21 -1 27 7 7 10 8 6 4 -13 -7 -29
-4 -31 43 -32 19 -1 24 -7 27 -34 4 -29 2 -32 -19 -27 -25 5 -39 -4 -81 -55
-26 -32 -28 -38 -21 -94 3 -33 11 -69 17 -80 10 -19 11 -18 25 7 7 15 15 58
16 97 2 70 17 100 17 34 0 -48 17 -34 26 21 3 25 11 45 16 45 9 0 5 -135 -8
-237 -6 -48 6 -56 26 -18 7 14 22 25 33 25 18 0 19 5 14 59 -4 54 -3 58 14 54
10 -3 19 -2 19 1 0 20 -34 82 -55 102 -14 13 -25 28 -25 34 0 21 18 9 49 -35
18 -25 37 -43 42 -40 14 9 11 -23 -12 -104 -26 -92 -62 -167 -88 -181 -40 -21
-115 77 -134 175 -13 65 -17 220 -7 306 17 153 79 293 133 301 22 4 47 -8 47
-22z m-1512 -42 c3 -21 -1 -27 -20 -30 -45 -7 -68 3 -68 28 0 24 20 35 20 12
0 -7 5 -5 11 5 16 28 53 18 57 -15z m1082 26 c0 -10 -73 -74 -84 -74 -6 0 -3
5 7 11 29 17 19 30 -13 14 -38 -20 -60 -20 -40 -1 35 34 130 70 130 50z
m-6244 -22 c12 -8 29 -77 26 -105 -1 -10 2 -16 7 -13 16 10 39 -19 44 -56 3
-21 2 -38 -4 -38 -5 0 -9 -7 -9 -16 0 -8 4 -12 10 -9 6 3 10 1 10 -4 0 -16
-36 -13 -50 4 -7 8 -9 15 -5 15 4 0 3 6 -3 13 -8 9 -52 191 -52 214 0 5 14 3
26 -5z m234 -41 c0 -10 9 -30 20 -44 21 -26 27 -53 10 -42 -6 4 -10 -6 -10
-24 0 -16 5 -31 12 -33 7 -3 9 -11 3 -24 -8 -19 -11 -29 -13 -51 -3 -18 -32
-4 -32 16 0 9 -7 36 -16 61 -14 41 -14 45 2 57 13 9 16 23 12 62 -3 28 -1 48
4 45 4 -3 8 -13 8 -23z m6490 -28 c0 -16 -11 -58 -24 -95 -28 -80 -18 -90 15
-15 19 41 24 48 27 30 4 -25 -75 -146 -89 -137 -5 2 0 27 11 55 19 48 19 49 1
40 -10 -6 -23 -28 -29 -48 -9 -36 -10 -35 -10 27 0 36 2 57 5 48 2 -10 8 -18
13 -18 10 0 50 94 50 119 0 12 7 21 15 21 10 0 15 -10 15 -27z m-649 3 c-7 -8
-27 -22 -47 -31 -30 -14 -33 -19 -23 -36 8 -16 13 -18 25 -8 9 8 14 8 14 1 0
-13 -49 -43 -209 -129 -185 -99 -377 -193 -394 -193 -18 0 -69 -21 -77 -31 -7
-9 -101 -57 -119 -61 -35 -8 -13 77 28 109 21 16 34 16 25 1 -10 -16 66 30 89
54 10 11 49 33 85 50 158 72 195 88 211 88 9 0 21 4 27 9 5 5 42 23 81 40 40
16 78 35 85 41 48 40 167 108 192 109 15 1 16 -2 7 -13z m-5086 -35 c4 -9 13
-47 21 -86 18 -86 66 -221 106 -296 26 -50 28 -59 16 -78 -7 -12 -17 -20 -21
-18 -13 4 -71 123 -91 187 -10 30 -23 61 -29 69 -17 20 -36 81 -31 96 9 22 11
100 3 121 -9 25 17 30 26 5z m3753 -12 c77 -38 138 -105 186 -204 47 -96 44
-135 -4 -47 -66 124 -182 202 -298 202 -64 0 -234 -72 -257 -110 -3 -5 -12
-10 -18 -10 -7 0 0 11 16 24 15 13 27 28 27 33 0 5 12 15 26 21 14 7 23 16 20
21 -8 12 21 34 33 26 6 -3 9 0 6 7 -6 15 51 47 83 49 14 0 14 2 -3 9 -14 6 2
9 51 9 60 1 80 -4 132 -30z m-218 14 c-8 -3 -21 -10 -28 -16 -9 -7 -11 -6 -6
7 3 9 16 16 28 15 14 0 16 -2 6 -6z m-2200 -27 c-73 -68 -162 -143 -193 -163
-53 -34 -174 -150 -282 -273 -83 -94 -99 -107 -147 -122 -58 -19 -120 -21
-203 -8 l-50 7 75 3 c41 1 86 3 100 4 35 3 90 34 90 51 0 8 8 15 18 16 9 0 62
51 117 112 105 117 105 116 18 91 -15 -4 -23 -2 -23 6 0 6 9 14 20 17 11 3 20
11 20 18 0 7 7 15 15 19 8 3 15 2 15 -3 0 -5 20 -2 45 7 25 8 44 16 43 17 -2
1 -33 -1 -70 -4 -38 -4 -68 -4 -68 0 0 25 147 97 212 104 22 2 68 33 68 45 0
6 8 10 18 11 9 0 49 13 87 29 79 33 96 36 75 16z m3965 5 c-9 -9 -161 -97
-251 -146 l-41 -22 1 36 c1 31 4 36 24 33 12 -2 22 1 22 6 0 10 67 42 160 77
70 25 100 31 85 16z m-6117 -10 c7 -4 17 -32 21 -62 4 -30 11 -61 16 -68 6
-11 3 -13 -16 -8 -13 4 -34 7 -47 7 -13 0 -25 8 -28 18 -3 9 -10 26 -14 37 -5
11 -11 35 -14 53 -5 31 -5 32 32 32 20 0 43 -4 50 -9z m5337 -11 c-3 -5 -16
-10 -28 -9 -21 0 -21 1 -2 9 28 12 37 12 30 0z m-2581 -26 c9 -24 2 -26 -12
-4 -7 11 -8 20 -3 20 5 0 12 -7 15 -16z m-64 -26 c0 -5 -4 -8 -10 -8 -5 0 -10
10 -10 23 0 18 2 19 10 7 5 -8 10 -18 10 -22z m26 17 c-3 -8 2 -18 10 -23 12
-7 10 -11 -11 -20 -23 -11 -37 0 -16 12 5 3 7 15 4 26 -3 12 0 20 7 20 7 0 10
-7 6 -15z m74 5 c0 -5 -4 -10 -10 -10 -5 0 -10 5 -10 10 0 6 5 10 10 10 6 0
10 -4 10 -10z m-2036 -16 c3 -8 2 -12 -4 -9 -6 3 -10 10 -10 16 0 14 7 11 14
-7z m1903 -4 c4 -11 2 -12 -5 -2 -5 7 -16 10 -27 6 -13 -5 -16 -4 -11 5 10 16
38 10 43 -9z m2158 11 c3 -5 1 -12 -5 -16 -5 -3 -10 1 -10 9 0 18 6 21 15 7z
m-4165 -27 c0 -14 -4 -23 -10 -19 -5 3 -10 15 -10 26 0 10 5 19 10 19 6 0 10
-12 10 -26z m573 -2 c-15 -2 -40 -15 -55 -30 -29 -27 -35 -24 -18 8 16 31 60
50 82 36 17 -10 16 -11 -9 -14z m110 -41 c11 -25 21 -48 21 -51 1 -3 5 -10 9
-16 7 -12 -10 -74 -22 -74 -3 0 -12 -13 -19 -30 -19 -41 -76 -76 -105 -62 -21
10 -21 11 13 25 58 26 88 77 44 77 -8 0 -14 5 -14 10 0 6 4 10 9 10 6 0 13 -4
16 -10 11 -18 23 -11 28 16 4 21 1 25 -14 21 -10 -3 -20 1 -23 9 -3 9 2 14 14
14 27 0 26 34 0 60 -12 12 -25 32 -30 45 -9 23 -8 23 21 13 22 -8 37 -23 52
-57z m622 58 c-4 -6 -14 -8 -22 -5 -8 3 -11 1 -8 -4 3 -6 -2 -10 -13 -10 -10
0 -19 7 -19 15 0 10 11 15 34 15 22 0 32 -4 28 -11z m635 -14 c0 -7 -7 -15
-15 -19 -9 -3 -15 0 -15 9 0 8 -4 15 -10 15 -5 0 -10 -8 -10 -18 0 -13 9 -19
34 -20 19 -1 37 2 41 8 11 17 25 11 25 -11 0 -13 -6 -20 -17 -18 -10 1 -31 -3
-46 -9 -36 -15 -50 -15 -45 0 3 7 -4 21 -14 32 -20 22 -10 43 25 48 29 5 47
-1 47 -17z m212 -7 c-6 -6 -15 -8 -19 -4 -4 4 -1 11 7 16 19 12 27 3 12 -12z
m3408 9 c0 -8 -44 -35 -99 -60 -153 -72 -142 -56 24 34 81 45 75 43 75 26z
m-6508 -10 c4 -6 8 -20 8 -29 0 -13 -8 -16 -42 -13 -37 2 -43 6 -46 27 -3 22
1 25 35 26 20 1 41 -4 45 -11z m2711 -2 c-9 -7 -24 -10 -33 -8 -15 4 -70 -47
-70 -66 0 -25 25 -61 42 -61 10 0 18 -4 18 -10 0 -5 -4 -10 -10 -10 -5 0 -10
-7 -10 -15 0 -22 -13 -19 -80 16 l-60 31 52 46 c73 66 105 87 139 88 25 1 27
-1 12 -11z m-588 -5 c-3 -5 -12 -10 -18 -10 -7 0 -6 4 3 10 19 12 23 12 15 0z
m655 -29 c0 -5 -9 -13 -20 -16 -16 -5 -18 -10 -10 -26 6 -11 7 -19 2 -19 -12
0 -22 38 -15 56 6 15 43 20 43 5z m2855 -1 c-3 -5 -13 -10 -21 -10 -8 0 -12 5
-9 10 3 6 13 10 21 10 8 0 12 -4 9 -10z m-2607 -35 c0 -20 -7 -26 -37 -32 -20
-4 -40 -6 -45 -5 -11 3 -36 -18 -36 -31 0 -6 22 -8 61 -4 39 5 58 3 54 -3 -3
-6 -13 -10 -22 -10 -8 0 -62 -14 -119 -30 -103 -30 -145 -32 -105 -4 11 8 30
28 41 45 l22 30 -26 -7 c-20 -5 -26 -2 -26 9 0 21 15 29 61 32 25 2 37 0 33
-7 -9 -14 53 0 96 23 46 24 48 23 48 -6z m-3064 8 c8 -8 13 -9 41 -12 9 0 15
-11 15 -23 -1 -23 -1 -23 -16 -3 -16 19 -16 19 -12 -7 3 -15 0 -29 -6 -32 -6
-2 -4 -5 5 -5 9 -1 19 -9 22 -20 3 -14 -4 -22 -29 -32 -42 -16 -44 -27 -4 -21
16 2 38 1 47 -3 16 -6 14 -10 -15 -35 -27 -22 -30 -29 -17 -34 9 -3 13 -10 10
-16 -4 -6 -11 -8 -16 -5 -5 4 -9 1 -9 -4 0 -6 -8 -11 -19 -11 -26 0 -37 54
-33 173 2 70 7 97 16 97 7 0 16 -3 20 -7z m1481 -3 c3 -5 -1 -10 -10 -10 -9 0
-13 5 -10 10 3 6 8 10 10 10 2 0 7 -4 10 -10z m4655 -3 c0 -8 -11 -19 -24 -25
-20 -9 -24 -8 -21 6 1 9 10 16 19 16 9 -1 16 2 16 7 0 5 2 9 5 9 3 0 5 -6 5
-13z m415 -44 c-9 -15 -14 -20 -11 -10 4 11 9 31 13 45 5 19 8 22 11 10 2 -9
-4 -29 -13 -45z m-26 -12 c-7 -19 -22 -36 -36 -42 -28 -10 -87 -12 -96 -3 -10
10 12 44 28 44 8 0 15 5 15 11 0 6 9 8 20 4 11 -4 20 -2 20 4 0 6 9 11 20 11
11 0 20 5 20 12 0 8 3 9 10 2 7 -7 7 -21 -1 -43z m-4979 35 c0 -3 -4 -8 -10
-11 -5 -3 -10 -1 -10 4 0 6 5 11 10 11 6 0 10 -2 10 -4z m4444 -57 c-20 -16
-45 -29 -56 -29 -20 0 -15 20 5 20 7 1 25 12 41 25 17 13 34 21 38 19 5 -3 -8
-19 -28 -35z m-4520 -8 c-3 -16 -1 -39 6 -52 l11 -24 -20 24 c-24 27 -26 46
-8 66 17 20 17 19 11 -14z m2959 4 c-3 -9 -8 -14 -10 -11 -3 3 -2 9 2 15 9 16
15 13 8 -4z m2477 -30 c0 -17 -4 -23 -15 -19 -11 5 -12 10 -2 25 15 25 17 24
17 -6z m-4945 -31 c-34 -37 -40 -26 -8 15 15 19 29 29 30 24 2 -6 -8 -23 -22
-39z m3865 38 c0 -11 -101 -55 -109 -47 -9 10 34 32 107 54 1 1 2 -3 2 -7z
m-5187 -134 c4 -73 3 -118 -3 -118 -6 0 -10 50 -10 122 0 67 2 119 4 117 2 -2
6 -57 9 -121z m4168 63 c24 -15 55 -41 69 -56 l25 -28 -24 14 c-13 8 -33 20
-45 26 -11 7 -33 13 -47 13 -15 0 -29 6 -32 14 -7 18 -94 3 -151 -26 l-40 -20
15 23 c22 33 96 68 145 68 28 1 54 -8 85 -28z m390 -29 l1 -27 12 29 c13 29
13 28 20 -35 10 -95 6 -201 -8 -196 -6 3 -10 10 -8 17 1 6 -4 40 -13 73 -22
87 -31 182 -17 173 7 -4 12 -19 13 -34z m-2221 8 c0 -5 -5 -10 -11 -10 -5 0
-7 5 -4 10 3 6 8 10 11 10 2 0 4 -4 4 -10z m2304 -91 c4 -42 2 -60 -8 -68 -19
-16 -22 -7 -24 62 -2 35 2 57 8 57 6 0 8 6 4 13 -5 8 -4 9 3 2 6 -5 13 -35 17
-66z m-4874 -10 c91 -12 167 -23 170 -24 3 -2 7 -43 8 -92 1 -48 5 -153 8
-231 l7 -144 -36 3 c-20 2 -39 0 -43 -4 -4 -4 14 -7 39 -7 26 0 47 -4 47 -8 0
-23 -4 -23 -250 25 -142 27 -160 34 -160 63 0 25 28 30 64 12 24 -12 30 -12
37 0 7 10 9 9 9 -4 0 -22 48 -25 69 -5 10 8 12 8 7 0 -6 -12 48 -33 86 -33 23
0 35 47 18 74 -8 13 -9 21 -2 24 21 7 0 42 -27 43 -23 2 -24 2 -3 6 25 5 28
20 7 47 -21 28 -19 36 13 37 22 1 19 3 -18 14 l-45 13 40 2 40 2 -35 10 c-19
5 -40 14 -45 18 -6 5 -40 8 -76 8 -59 0 -65 -2 -64 -20 1 -11 8 -24 16 -29 10
-6 3 -9 -23 -9 -25 0 -40 6 -47 18 -10 16 -11 15 -12 -3 -3 -39 -17 39 -18
103 l-1 62 31 0 c20 0 29 4 26 13 -2 6 -16 12 -30 12 -19 -1 -27 4 -27 17 0
14 6 16 28 13 15 -3 101 -14 192 -26z m1065 -30 c-7 -11 -44 -12 -109 -3 -73
10 -54 19 34 16 46 -2 78 -8 75 -13z m2965 11 c0 -5 -5 -10 -11 -10 -5 0 -7 5
-4 10 3 6 8 10 11 10 2 0 4 -4 4 -10z m368 -37 c22 -16 51 -41 64 -58 21 -28
19 -27 -21 8 -38 32 -60 44 -61 35 0 -2 -7 -41 -15 -88 -27 -150 -53 -335 -50
-339 7 -6 -15 -41 -25 -41 -6 0 -10 52 -10 127 0 137 -33 333 -55 333 -7 0
-35 -23 -63 -50 -54 -54 -137 -204 -124 -225 24 -39 99 -135 110 -139 7 -3 11
-2 8 3 -7 11 32 46 41 38 4 -4 -1 -13 -11 -20 -14 -10 -15 -18 -7 -39 11 -30
64 -73 89 -73 23 0 33 -55 14 -77 -21 -25 -32 -22 -32 7 0 14 5 25 10 25 6 0
10 5 10 11 0 9 -4 9 -14 0 -9 -8 -28 -8 -67 -1 -39 8 -77 8 -136 -1 -78 -10
-83 -13 -83 -35 0 -36 1 -39 12 -36 6 2 18 -4 28 -13 17 -15 19 -14 27 11 8
24 10 20 22 -40 12 -59 11 -69 -3 -91 -9 -13 -30 -32 -47 -41 -29 -15 -31 -18
-25 -56 10 -60 14 -62 56 -28 26 20 49 54 71 100 28 62 49 81 49 46 0 -24 -83
-136 -116 -157 -26 -16 -34 -27 -34 -50 0 -16 1 -29 3 -29 1 0 23 28 47 61 25
34 58 75 74 93 15 17 46 66 67 109 22 42 44 77 49 77 17 0 11 -39 -25 -169
-61 -221 -84 -325 -71 -333 6 -4 12 -1 14 7 2 9 16 16 35 17 31 1 43 3 60 8 4
1 12 3 17 4 6 0 15 8 20 16 8 12 11 11 16 -8 6 -22 8 -22 25 -6 31 28 26 189
-10 339 -20 80 -26 123 -20 130 11 11 14 7 59 -75 25 -45 67 -71 53 -33 -3 10
-3 15 2 11 4 -4 9 -22 10 -40 1 -18 11 -51 22 -73 l21 -40 10 25 c8 19 7 28
-4 36 -13 10 -12 22 6 85 11 41 21 85 21 99 1 14 7 -9 15 -50 11 -65 11 -84
-3 -145 -17 -75 -73 -206 -85 -199 -11 7 -82 -75 -90 -105 -10 -37 -64 -61
-138 -61 -32 0 -61 4 -64 8 -2 4 11 6 30 4 47 -6 43 5 -7 18 -83 23 -156 120
-194 260 -11 43 -19 118 -22 220 -5 144 -3 163 22 270 16 63 28 128 28 143 0
16 3 23 7 17 4 -7 12 1 20 22 41 101 144 223 213 253 53 23 109 19 155 -12z
m-347 -31 c-12 -17 -21 -34 -21 -39 0 -12 -48 -58 -55 -52 -8 9 36 83 63 106
34 29 40 22 13 -15z m-2911 7 c0 -5 -4 -9 -10 -9 -5 0 -10 7 -10 16 0 8 5 12
10 9 6 -3 10 -10 10 -16z m4340 -45 c0 -14 -4 -23 -10 -19 -5 3 -10 15 -10 26
0 10 5 19 10 19 6 0 10 -12 10 -26z m-4609 -19 c74 -13 235 -41 359 -61 124
-20 231 -41 238 -46 14 -12 18 -378 3 -378 -5 0 -129 25 -277 56 -148 30 -311
64 -363 74 -51 10 -97 22 -101 27 -9 9 -21 339 -12 347 8 8 4 9 153 -19z
m-634 -17 c-3 -7 -5 -2 -5 12 0 14 2 19 5 13 2 -7 2 -19 0 -25z m2155 10 c-17
-8 -26 -8 -34 0 -9 9 -4 12 23 11 32 0 33 -1 11 -11z m3006 -36 c2 -21 -1 -49
-6 -62 -7 -20 -10 -13 -15 35 -3 32 -4 62 -1 67 10 16 20 -1 22 -40z m-881
-18 c14 -30 23 -57 21 -59 -2 -2 -16 23 -30 55 -14 33 -24 60 -22 60 3 0 17
-25 31 -56z m-4610 30 c-3 -3 -12 -4 -19 -1 -8 3 -5 6 6 6 11 1 17 -2 13 -5z
m5570 -56 c-3 -8 -6 -5 -6 6 -1 11 2 17 5 13 3 -3 4 -12 1 -19z m-5603 -23 c3
-8 1 -15 -4 -15 -6 0 -9 -3 -9 -7 4 -22 -2 -36 -10 -27 -11 10 -3 64 9 64 4 0
10 -7 14 -15z m3279 6 c11 -1 8 -41 -3 -41 -5 0 -10 5 -10 11 0 6 -7 9 -15 5
-8 -3 -19 3 -25 14 -9 16 -7 18 18 15 15 -2 30 -4 35 -4z m1681 -12 c-3 -5
-10 -7 -15 -4 -5 4 -9 1 -9 -4 0 -6 -5 -11 -12 -11 -6 0 -3 8 7 20 17 19 41
18 29 -1z m-4794 1 c0 -5 -4 -10 -10 -10 -5 0 -10 5 -10 10 0 6 5 10 10 10 6
0 10 -4 10 -10z m-210 -10 c0 -5 -5 -10 -11 -10 -5 0 -7 5 -4 10 3 6 8 10 11
10 2 0 4 -4 4 -10z m4665 -56 c-17 -49 -13 -76 5 -30 5 15 10 31 10 35 0 4 8
16 19 25 18 16 19 15 25 -27 l7 -43 -85 -90 c-46 -49 -80 -91 -75 -92 11 -4
141 66 151 81 10 16 15 8 23 -39 l6 -42 -58 -7 c-32 -4 -85 -18 -117 -31 -70
-28 -62 -28 -70 -8 -4 10 13 36 49 77 30 33 53 62 51 64 -2 2 -25 -10 -52 -26
-26 -17 -50 -29 -52 -26 -3 3 26 38 64 78 47 48 76 88 89 122 23 62 32 44 10
-21z m-4690 36 c3 -5 1 -10 -4 -10 -6 0 -11 5 -11 10 0 6 2 10 4 10 3 0 8 -4
11 -10z m260 -40 c3 -5 1 -10 -4 -10 -6 0 -11 5 -11 10 0 6 2 10 4 10 3 0 8
-4 11 -10z m2368 3 c-7 -2 -21 -2 -30 0 -10 3 -4 5 12 5 17 0 24 -2 18 -5z
m-2513 -13 c0 -5 -5 -10 -11 -10 -5 0 -7 5 -4 10 3 6 8 10 11 10 2 0 4 -4 4
-10z m134 -21 c-3 -5 -12 -9 -20 -9 -8 0 -14 -9 -14 -20 0 -11 -5 -20 -11 -20
-7 0 -9 9 -5 24 4 18 2 23 -11 22 -8 0 -17 4 -19 9 -3 6 14 9 41 7 25 -2 42
-8 39 -13z m5591 -3 c16 -7 -57 -6 -97 0 -21 4 -36 10 -33 14 4 6 105 -5 130
-14z m-650 4 c3 -5 -3 -10 -15 -10 -12 0 -18 5 -15 10 3 6 10 10 15 10 5 0 12
-4 15 -10z m-5145 -10 c0 -5 -2 -10 -4 -10 -3 0 -8 5 -11 10 -3 6 -1 10 4 10
6 0 11 -4 11 -10z m2700 2 c0 -4 -9 -13 -20 -20 -11 -7 -20 -19 -20 -27 0 -8
-5 -15 -11 -15 -6 0 -9 -7 -5 -15 3 -10 -1 -15 -12 -15 -10 0 -26 -16 -36 -35
-11 -19 -23 -35 -28 -35 -14 0 -9 16 12 43 12 14 26 41 32 59 6 18 20 41 31
51 20 17 57 24 57 9z m2600 -1 c0 -14 -18 -23 -31 -15 -8 4 -7 9 2 15 18 11
29 11 29 0z m74 0 c8 -12 -30 -44 -43 -37 -19 12 -8 46 16 46 12 0 24 -4 27
-9z m-5274 -11 c0 -5 -5 -10 -11 -10 -5 0 -7 5 -4 10 3 6 8 10 11 10 2 0 4 -4
4 -10z m2420 0 c0 -5 -17 -10 -37 -10 -28 0 -34 3 -23 10 20 13 60 13 60 0z
m60 -13 c0 -13 5 -28 12 -35 24 -24 -1 -22 -28 3 -16 15 -20 23 -11 19 19 -7
20 15 2 28 -6 4 -2 8 8 8 11 0 17 -8 17 -23z m37 17 c-3 -3 -12 -4 -19 -1 -8
3 -5 6 6 6 11 1 17 -2 13 -5z m-2391 -26 c-3 -13 -5 -24 -5 -26 -1 -2 -6 0
-11 3 -7 4 -7 13 0 26 14 25 21 24 16 -3z m4491 -25 c-3 -10 -5 -4 -5 12 0 17
2 24 5 18 2 -7 2 -21 0 -30z m-2207 13 c0 -1 -4 -16 -10 -32 -5 -16 -14 -48
-20 -71 -12 -46 -25 -55 -35 -23 -4 11 -10 18 -15 15 -4 -3 -10 7 -13 20 -2
14 1 29 8 33 6 4 14 15 18 25 3 9 13 17 22 17 8 0 15 5 15 10 0 6 7 10 15 10
8 0 15 -2 15 -4z m45 -55 c0 -14 -8 -32 -17 -39 -10 -7 -18 -20 -18 -28 0 -8
-6 -14 -14 -14 -10 0 -13 7 -9 23 3 12 6 31 8 42 1 11 6 32 10 47 7 26 8 26
24 11 9 -9 16 -28 16 -42z m1184 -36 c-7 -25 -17 -45 -21 -45 -5 0 -6 -10 -3
-22 8 -38 -9 -93 -28 -92 -9 1 -17 -2 -17 -7 0 -5 -6 -9 -13 -9 -7 0 -30 -9
-52 -20 -22 -11 -45 -20 -52 -20 -17 0 -17 17 0 27 8 4 28 37 46 73 32 64 143
188 149 169 2 -5 -2 -30 -9 -54z m-260 -49 c-5 -6 -9 7 -8 35 l1 44 8 -35 c5
-20 5 -39 -1 -44z m491 39 c0 -8 -4 -15 -10 -15 -5 0 -10 7 -10 15 0 8 5 15
10 15 6 0 10 -7 10 -15z m-530 -79 c0 -7 11 -25 24 -39 37 -40 45 -102 8 -65
-8 8 -13 5 -21 -13 -12 -32 -37 -53 -56 -46 -8 4 -30 0 -50 -8 -19 -9 -54 -17
-77 -20 -24 -3 -106 -14 -183 -25 -77 -10 -171 -22 -210 -25 -38 -3 -133 -12
-210 -20 -156 -16 -322 -22 -332 -12 -3 4 5 7 20 7 20 0 27 6 32 29 3 16 13
32 21 35 8 3 14 12 14 21 0 8 7 15 15 15 8 0 15 7 15 15 0 8 9 15 21 15 11 0
18 4 15 8 -3 5 3 14 14 22 10 7 16 20 13 28 -7 16 20 11 72 -16 40 -20 128
-18 350 8 302 35 485 69 485 91 0 5 5 9 10 9 6 0 10 -6 10 -14z m-830 -16
c-20 -13 -57 -13 -65 0 -4 6 11 10 37 10 31 0 39 -3 28 -10z m2107 -57 c-3
-10 -5 -4 -5 12 0 17 2 24 5 18 2 -7 2 -21 0 -30z m-100 -35 c-3 -8 -6 -5 -6
6 -1 11 2 17 5 13 3 -3 4 -12 1 -19z m-4507 -13 c10 -12 10 -15 -1 -15 -8 0
-25 -3 -39 -5 -25 -6 -25 -6 -2 5 13 5 20 14 17 20 -10 16 11 12 25 -5z m-84
-13 c-10 -2 -22 0 -28 6 -6 6 0 7 19 4 21 -5 23 -7 9 -10z m4681 -4 c-3 -8 -6
-5 -6 6 -1 11 2 17 5 13 3 -3 4 -12 1 -19z m-4458 -4 c24 -5 31 -12 31 -30 0
-26 -1 -27 -24 -18 -9 3 -13 11 -9 17 3 6 1 7 -5 3 -14 -8 -92 4 -92 15 0 7
21 13 56 18 6 0 26 -2 43 -5z m4448 -46 c-3 -8 -6 -5 -6 6 -1 11 2 17 5 13 3
-3 4 -12 1 -19z m-1270 -4 c-3 -3 -12 -4 -19 -1 -8 3 -5 6 6 6 11 1 17 -2 13
-5z m-117 -63 c0 -20 -26 -31 -77 -31 -18 0 -33 -5 -33 -11 0 -7 10 -9 25 -7
14 3 25 1 25 -3 0 -5 -6 -9 -12 -10 -10 0 -10 -2 0 -6 7 -3 23 3 35 13 12 10
19 15 15 10 -4 -5 -3 -15 3 -22 7 -9 5 -15 -8 -22 -18 -9 -168 -29 -273 -36
-30 -3 -87 -7 -126 -11 -52 -6 -77 -4 -96 6 -31 17 -102 79 -96 84 2 2 67 9
143 15 77 6 162 16 188 22 57 12 71 4 37 -24 l-24 -20 29 4 c22 2 31 9 33 26
2 12 10 22 19 22 12 0 13 -3 4 -14 -9 -11 -9 -16 0 -21 12 -8 29 11 29 33 0
19 28 14 33 -5 4 -15 6 -15 12 5 8 24 25 30 25 8 0 -18 32 -26 54 -14 9 5 16
16 16 24 0 8 5 12 10 9 6 -3 10 -14 10 -24z m885 -323 l28 -43 -28 25 c-31 29
-61 83 -81 149 -25 82 -15 78 20 -6 18 -46 46 -102 61 -125z m-21 -31 c15 -26
37 -54 49 -62 11 -8 19 -17 16 -20 -12 -11 -90 81 -108 129 -31 83 -33 94 -8
46 12 -25 36 -66 51 -93z m-4310 -267 c-10 -4 -23 -5 -28 -2 -5 3 -1 9 10 12
10 4 23 5 28 2 5 -3 1 -9 -10 -12z m46 0 c-12 -7 -9 -14 15 -34 36 -31 36 -31
62 -6 18 16 22 17 27 4 3 -9 6 -17 6 -19 0 -1 -15 -5 -34 -8 -39 -6 -78 1 -71
13 7 12 -22 33 -37 27 -8 -4 -7 -6 5 -6 20 -1 23 -21 3 -21 -8 0 -18 5 -21 10
-3 6 -16 10 -28 11 -15 1 -11 5 15 13 20 6 43 17 49 23 7 7 15 10 18 7 3 -3
-1 -9 -9 -14z m190 5 c10 0 14 -8 12 -22 -4 -27 16 -40 31 -20 10 13 19 14 60
5 26 -6 47 -15 47 -20 0 -4 11 -8 25 -8 18 0 26 -7 31 -25 7 -29 16 -31 34
-10 7 9 18 14 24 12 6 -3 19 2 29 11 15 14 17 13 17 -1 0 -10 8 -17 20 -17 11
0 20 6 20 14 0 8 6 16 13 19 18 6 37 -3 37 -19 0 -17 16 -19 25 -3 4 6 12 8
19 6 6 -3 34 -1 61 3 34 5 56 4 70 -5 12 -8 54 -13 109 -13 58 0 91 -4 96 -12
4 -7 16 -9 28 -6 15 5 21 1 24 -18 3 -14 1 -29 -4 -34 -5 -5 6 -8 26 -8 19 1
32 4 30 7 -4 7 76 22 83 16 4 -5 -66 -32 -275 -107 l-133 -48 -187 60 c-277
88 -492 160 -492 164 0 3 11 2 25 -2 20 -5 25 -2 31 23 8 32 37 74 44 64 3 -3
12 -6 20 -6z m-130 -15 c0 -5 -4 -10 -10 -10 -5 0 -10 5 -10 10 0 6 5 10 10
10 6 0 10 -4 10 -10z m3537 -46 c-3 -3 -12 -4 -19 -1 -8 3 -5 6 6 6 11 1 17
-2 13 -5z"/>
<path d="M2575 4920 c-22 -4 -45 -5 -52 -3 -7 3 -13 -2 -13 -11 0 -10 8 -16
21 -16 31 0 99 22 99 32 0 4 -3 7 -7 7 -5 -1 -26 -5 -48 -9z"/>
<path d="M368 4863 c7 -3 16 -2 19 1 4 3 -2 6 -13 5 -11 0 -14 -3 -6 -6z"/>
<path d="M2250 4741 c0 -7 -4 -9 -10 -6 -5 3 -10 2 -10 -3 0 -15 28 -23 36
-11 3 6 1 16 -5 22 -8 8 -11 8 -11 -2z"/>
<path d="M3270 4579 c-30 -4 -72 -9 -92 -10 -21 -1 -38 -7 -38 -13 0 -7 18
-10 48 -8 l49 4 -5 -33 c-4 -30 -3 -32 22 -27 14 3 26 1 26 -4 0 -22 -95 -31
-113 -10 -10 13 -8 14 16 10 27 -5 32 1 27 32 -3 21 -7 23 -22 14 -7 -5 -20
-9 -28 -9 -11 0 -15 -11 -13 -44 2 -50 7 -58 27 -42 10 9 16 9 21 1 4 -7 11
-7 18 -2 20 15 56 20 60 8 3 -8 9 -7 20 3 13 10 17 10 17 1 0 -8 9 -10 26 -6
17 5 23 3 19 -4 -3 -5 -22 -10 -41 -10 -26 0 -33 -3 -28 -12 6 -10 4 -10 -8 0
-11 9 -31 11 -65 6 -54 -7 -68 -16 -60 -38 4 -11 18 -14 51 -11 25 2 50 6 54
9 5 3 30 6 58 7 70 3 72 5 72 55 0 44 -4 48 -40 45 -10 -1 -18 3 -18 9 0 6 8
10 18 8 10 -2 16 2 14 11 -2 8 3 18 10 23 8 5 -2 6 -24 3 -21 -2 -38 0 -38 5
0 5 15 10 33 12 36 3 40 22 5 24 -13 1 -48 -2 -78 -7z m50 -83 c0 -11 -19 -15
-25 -6 -3 5 1 10 9 10 9 0 16 -2 16 -4z"/>
<path d="M3154 4336 c-8 -35 1 -56 26 -56 18 0 21 5 18 37 -4 46 -34 59 -44
19z"/>
<path d="M225 4321 c-3 -5 -1 -12 5 -16 5 -3 10 1 10 9 0 18 -6 21 -15 7z"/>
<path d="M460 4273 c0 -5 5 -25 11 -45 7 -27 15 -38 29 -38 22 0 26 23 10 64
-9 24 -50 39 -50 19z"/>
<path d="M258 4263 c7 -3 16 -2 19 1 4 3 -2 6 -13 5 -11 0 -14 -3 -6 -6z"/>
<path d="M210 4240 l-25 -8 28 -1 c15 -1 27 4 27 9 0 6 -1 10 -2 9 -2 -1 -14
-5 -28 -9z"/>
<path d="M2408 4323 c7 -3 16 -2 19 1 4 3 -2 6 -13 5 -11 0 -14 -3 -6 -6z"/>
<path d="M2528 4293 c6 -2 18 -2 25 0 6 3 1 5 -13 5 -14 0 -19 -2 -12 -5z"/>
<path d="M5860 4256 c0 -2 7 -6 15 -10 8 -3 15 -1 15 4 0 6 -7 10 -15 10 -8 0
-15 -2 -15 -4z"/>
<path d="M5774 3890 c1 -26 16 -45 16 -20 0 6 7 10 16 10 13 0 14 3 5 13 -6 8
-8 17 -4 20 3 4 -3 7 -14 7 -16 0 -20 -6 -19 -30z"/>
<path d="M5920 3911 c0 -6 9 -15 20 -21 11 -6 17 -16 14 -25 -5 -11 1 -15 22
-15 l27 0 -24 26 c-29 31 -59 49 -59 35z"/>
<path d="M5678 3663 c7 -3 16 -2 19 1 4 3 -2 6 -13 5 -11 0 -14 -3 -6 -6z"/>
<path d="M416 3751 c-28 -10 -52 -23 -54 -29 -5 -15 -3 -15 39 -1 65 21 89 31
89 40 0 12 -16 10 -74 -10z"/>
<path d="M3486 3279 c-11 -10 -16 -19 -11 -19 18 0 75 24 75 32 0 15 -45 7
-64 -13z"/>
<path d="M7353 3283 c-13 -5 -18 -35 -7 -45 3 -3 14 -3 25 -1 13 4 19 12 17
26 -3 22 -15 29 -35 20z"/>
<path d="M7414 3276 c-10 -26 4 -46 31 -46 23 0 26 4 23 28 -3 31 -44 45 -54
18z"/>
<path d="M7508 3282 c-20 -4 -24 -37 -7 -48 15 -9 31 10 27 33 -2 11 -10 17
-20 15z"/>
<path d="M7242 3248 c2 -6 10 -13 16 -14 7 -1 8 0 2 3 -5 2 -8 9 -4 14 3 5 0
9 -6 9 -7 0 -10 -5 -8 -12z"/>
<path d="M5423 2966 c10 -8 13 -16 7 -18 -6 -2 -1 -11 10 -20 21 -19 25 -11
14 30 -4 14 -14 22 -28 22 -20 -1 -20 -1 -3 -14z"/>
<path d="M5435 2890 c-3 -6 1 -7 9 -4 18 7 21 14 7 14 -6 0 -13 -4 -16 -10z"/>
<path d="M482 2960 c0 -14 2 -19 5 -12 2 6 2 18 0 25 -3 6 -5 1 -5 -13z"/>
<path d="M277 2870 c3 -13 14 -20 28 -20 18 0 22 4 18 20 -6 23 -19 26 -26 8
-4 -10 -6 -10 -6 0 -1 6 -5 12 -10 12 -5 0 -7 -9 -4 -20z"/>
<path d="M3707 2713 c-8 -7 11 -33 24 -33 5 0 9 9 9 20 0 19 -20 27 -33 13z"/>
<path d="M3675 2678 c5 -17 4 -19 -4 -8 -10 15 -24 10 -101 -33 -14 -8 -42
-22 -62 -31 -37 -15 -38 -17 -38 -67 l0 -52 38 6 c20 4 81 28 134 54 94 46 97
49 96 80 -1 22 -7 35 -19 38 -9 3 -20 12 -23 20 -9 25 -28 17 -21 -7z m-15
-28 c0 -5 -4 -10 -10 -10 -5 0 -10 5 -10 10 0 6 5 10 10 10 6 0 10 -4 10 -10z
m-90 -50 c0 -5 -2 -10 -4 -10 -3 0 -8 5 -11 10 -3 6 -1 10 4 10 6 0 11 -4 11
-10z"/>
<path d="M3920 2650 c-8 -5 -12 -12 -9 -15 4 -3 12 1 19 10 14 17 11 19 -10 5z"/>
<path d="M2759 2583 c-13 -17 -13 -17 6 -3 11 8 22 16 24 17 2 2 0 3 -6 3 -6
0 -17 -8 -24 -17z"/>
<path d="M2645 2490 c-10 -11 -14 -20 -8 -20 5 0 18 9 28 20 10 11 14 20 8 20
-5 0 -18 -9 -28 -20z"/>
<path d="M2672 2384 c10 -10 20 -15 24 -12 3 4 -5 12 -18 18 -22 12 -22 12 -6
-6z"/>
<path d="M2700 2355 c-20 -24 5 -34 48 -20 26 9 29 20 6 29 -25 10 -41 7 -54
-9z"/>
<path d="M6810 2460 c0 -35 -2 -35 52 -13 l42 17 -29 12 c-50 22 -65 18 -65
-16z"/>
<path d="M6891 2190 c-15 -69 -16 -73 -3 -78 5 -1 12 18 15 43 4 25 9 56 13
70 3 14 2 25 -3 25 -5 0 -15 -27 -22 -60z"/>
<path d="M6250 2650 c-8 -5 -10 -10 -5 -10 6 0 17 5 25 10 8 5 11 10 5 10 -5
0 -17 -5 -25 -10z"/>
<path d="M5596 2307 c3 -10 9 -15 12 -12 3 3 0 11 -7 18 -10 9 -11 8 -5 -6z"/>
<path d="M400 2151 c0 -13 6 -21 18 -21 9 0 34 -3 55 -6 33 -6 37 -4 37 15 0
13 -6 21 -17 21 -10 0 -35 3 -55 6 -34 6 -38 4 -38 -15z"/>
<path d="M530 2131 c0 -17 6 -21 34 -21 19 0 41 -3 50 -6 12 -4 16 0 16 15 0
14 -6 21 -19 21 -10 0 -33 3 -50 6 -27 6 -31 4 -31 -15z"/>
<path d="M425 2109 c-7 -10 15 -24 40 -25 38 -2 113 -14 129 -20 11 -4 16 -1
16 10 0 11 -9 16 -27 16 -16 1 -56 7 -91 14 -34 8 -65 10 -67 5z"/>
<path d="M655 1760 c3 -5 8 -10 11 -10 2 0 4 5 4 10 0 6 -5 10 -11 10 -5 0 -7
-4 -4 -10z"/>
<path d="M4837 2153 c-9 -8 3 -321 13 -348 8 -22 15 45 26 238 6 111 5 117
-13 117 -11 0 -23 -3 -26 -7z"/>
<path d="M4546 1753 c-9 -29 0 -77 15 -84 29 -16 120 -39 129 -34 5 3 20 0 34
-6 35 -17 44 -4 15 21 -44 36 -167 120 -177 120 -6 0 -13 -8 -16 -17z"/>
<path d="M4581 1462 c-1 -13 -14 -35 -31 -49 -16 -13 -30 -30 -29 -36 0 -8 2
-8 6 1 2 6 12 12 21 12 10 0 26 7 36 15 16 12 18 19 9 47 -9 27 -11 29 -12 10z"/>
<path d="M4891 1435 c0 -40 55 -249 63 -237 5 9 13 9 27 2 26 -14 25 -5 -11
86 -41 102 -79 174 -79 149z"/>
<path d="M4683 1250 c-40 -77 -73 -145 -73 -153 0 -8 7 -21 16 -28 14 -11 18
-11 29 4 16 22 108 293 103 306 -1 5 -36 -53 -75 -129z"/>
<path d="M4850 1000 c-9 -6 -10 -10 -3 -10 6 0 15 5 18 10 8 12 4 12 -15 0z"/>
<path d="M4095 1639 c4 -10 0 -19 -9 -22 -20 -8 -21 -27 -2 -27 19 0 31 39 16
54 -8 8 -10 7 -5 -5z"/>
<path d="M3351 1313 c23 -29 37 -43 44 -43 10 0 -39 59 -49 59 -5 1 -2 -7 5
-16z"/>
<path d="M3557 1313 c-14 -13 -6 -23 19 -23 22 0 25 2 14 15 -14 16 -23 19
-33 8z"/>
<path d="M3520 1291 c0 -6 -6 -8 -14 -5 -7 3 -16 -2 -19 -10 -8 -19 0 -20 32
-2 15 8 20 16 12 20 -6 4 -11 3 -11 -3z"/>
<path d="M5597 5306 c-3 -8 1 -17 9 -20 8 -3 14 -17 14 -31 0 -25 -14 -34 -23
-15 -3 6 -4 5 -3 -2 1 -7 12 -15 24 -18 16 -4 19 -9 12 -20 -6 -10 -10 -11
-10 -2 0 17 -20 15 -42 -5 -11 -9 -18 -11 -18 -5 0 18 -28 14 -38 -4 -7 -13
-13 -14 -31 -5 -17 10 -22 9 -27 -4 -8 -19 -24 -20 -24 -2 0 9 -12 14 -30 15
-24 0 -31 -4 -36 -24 -4 -14 -4 -38 0 -54 5 -26 2 -30 -15 -30 -17 0 -19 -3
-11 -13 11 -13 20 -13 220 12 66 8 90 -2 78 -34 -3 -9 2 -20 13 -27 10 -6 16
-19 14 -28 -3 -9 2 -24 10 -32 17 -17 27 -116 12 -122 -5 -3 -3 -5 6 -5 9 -1
21 -11 27 -23 8 -17 11 45 11 245 l1 267 -69 0 c-50 0 -70 -4 -74 -14z m58
-185 c-3 -6 -11 -11 -16 -11 -5 0 -4 6 3 14 14 16 24 13 13 -3z m-130 -11 c3
-4 -15 -10 -39 -12 -31 -2 -42 0 -35 8 5 6 7 13 4 15 -2 3 11 3 30 1 20 -2 37
-8 40 -12z m93 4 c-10 -9 -78 -12 -78 -3 0 5 19 9 42 9 23 0 39 -3 36 -6z
m-188 -14 c0 -5 -7 -10 -16 -10 -8 0 -12 5 -9 10 3 6 10 10 16 10 5 0 9 -4 9
-10z"/>
<path d="M5930 5310 c-29 -18 12 -20 115 -6 l100 14 -100 1 c-55 0 -107 -3
-115 -9z"/>
<path d="M6395 5309 c-16 -4 6 -5 50 -2 44 3 82 7 85 10 7 7 -101 0 -135 -8z"/>
<path d="M6680 5295 c-113 -11 -200 -24 -194 -27 10 -6 126 3 364 30 36 4 58
10 50 13 -8 3 -107 -4 -220 -16z"/>
<path d="M6988 5313 c18 -7 15 -33 -5 -33 -15 0 -15 -1 -1 -12 11 -9 15 -27
14 -58 l-1 -45 -47 -3 c-27 -2 -48 -7 -48 -13 0 -5 21 -8 48 -7 l47 3 5 -155
c4 -118 7 -144 13 -111 6 33 11 41 19 33 8 -8 8 -15 1 -24 -17 -20 -13 -67 6
-70 9 -2 34 3 55 11 30 12 40 13 44 3 2 -7 9 -9 15 -5 7 4 20 7 31 8 29 0 44
31 25 51 -14 13 -23 14 -54 5 -26 -7 -44 -7 -57 0 -10 5 -23 7 -28 4 -6 -3
-10 -2 -10 3 0 5 -11 15 -25 22 -16 8 -21 16 -14 20 6 4 9 11 7 16 -1 5 17 11
42 14 l45 5 3 74 c3 70 2 73 -18 68 -22 -6 -26 3 -8 21 9 9 7 12 -9 12 -20 0
-21 1 -7 30 9 17 22 30 31 30 11 0 9 6 -8 20 -19 16 -21 21 -10 29 7 5 11 13
7 19 -14 23 18 24 37 1 18 -23 19 -23 33 -4 30 40 20 45 -88 44 -57 0 -97 -3
-90 -6z m79 -199 c-3 -3 -12 -4 -19 -1 -8 3 -5 6 6 6 11 1 17 -2 13 -5z"/>
<path d="M7265 5300 c-3 -11 -3 -29 0 -40 4 -13 2 -20 -7 -20 -9 -1 -7 -5 5
-14 21 -16 22 -36 3 -36 -8 0 -27 -5 -43 -11 -21 -8 -24 -12 -13 -19 12 -8 12
-10 -3 -16 -28 -10 -19 -24 16 -24 17 0 38 -4 46 -9 16 -10 23 -71 9 -71 -5 0
-6 -5 -2 -11 3 -6 0 -15 -7 -20 -11 -7 -11 -9 3 -9 9 0 18 6 20 12 3 9 10 8
22 -5 14 -14 19 -40 23 -116 3 -65 1 -101 -6 -105 -7 -4 -11 1 -11 12 0 26
-29 51 -39 34 -4 -7 -15 -10 -23 -7 -9 4 -19 1 -23 -5 -5 -8 -11 -8 -21 1 -11
9 -15 8 -19 -4 -6 -15 -45 -17 -77 -3 -30 14 -48 -1 -48 -38 0 -19 -6 -37 -12
-40 -7 -3 39 -4 102 -1 63 3 116 5 118 5 1 0 1 5 0 11 -2 6 3 14 11 17 8 3 11
0 7 -7 -4 -6 -3 -11 3 -11 5 0 13 5 16 10 4 6 10 8 15 5 4 -3 10 2 13 10 5 11
10 365 8 513 -1 31 -3 32 -40 32 -31 0 -41 -4 -46 -20z m52 -22 c-3 -7 -5 -2
-5 12 0 14 2 19 5 13 2 -7 2 -19 0 -25z m-40 -124 c-3 -3 -12 -4 -19 -1 -8 3
-5 6 6 6 11 1 17 -2 13 -5z m-27 -398 c-7 -7 -14 -6 -21 1 -9 9 -7 12 9 10 14
-1 18 -5 12 -11z"/>
<path d="M5321 5287 c-6 -12 -13 -38 -14 -57 -2 -32 0 -34 31 -36 18 -1 35 2
38 7 3 5 16 9 29 9 13 0 25 5 27 12 3 7 9 8 18 3 23 -14 76 -15 92 -2 9 7 18
28 21 47 3 19 3 29 0 23 -7 -18 -23 -16 -23 2 0 9 -9 15 -25 15 -14 0 -25 -5
-25 -11 0 -6 -9 -8 -20 -4 -13 4 -22 1 -26 -9 -5 -13 -10 -12 -39 4 -24 13
-36 15 -44 7 -8 -8 -11 -8 -11 1 0 19 -16 14 -29 -11z"/>
<path d="M7216 5295 c-7 -19 3 -47 15 -39 5 3 9 14 9 24 0 24 -16 34 -24 15z"/>
<path d="M7685 5300 c4 -6 11 -8 16 -5 14 9 11 15 -7 15 -8 0 -12 -5 -9 -10z"/>
<path d="M6062 5285 c-67 -6 -128 -17 -134 -23 -9 -9 -6 -12 13 -12 44 0 371
39 377 44 8 9 -120 5 -256 -9z"/>
<path d="M7513 5293 c-24 -2 -43 -7 -43 -12 0 -8 128 3 137 13 6 6 -16 6 -94
-1z"/>
<path d="M7978 5293 c7 -3 16 -2 19 1 4 3 -2 6 -13 5 -11 0 -14 -3 -6 -6z"/>
<path d="M7805 5280 c-33 -3 -53 -9 -45 -12 8 -4 58 -1 110 6 100 14 54 19
-65 6z"/>
<path d="M6260 5255 c-63 -7 -145 -13 -182 -14 -65 -1 -97 -14 -61 -25 25 -7
416 38 407 47 -9 8 -14 8 -164 -8z"/>
<path d="M6730 5254 c-63 -7 -119 -13 -124 -13 -5 -1 -7 -3 -4 -6 5 -5 283 22
303 30 19 7 -61 2 -175 -11z"/>
<path d="M7638 5253 c12 -2 32 -2 45 0 12 2 2 4 -23 4 -25 0 -35 -2 -22 -4z"/>
<path d="M7873 5253 c-29 -2 -53 -8 -53 -14 0 -11 9 -12 75 -10 66 2 105 10
105 22 0 9 -21 9 -127 2z"/>
<path d="M7503 5243 c9 -2 25 -2 35 0 9 3 1 5 -18 5 -19 0 -27 -2 -17 -5z"/>
<path d="M7700 5230 c-25 -4 -89 -11 -142 -15 -54 -4 -98 -11 -98 -17 0 -6 16
-7 38 -4 20 3 75 8 122 11 125 9 165 16 149 26 -8 5 -16 8 -19 8 -3 -1 -25 -5
-50 -9z"/>
<path d="M5560 5214 c0 -8 5 -12 10 -9 6 3 10 10 10 16 0 5 -4 9 -10 9 -5 0
-10 -7 -10 -16z"/>
<path d="M6325 5219 c-44 -5 -109 -11 -144 -15 -41 -4 -60 -9 -53 -16 8 -8
390 27 401 38 7 6 -117 2 -204 -7z"/>
<path d="M6868 5223 c6 -2 18 -2 25 0 6 3 1 5 -13 5 -14 0 -19 -2 -12 -5z"/>
<path d="M6768 5213 c12 -2 30 -2 40 0 9 3 -1 5 -23 4 -22 0 -30 -2 -17 -4z"/>
<path d="M6708 5203 c6 -2 18 -2 25 0 6 3 1 5 -13 5 -14 0 -19 -2 -12 -5z"/>
<path d="M6445 5190 c-33 -4 -92 -8 -132 -9 -67 -1 -100 -12 -69 -24 12 -5
209 13 341 32 l60 8 -70 0 c-38 0 -97 -3 -130 -7z"/>
<path d="M6825 5179 c-20 -5 -9 -6 30 -2 33 3 62 7 64 9 8 7 -63 2 -94 -7z"/>
<path d="M6495 5158 c-147 -11 -168 -15 -145 -28 14 -7 182 7 335 29 l60 8
-60 0 c-33 0 -118 -4 -190 -9z"/>
<path d="M6675 5139 c-49 -5 -124 -12 -165 -15 l-75 -7 45 -9 c41 -8 97 -4
310 18 45 5 58 10 45 15 -24 9 -43 9 -160 -2z"/>
<path d="M6057 5083 c-12 -12 -7 -28 13 -40 16 -11 22 -10 39 9 11 11 18 25
15 30 -6 10 -58 11 -67 1z"/>
<path d="M7153 5072 c-13 -2 -23 -10 -23 -18 0 -11 6 -13 22 -8 13 4 38 7 58
8 19 1 35 6 35 11 0 10 -47 13 -92 7z"/>
<path d="M6590 5063 c-196 -14 -320 -27 -320 -36 0 -6 -4 -6 -12 0 -8 6 -65 5
-158 -3 -80 -7 -151 -13 -157 -13 -8 -1 -13 -16 -13 -42 l0 -41 88 7 c48 4 89
9 91 11 2 2 9 -3 15 -11 9 -12 24 -14 73 -9 60 7 62 8 65 38 3 30 4 31 48 28
24 -2 48 -8 52 -14 5 -9 50 -9 180 1 95 7 193 15 218 18 l45 7 -35 8 c-19 5
-40 9 -47 10 -6 1 -9 7 -6 15 4 9 -4 13 -23 13 -21 0 -25 3 -15 9 14 9 -1 10
-89 4z"/>
<path d="M7063 4935 c0 -8 4 -15 8 -15 4 0 9 7 13 15 3 9 0 15 -8 15 -7 0 -13
-7 -13 -15z"/>
<path d="M7180 4936 c0 -14 40 -30 50 -20 5 6 -29 34 -42 34 -4 0 -8 -6 -8
-14z"/>
<path d="M5370 4880 c0 -5 5 -10 10 -10 6 0 10 5 10 10 0 6 -4 10 -10 10 -5 0
-10 -4 -10 -10z"/>
<path d="M5426 4871 c-3 -5 1 -14 9 -21 13 -10 15 -9 15 9 0 21 -14 28 -24 12z"/>
<path d="M7947 4852 c-9 -2 -15 -7 -13 -11 7 -10 66 -1 66 10 0 8 -18 8 -53 1z"/>
<path d="M5535 4810 c-46 -8 -93 -26 -114 -43 -7 -7 -30 -17 -50 -22 -28 -8
-37 -17 -45 -44 -8 -28 -7 -36 9 -47 16 -12 16 -14 3 -14 -9 0 -20 -5 -24 -12
-9 -15 155 -4 279 19 77 14 90 19 98 40 13 36 7 75 -13 81 -10 2 -18 8 -18 13
0 23 -69 39 -125 29z"/>
<path d="M7001 4804 c0 -11 3 -14 6 -6 3 7 2 16 -1 19 -3 4 -6 -2 -5 -13z"/>
<path d="M6000 4792 c-26 -2 -48 -10 -53 -18 -7 -12 -17 -157 -21 -304 l-1
-45 43 -3 c29 -2 42 1 43 10 0 7 0 45 -1 83 -1 47 2 67 9 60 5 -6 11 -46 13
-90 l3 -80 50 -7 c28 -3 95 -18 150 -32 55 -14 105 -26 112 -26 10 0 13 25 13
94 l0 95 43 5 c44 5 536 36 573 36 18 0 21 6 22 61 l2 61 -73 -6 c-39 -3 -182
-13 -317 -21 -135 -8 -257 -17 -271 -19 -26 -5 -27 -3 -35 52 l-9 57 -50 7
c-105 15 -121 18 -160 25 -22 5 -60 7 -85 5z m-13 -28 c-3 -3 -12 -4 -19 -1
-8 3 -5 6 6 6 11 1 17 -2 13 -5z m213 -50 c0 -16 -2 -16 -24 -8 -8 3 -12 12
-10 19 7 17 34 8 34 -11z m-175 -15 c-6 -33 -15 -36 -15 -6 0 15 4 27 9 27 6
0 8 -10 6 -21z m115 -18 c0 -5 25 -12 56 -16 44 -5 54 -10 50 -22 -4 -9 -3
-21 2 -27 5 -6 6 -45 2 -86 -4 -48 -2 -78 4 -82 6 -5 2 -8 -10 -8 -17 0 -20 5
-17 24 3 13 0 27 -6 30 -6 4 -11 1 -11 -6 0 -23 -22 -39 -36 -27 -8 6 -20 7
-31 2 -10 -5 -27 -9 -38 -9 -18 1 -20 8 -20 61 -1 99 15 171 36 172 11 1 19
-2 19 -6z"/>
<path d="M6200 4646 c0 -2 7 -6 15 -10 8 -3 15 -1 15 4 0 6 -7 10 -15 10 -8 0
-15 -2 -15 -4z"/>
<path d="M6206 4535 c-3 -8 -1 -15 4 -15 6 0 10 7 10 15 0 8 -2 15 -4 15 -2 0
-6 -7 -10 -15z"/>
<path d="M7003 4745 c0 -22 2 -30 4 -17 2 12 2 30 0 40 -3 9 -5 -1 -4 -23z"/>
<path d="M7685 4735 c-5 -2 -63 -7 -127 -10 l-118 -7 0 -59 0 -59 103 2 102 3
-4 -120 c-2 -74 -8 -123 -15 -127 -8 -6 -7 -8 2 -8 7 0 12 -15 12 -40 0 -32 4
-40 18 -40 34 0 73 -24 68 -42 -3 -13 2 -18 15 -18 12 0 19 7 19 19 0 28 6 30
105 36 49 3 90 7 93 10 3 3 0 5 -7 5 -7 0 -9 5 -6 10 3 6 17 10 31 10 23 0 24
2 24 75 l0 75 -35 0 c-48 0 -82 -18 -96 -51 -6 -16 -15 -29 -19 -29 -4 0 -6
-19 -6 -41 1 -32 -3 -42 -16 -44 -10 -2 -18 0 -18 5 0 4 -9 10 -21 13 -11 3
-23 15 -26 26 -3 11 -9 18 -14 15 -14 -8 -11 170 3 184 7 7 13 51 15 112 l2
100 -37 -1 c-20 0 -41 -2 -47 -4z m32 -252 c-3 -10 -5 -4 -5 12 0 17 2 24 5
18 2 -7 2 -21 0 -30z"/>
<path d="M5785 4683 c-4 -10 -9 -69 -12 -130 l-5 -113 26 0 26 0 0 114 c0 113
-5 146 -20 146 -4 0 -11 -8 -15 -17z"/>
<path d="M7115 4590 c3 -5 8 -10 11 -10 2 0 4 5 4 10 0 6 -5 10 -11 10 -5 0
-7 -4 -4 -10z"/>
<path d="M7001 4559 c-17 -38 -13 -42 30 -28 44 15 43 14 22 38 -24 29 -36 26
-52 -10z"/>
<path d="M7060 4582 c0 -5 9 -12 21 -15 13 -3 19 -1 16 6 -5 15 -37 22 -37 9z"/>
<path d="M7150 4551 c-14 -5 -34 -13 -45 -18 -11 -6 -33 -16 -49 -22 -24 -10
-28 -16 -24 -41 4 -23 0 -30 -16 -34 -31 -7 203 2 247 10 39 7 63 38 51 67
-14 38 -100 57 -164 38z"/>
<path d="M7319 4426 c-6 -5 -166 -16 -251 -16 -72 0 -77 -1 -80 -22 -3 -22 -8
-23 -138 -29 -74 -4 -190 -8 -257 -9 -182 -3 -162 -20 24 -22 87 0 174 -2 193
-3 19 0 40 2 45 5 12 8 65 12 65 5 0 -2 -15 -9 -32 -14 -32 -9 -32 -9 -6 -10
15 -1 43 -9 63 -18 25 -12 38 -14 43 -6 4 6 74 13 177 18 94 4 173 9 178 12 8
5 9 59 1 91 -6 20 -15 27 -25 18z"/>
<path d="M7440 4410 c0 -5 14 -10 30 -10 17 0 30 5 30 10 0 6 -13 10 -30 10
-16 0 -30 -4 -30 -10z"/>
<path d="M5600 4400 c0 -13 50 -13 70 0 11 7 4 10 -27 10 -24 0 -43 -4 -43
-10z"/>
<path d="M5550 4374 c0 -17 22 -14 28 4 2 7 -3 12 -12 12 -9 0 -16 -7 -16 -16z"/>
<path d="M6536 4273 c-6 -7 32 -43 46 -43 4 0 8 5 8 10 0 6 -4 10 -9 10 -5 0
-16 7 -24 15 -8 8 -17 11 -21 8z"/>
<path d="M6820 4252 c0 -4 -16 -24 -36 -45 -30 -30 -35 -41 -29 -66 l6 -29
-45 5 c-26 3 -46 2 -46 -3 0 -5 15 -27 33 -48 l33 -39 124 9 124 9 3 84 c2 93
-5 106 -59 122 -40 11 -108 12 -108 1z m-27 -205 c-8 -12 -33 20 -33 42 1 12
6 10 20 -8 11 -12 17 -28 13 -34z"/>
<path d="M6300 4080 c-11 -7 -12 -12 -4 -20 8 -8 14 -7 23 4 14 17 1 28 -19
16z"/>
<path d="M49 4038 c6 -17 18 -24 45 -26 33 -3 36 -1 36 22 0 24 -3 26 -45 26
-42 0 -44 -1 -36 -22z"/>
<path d="M6380 4050 c0 -5 5 -10 11 -10 5 0 7 5 4 10 -3 6 -8 10 -11 10 -2 0
-4 -4 -4 -10z"/>
<path d="M6619 3818 c-13 -18 -48 -59 -78 -90 -48 -52 -51 -58 -31 -58 13 0
20 -3 17 -7 -9 -8 13 -34 23 -28 5 3 6 -5 2 -17 -5 -20 -3 -21 11 -10 8 7 21
12 29 11 14 -2 49 10 98 36 17 9 30 11 30 6 0 -5 -9 -13 -21 -16 -22 -7 -59
-40 -59 -52 0 -3 11 4 25 17 14 13 25 20 25 16 0 -4 9 -2 21 4 14 8 19 19 17
37 -2 15 3 28 10 30 6 3 12 -2 12 -10 0 -24 40 -8 51 21 11 29 -12 62 -43 62
-31 0 -21 -30 13 -37 27 -5 29 -7 14 -16 -11 -6 -20 -6 -24 0 -10 15 -40 23
-46 13 -8 -14 -42 -13 -51 1 -3 6 6 22 20 36 15 14 25 28 22 31 -3 3 -15 -3
-25 -12 -11 -10 -24 -15 -29 -12 -5 3 -17 -3 -27 -14 -25 -27 -50 -27 -35 0 6
10 17 17 24 14 18 -7 29 11 30 48 1 15 0 28 -1 28 -1 0 -12 -15 -24 -32z"/>
<path d="M6910 3831 l-35 -6 31 -32 c17 -18 38 -33 46 -33 21 0 41 46 25 58
-22 16 -32 18 -67 13z"/>
<path d="M6280 3810 c0 -5 5 -10 11 -10 5 0 7 5 4 10 -3 6 -8 10 -11 10 -2 0
-4 -4 -4 -10z"/>
<path d="M7167 3741 c-16 -6 -15 -9 11 -28 27 -20 28 -20 27 -2 -2 26 -17 38
-38 30z"/>
<path d="M6990 3675 c0 -8 5 -15 10 -15 6 0 10 7 10 15 0 8 -4 15 -10 15 -5 0
-10 -7 -10 -15z"/>
<path d="M6393 3614 c-24 -14 -43 -30 -43 -34 0 -25 177 -19 187 7 3 8 -3 23
-12 33 -25 28 -80 25 -132 -6z"/>
<path d="M6590 3590 c-12 -8 -12 -10 3 -16 21 -8 35 2 21 16 -5 5 -15 6 -24 0z"/>
<path d="M6723 3588 c-4 -7 -6 -23 -5 -35 2 -12 -5 -27 -18 -36 -23 -16 -19
-38 12 -69 18 -18 44 -25 34 -9 -6 10 24 25 32 16 3 -2 -1 -11 -8 -20 -15 -18
-7 -30 15 -22 9 4 15 18 15 35 0 20 8 35 23 45 22 15 22 15 -8 13 -16 -1 -47
-8 -68 -15 -21 -7 -41 -11 -44 -8 -8 9 7 27 21 27 8 0 35 12 62 28 l49 27 -32
3 c-17 2 -37 10 -43 18 -15 17 -26 18 -37 2z"/>
<path d="M6008 3563 c7 -3 16 -2 19 1 4 3 -2 6 -13 5 -11 0 -14 -3 -6 -6z"/>
<path d="M6065 3412 c-11 -2 -24 -8 -30 -14 -9 -9 43 -1 54 8 8 7 -4 10 -24 6z"/>
<path d="M6905 3331 c-2 -5 4 -11 15 -14 11 -3 20 -2 20 3 0 12 -28 21 -35 11z"/>
<path d="M5808 3313 c7 -3 16 -2 19 1 4 3 -2 6 -13 5 -11 0 -14 -3 -6 -6z"/>
<path d="M4950 3280 c8 -5 20 -10 25 -10 6 0 3 5 -5 10 -8 5 -19 10 -25 10 -5
0 -3 -5 5 -10z"/>
<path d="M4895 3270 c-3 -6 1 -7 9 -4 18 7 21 14 7 14 -6 0 -13 -4 -16 -10z"/>
<path d="M5628 3263 c7 -3 16 -2 19 1 4 3 -2 6 -13 5 -11 0 -14 -3 -6 -6z"/>
<path d="M5420 3230 c8 -5 28 -10 44 -10 39 0 30 6 -19 13 -27 4 -35 3 -25 -3z"/>
<path d="M7270 2940 c0 -5 5 -10 11 -10 5 0 7 5 4 10 -3 6 -8 10 -11 10 -2 0
-4 -4 -4 -10z"/>
<path d="M5277 2823 c-4 -6 -4 -19 -1 -28 4 -9 1 -20 -5 -25 -9 -5 -8 -9 4
-13 8 -4 18 -1 20 6 7 18 -10 73 -18 60z"/>
<path d="M4573 2788 c-10 -13 -29 -77 -20 -68 15 15 45 80 38 80 -5 0 -13 -6
-18 -12z"/>
<path d="M7843 2692 c-9 -15 -6 -20 17 -30 14 -7 33 -23 40 -37 7 -13 17 -22
22 -19 5 3 2 17 -6 30 -20 30 -20 34 1 34 15 0 15 2 3 14 -26 23 -64 27 -77 8z"/>
<path d="M7548 2693 c7 -3 16 -2 19 1 4 3 -2 6 -13 5 -11 0 -14 -3 -6 -6z"/>
<path d="M7589 2690 c-19 -13 -8 -18 21 -10 19 4 21 7 9 12 -9 3 -22 2 -30 -2z"/>
<path d="M7967 2686 c-16 -13 -16 -14 8 -18 19 -4 25 -1 25 13 0 22 -8 23 -33
5z"/>
<path d="M7693 2673 c-15 -11 -12 -13 18 -13 39 0 79 10 79 19 0 11 -79 6 -97
-6z"/>
<path d="M2840 2170 c8 -5 22 -10 30 -10 13 0 13 1 0 10 -8 5 -22 10 -30 10
-13 0 -13 -1 0 -10z"/>
<path d="M2870 2138 c0 -9 5 -20 10 -23 13 -8 13 5 0 25 -8 13 -10 13 -10 -2z"/>
<path d="M3458 1973 c7 -3 16 -2 19 1 4 3 -2 6 -13 5 -11 0 -14 -3 -6 -6z"/>
<path d="M3085 1930 c-19 -8 -19 -9 3 -9 12 -1 22 4 22 9 0 6 -1 10 -2 9 -2 0
-12 -4 -23 -9z"/>
<path d="M3148 1933 c7 -3 16 -2 19 1 4 3 -2 6 -13 5 -11 0 -14 -3 -6 -6z"/>
<path d="M7959 1873 l-24 -26 33 23 c33 25 38 30 24 30 -5 0 -19 -12 -33 -27z"/>
<path d="M7795 1750 c-63 -46 -120 -80 -134 -80 -16 0 -21 -4 -18 -15 4 -8 -5
-22 -21 -34 -30 -23 -56 -43 -119 -93 -23 -18 -60 -46 -83 -62 -23 -15 -39
-31 -36 -33 3 -3 18 3 33 13 15 10 35 23 44 29 34 21 105 75 124 95 12 11 26
20 31 20 6 0 28 13 48 29 23 19 44 28 59 25 19 -4 19 -3 3 4 -16 7 -14 12 24
43 40 31 132 110 155 130 26 25 -11 1 -110 -71z"/>
<path d="M6565 1781 c-7 -12 23 -17 174 -31 108 -9 152 -7 100 4 -25 6 -243
36 -259 36 -5 0 -11 -4 -15 -9z"/>
<path d="M6920 1738 c0 -4 14 -8 30 -8 17 0 30 2 30 4 0 2 -13 6 -30 8 -16 3
-30 1 -30 -4z"/>
<path d="M7774 1657 c-21 -12 -20 -13 22 -33 24 -12 44 -18 44 -12 0 5 5 6 10
3 18 -11 -2 -27 -26 -21 -31 8 -31 -7 0 -23 23 -13 68 -11 144 4 29 7 32 10
32 45 0 35 -2 38 -32 43 -66 10 -173 7 -194 -6z m133 -53 c-3 -3 -12 -4 -19
-1 -8 3 -5 6 6 6 11 1 17 -2 13 -5z"/>
<path d="M7245 1334 c-55 -41 -123 -95 -152 -119 -58 -51 -221 -178 -273 -215
-19 -13 -116 -88 -215 -165 -99 -77 -216 -167 -261 -200 -45 -33 -106 -79
-136 -101 -29 -23 -187 -143 -350 -267 -163 -124 -307 -234 -319 -246 -21 -20
-22 -21 -3 -21 10 0 107 68 214 152 107 83 242 188 300 232 137 104 283 215
451 346 75 58 216 166 314 240 98 74 205 158 238 185 33 28 94 76 136 109 113
87 167 134 161 140 -3 3 -51 -29 -105 -70z"/>
<path d="M6235 924 c39 -7 81 -13 95 -12 14 0 -6 6 -45 14 -38 7 -81 13 -95
12 -14 0 7 -6 45 -14z"/>
<path d="M6388 903 c7 -3 16 -2 19 1 4 3 -2 6 -13 5 -11 0 -14 -3 -6 -6z"/>
<path d="M6700 851 c8 -5 62 -16 120 -25 165 -26 185 -29 180 -23 -3 3 -63 15
-135 26 -71 12 -141 24 -155 26 -18 4 -21 3 -10 -4z"/>
<path d="M7135 776 c28 -8 73 -17 100 -20 l50 -6 -50 14 c-27 8 -72 17 -100
20 l-50 6 50 -14z"/>
<path d="M7301 746 c2 -2 54 -11 114 -21 61 -9 193 -31 295 -50 202 -37 298
-51 290 -42 -7 7 -649 117 -689 117 -8 0 -12 -2 -10 -4z"/>
<path d="M3940 620 c-9 -6 -10 -10 -3 -10 6 0 15 5 18 10 8 12 4 12 -15 0z"/>
<path d="M3882 593 c-18 -8 -31 -18 -28 -20 5 -5 66 25 66 32 0 7 -1 7 -38
-12z"/>
<path d="M1490 550 c-11 -7 -6 -10 20 -10 26 0 31 3 20 10 -8 5 -17 10 -20 10
-3 0 -12 -5 -20 -10z"/>
</g>
</svg>
