<?xml version="1.0" standalone="no"?>
<!DOCTYPE svg PUBLIC "-//W3C//DTD SVG 20010904//EN"
 "http://www.w3.org/TR/2001/REC-SVG-20010904/DTD/svg10.dtd">
<svg version="1.0" xmlns="http://www.w3.org/2000/svg"
 width="3840.000000pt" height="2160.000000pt" viewBox="0 0 3840.000000 2160.000000"
 preserveAspectRatio="xMidYMid meet">
<metadata>
Created by potrace 1.16, written by Peter Selinger 2001-2019
</metadata>
<g transform="translate(0.000000,2160.000000) scale(0.100000,-0.100000)"
fill="#000000" stroke="none">
<path d="M4705 13910 c-273 -15 -728 -66 -885 -100 -25 -5 -97 -19 -160 -30
-63 -12 -169 -35 -235 -52 -66 -16 -145 -36 -175 -43 -66 -16 -297 -86 -360
-109 -25 -10 -67 -24 -94 -32 -52 -16 -306 -116 -391 -154 -92 -41 -395 -190
-443 -218 -26 -16 -81 -48 -122 -72 -41 -24 -89 -54 -106 -67 -17 -13 -36 -23
-42 -23 -7 0 -12 -3 -12 -8 0 -4 -17 -16 -37 -27 -21 -11 -42 -25 -48 -31 -5
-7 -41 -33 -80 -60 -38 -26 -72 -50 -75 -53 -3 -4 -21 -18 -42 -33 -20 -15
-42 -34 -50 -41 -7 -7 -22 -19 -34 -27 -80 -56 -375 -349 -464 -461 -19 -24
-38 -45 -42 -47 -4 -2 -8 -8 -8 -14 0 -5 -6 -15 -13 -22 -6 -8 -29 -38 -50
-67 -233 -333 -380 -689 -428 -1039 -16 -116 -16 -414 0 -530 17 -124 74 -355
111 -451 17 -42 30 -79 30 -82 0 -11 119 -250 150 -302 17 -27 33 -58 36 -67
4 -10 10 -18 15 -18 5 0 9 -5 9 -10 0 -14 165 -239 226 -310 145 -167 455
-454 594 -550 19 -14 40 -28 45 -33 6 -5 57 -39 115 -77 58 -38 110 -73 115
-77 6 -4 27 -17 48 -28 20 -11 37 -23 37 -27 0 -5 5 -8 11 -8 5 0 52 -25 103
-55 85 -50 437 -225 453 -225 3 0 29 -11 57 -24 187 -87 639 -237 926 -306
919 -221 1894 -257 2820 -105 272 45 319 54 360 65 19 5 112 28 205 50 94 23
195 50 225 60 30 10 102 32 160 50 109 32 417 146 505 185 28 13 73 33 100 45
92 41 465 230 475 240 13 14 108 70 118 70 7 0 12 5 12 10 0 6 4 10 9 10 11 0
265 174 295 202 11 10 23 18 27 18 4 0 22 13 41 29 18 16 80 69 138 119 148
126 327 312 419 435 24 31 47 57 52 57 5 0 9 6 9 13 0 6 11 25 25 41 13 16 46
63 72 105 26 42 49 78 53 81 13 11 150 289 150 304 0 9 4 16 9 16 5 0 11 10
14 23 3 12 20 63 37 112 78 227 113 441 113 685 0 171 -7 233 -49 435 -45 211
-165 514 -264 665 -5 8 -17 29 -26 45 -24 44 -174 257 -194 275 -3 3 -38 43
-77 90 -127 152 -370 379 -530 494 -29 21 -53 42 -53 47 0 5 -5 9 -11 9 -6 0
-34 17 -62 37 -64 47 -162 111 -207 136 -19 11 -37 22 -40 26 -3 3 -16 12 -29
19 -167 94 -212 118 -373 199 -92 46 -170 83 -173 83 -3 0 -40 15 -83 34 -95
43 -227 94 -352 136 -52 17 -104 36 -115 40 -66 29 -496 142 -681 180 -197 41
-247 49 -399 70 -220 31 -291 39 -485 55 -217 19 -712 26 -925 15z m1020 -384
c353 -34 691 -89 905 -146 19 -5 80 -21 135 -35 131 -35 247 -72 313 -101 29
-13 59 -24 67 -24 7 0 16 -4 19 -9 3 -5 18 -12 33 -16 63 -15 337 -168 403
-225 188 -161 257 -286 247 -447 -5 -83 -37 -174 -83 -234 -33 -43 -184 -186
-212 -200 -15 -8 -36 -22 -46 -31 -35 -32 -309 -164 -436 -211 -201 -73 -431
-139 -605 -172 -38 -7 -119 -23 -179 -34 -134 -26 -126 -26 -126 1 0 34 -87
451 -114 548 -87 311 -159 493 -286 725 -33 60 -119 196 -130 205 -3 3 -13 15
-22 28 -8 13 -40 49 -70 80 -184 193 -378 270 -574 227 -130 -28 -265 -110
-364 -219 -25 -27 -55 -61 -68 -75 -29 -32 -114 -157 -153 -224 -171 -300
-313 -724 -388 -1162 l-26 -150 -40 3 c-22 2 -85 13 -140 24 -55 11 -131 26
-170 33 -231 44 -590 162 -800 264 -235 115 -425 275 -494 416 -30 61 -35 82
-39 165 -3 79 0 104 17 151 64 169 246 330 526 465 66 31 129 61 140 65 11 5
38 15 60 24 391 158 1004 273 1635 309 169 9 913 -3 1065 -18z m-514 -819 c72
-41 107 -71 160 -137 33 -41 119 -174 119 -184 0 -3 16 -40 36 -83 54 -116 90
-226 134 -401 54 -218 73 -324 59 -332 -6 -4 -38 -8 -72 -9 -34 -1 -125 -6
-202 -11 -245 -17 -924 -6 -1023 16 -26 5 -26 -6 9 178 27 137 84 354 109 411
5 11 22 55 39 97 55 140 144 289 220 366 43 43 123 102 139 102 5 0 23 7 38
16 21 11 48 14 100 11 59 -3 82 -10 135 -40z m-3727 -414 c8 -73 31 -154 62
-220 13 -28 24 -57 24 -62 0 -6 4 -11 9 -11 5 0 13 -12 19 -27 20 -59 154
-218 283 -339 44 -40 282 -214 293 -214 4 0 25 -12 49 -27 197 -126 587 -291
872 -370 50 -13 115 -33 145 -43 30 -9 87 -25 125 -33 195 -44 309 -68 395
-82 52 -9 105 -18 118 -21 22 -4 22 -6 22 -190 0 -982 250 -1948 623 -2409 58
-72 150 -165 162 -165 6 0 17 -9 25 -20 8 -11 20 -20 27 -20 7 0 13 -5 13 -11
0 -28 -422 17 -785 83 -117 21 -443 100 -491 119 -16 6 -53 17 -83 25 -216 58
-689 261 -926 400 -44 25 -89 52 -100 58 -83 48 -326 215 -345 237 -3 3 -12
10 -21 15 -16 9 -83 64 -168 139 -91 79 -280 276 -355 369 -115 143 -216 296
-298 453 -267 510 -320 1129 -141 1653 37 110 102 268 130 320 14 25 41 74 61
110 20 36 38 67 41 70 3 3 15 21 25 40 11 19 25 41 30 47 6 7 38 51 71 98 33
46 65 85 71 85 6 0 14 -26 18 -57z m7218 15 c38 -46 158 -227 195 -293 225
-399 323 -814 293 -1235 -22 -305 -91 -554 -231 -833 -93 -186 -163 -292 -320
-487 -92 -114 -291 -316 -397 -402 -42 -34 -79 -65 -82 -68 -3 -3 -21 -17 -40
-30 -19 -14 -46 -35 -60 -47 -14 -13 -28 -23 -32 -23 -3 0 -13 -6 -20 -14 -18
-18 -188 -128 -317 -206 -122 -73 -383 -201 -526 -258 -167 -67 -233 -92 -240
-92 -4 0 -21 -6 -38 -14 -18 -8 -61 -23 -97 -34 -36 -11 -90 -28 -120 -37
-122 -38 -456 -116 -596 -140 -277 -46 -587 -80 -668 -73 l-39 3 47 33 c163
117 322 339 452 634 218 493 346 1156 361 1871 6 272 6 277 27 282 12 2 64 11
116 20 128 21 465 95 520 114 14 5 59 19 100 31 136 39 173 51 348 116 191 72
554 243 582 275 3 3 21 14 40 25 19 10 37 21 40 24 3 3 34 25 70 49 182 124
389 333 452 456 11 22 23 42 27 45 8 6 44 94 70 173 11 31 23 84 27 117 4 33
10 60 14 60 4 0 23 -19 42 -42z m-3934 -1549 c291 -12 682 -5 941 18 l74 6 -7
-124 c-27 -478 -98 -862 -214 -1149 -31 -77 -101 -223 -111 -230 -3 -3 -15
-20 -25 -39 -43 -78 -151 -185 -226 -226 -47 -26 -66 -30 -130 -30 -127 0
-228 62 -337 209 -196 264 -342 794 -374 1363 -6 112 -9 209 -6 216 4 11 18
12 59 6 29 -4 189 -13 356 -20z"/>
<path d="M17420 13174 c-14 -2 -65 -11 -115 -20 -146 -25 -239 -44 -260 -53
-11 -5 -67 -24 -125 -41 -58 -18 -109 -36 -115 -39 -5 -4 -41 -20 -80 -35 -38
-15 -77 -32 -85 -36 -8 -5 -35 -19 -60 -32 -202 -102 -402 -250 -585 -433
-187 -187 -349 -408 -435 -592 -14 -29 -28 -53 -32 -53 -5 0 -8 -6 -8 -13 0
-7 -18 -56 -41 -108 -54 -125 -104 -291 -142 -474 -30 -145 -31 -158 -31 -415
0 -205 4 -291 17 -380 46 -294 152 -593 296 -831 12 -19 24 -41 28 -49 7 -16
133 -202 143 -210 3 -3 29 -34 59 -70 241 -289 602 -553 921 -674 41 -16 89
-35 105 -42 17 -7 73 -25 125 -39 52 -14 118 -32 145 -40 138 -39 247 -49 510
-50 331 0 451 17 755 109 207 63 492 212 695 365 377 284 687 724 829 1176 83
265 110 468 103 778 -6 235 -27 399 -71 542 -8 28 -23 79 -33 115 -10 36 -21
70 -25 75 -3 6 -22 52 -42 104 -66 170 -172 356 -310 541 -82 111 -342 372
-442 445 -38 28 -70 53 -72 58 -2 4 -9 7 -16 7 -7 0 -21 8 -32 18 -29 26 -110
75 -229 136 -22 12 -42 23 -45 26 -3 3 -23 13 -45 22 -22 9 -74 30 -115 48
-150 63 -343 117 -520 146 -100 16 -555 29 -620 18z m387 -864 c334 -45 599
-193 830 -466 192 -227 309 -507 354 -849 12 -96 6 -377 -10 -450 -5 -22 -14
-67 -21 -100 -85 -441 -398 -852 -783 -1030 -435 -201 -949 -125 -1312 195
-120 106 -243 252 -290 345 -11 22 -24 45 -30 51 -5 6 -23 40 -39 75 -16 35
-34 75 -41 89 -40 79 -102 328 -115 459 -65 665 238 1274 775 1558 196 103
463 152 682 123z"/>
<path d="M26790 13175 c-8 -2 -49 -8 -90 -15 -400 -62 -730 -191 -1021 -400
-31 -22 -62 -40 -68 -40 -6 0 -11 -4 -11 -9 0 -5 -26 -28 -57 -52 -99 -74
-239 -212 -349 -344 -32 -38 -61 -72 -64 -75 -3 -3 -9 -13 -15 -22 -14 -23
-132 -201 -142 -213 -16 -20 -121 -242 -156 -330 -162 -405 -205 -869 -121
-1305 25 -135 33 -164 81 -315 36 -115 142 -352 171 -383 6 -7 12 -18 12 -23
0 -13 114 -194 140 -221 11 -12 20 -27 20 -34 0 -7 4 -14 8 -16 4 -1 23 -23
42 -48 39 -50 145 -163 230 -245 142 -137 341 -279 532 -379 110 -58 268 -126
294 -126 8 0 14 -3 14 -8 0 -4 21 -13 48 -19 26 -7 79 -22 117 -33 196 -57
377 -80 620 -80 405 1 714 75 1080 258 676 340 1154 1002 1272 1762 25 162 25
541 0 695 -18 109 -66 314 -92 390 -71 210 -189 447 -305 616 -34 50 -187 238
-229 282 -127 133 -335 303 -461 377 -19 11 -49 29 -65 39 -123 74 -322 163
-480 213 -240 78 -453 108 -740 107 -110 -1 -207 -3 -215 -4z m409 -870 c58
-9 142 -27 186 -42 78 -25 205 -79 215 -92 3 -3 23 -15 44 -26 139 -70 344
-268 451 -435 89 -138 175 -330 204 -455 33 -144 42 -199 52 -314 53 -636
-269 -1254 -786 -1510 -402 -199 -865 -164 -1236 95 -139 97 -292 258 -386
409 -94 150 -186 386 -219 564 -22 118 -29 365 -15 498 12 115 57 309 93 403
22 58 127 271 137 280 4 3 27 36 51 75 58 90 232 265 335 336 267 185 565 258
874 214z"/>
<path d="M11245 13007 c-3 -6 -4 -190 -3 -407 l3 -395 698 -3 697 -2 0 -1830
0 -1830 498 2 497 3 3 1828 2 1827 700 0 700 0 0 410 0 410 -1895 0 c-1509 0
-1897 -3 -1900 -13z"/>
<path d="M20110 13011 c0 -4 11 -25 25 -45 14 -20 25 -39 25 -41 0 -5 83 -139
90 -145 3 -3 25 -36 48 -75 78 -127 105 -169 144 -227 21 -32 38 -60 38 -63 0
-7 52 -88 61 -95 4 -3 15 -21 25 -40 11 -19 29 -49 42 -67 12 -17 22 -34 22
-38 0 -3 10 -21 23 -38 12 -18 27 -40 32 -49 6 -10 52 -83 103 -163 50 -79 92
-149 92 -154 0 -5 4 -11 8 -13 4 -1 72 -105 150 -230 78 -125 165 -262 192
-305 28 -43 50 -83 50 -90 0 -6 4 -13 9 -15 5 -2 31 -39 59 -83 27 -44 103
-165 169 -270 66 -104 165 -263 221 -352 l102 -162 0 -855 0 -856 503 2 502 3
5 859 c4 675 8 860 18 864 6 2 12 8 12 12 0 5 14 29 30 53 17 25 30 50 30 56
0 6 5 11 10 11 6 0 10 4 10 10 0 5 24 45 53 89 28 45 75 117 102 162 28 44 75
120 105 168 30 47 60 96 67 106 7 11 58 93 115 183 57 89 110 174 118 187 8
13 80 128 160 255 80 127 162 259 183 293 21 34 42 64 45 67 4 3 18 25 31 50
13 25 45 77 70 117 90 140 140 220 217 343 43 69 82 127 86 128 4 2 8 8 8 13
0 6 32 60 71 122 102 160 199 317 199 322 0 3 -259 4 -577 3 l-576 -3 -37 -60
c-37 -60 -63 -106 -130 -225 -20 -36 -43 -76 -51 -90 -9 -14 -42 -72 -75 -130
-32 -58 -62 -106 -66 -108 -4 -2 -8 -7 -8 -12 0 -4 -39 -75 -86 -157 -48 -81
-95 -163 -105 -180 -21 -36 -49 -86 -78 -136 -45 -80 -162 -283 -171 -297 -5
-8 -19 -34 -31 -57 -13 -24 -26 -43 -31 -43 -4 0 -8 -4 -8 -10 0 -9 -29 -62
-105 -193 -16 -29 -46 -80 -65 -115 -19 -34 -39 -62 -43 -62 -5 0 -14 14 -20
30 -6 17 -15 30 -19 30 -4 0 -8 4 -8 9 0 5 -19 42 -43 83 -24 40 -56 96 -71
123 -16 28 -64 111 -107 186 -44 74 -79 141 -79 147 0 7 -4 12 -8 12 -5 0 -18
19 -31 43 -12 23 -27 51 -34 61 -57 91 -77 126 -77 132 0 3 -15 32 -34 63 -19
31 -43 73 -55 94 -34 60 -55 96 -120 205 -33 56 -61 104 -61 106 0 4 -76 137
-100 176 -17 27 -73 124 -98 170 -22 39 -67 117 -109 188 l-13 22 -575 0
c-316 0 -575 -4 -575 -9z"/>
<path d="M29710 12610 l0 -410 695 0 c549 0 695 -3 695 -12 0 -7 1 -830 3
-1828 l2 -1815 495 0 495 0 2 1815 c2 998 3 1821 3 1827 0 10 150 13 698 15
l697 3 2 390 c2 215 0 398 -3 408 -5 16 -104 17 -1895 17 l-1889 0 0 -410z"/>
<path d="M34980 12954 c-17 -36 -30 -69 -30 -72 0 -4 -17 -47 -39 -97 -21 -49
-60 -142 -85 -205 -26 -63 -62 -151 -81 -195 -18 -44 -43 -105 -55 -135 -12
-30 -28 -68 -35 -85 -7 -16 -29 -68 -48 -115 -20 -47 -63 -151 -96 -232 -34
-80 -61 -149 -61 -152 0 -3 -13 -35 -30 -69 -16 -35 -30 -70 -30 -78 0 -8 -4
-19 -9 -24 -4 -6 -23 -46 -40 -90 -18 -44 -38 -93 -46 -110 -24 -54 -116 -278
-158 -385 -22 -58 -43 -107 -47 -110 -4 -3 -9 -14 -13 -25 -11 -39 -36 -103
-61 -158 -14 -31 -26 -58 -26 -61 0 -4 -21 -55 -46 -114 -25 -59 -69 -163 -96
-232 -28 -69 -59 -143 -69 -165 -17 -37 -61 -146 -180 -440 -27 -66 -55 -133
-63 -150 -8 -16 -33 -77 -56 -135 -24 -58 -55 -134 -70 -170 -15 -36 -62 -148
-103 -250 -42 -102 -92 -222 -111 -268 -24 -57 -31 -85 -23 -88 7 -2 268 -3
580 -2 l568 3 29 75 c16 41 33 82 38 90 5 9 13 31 17 50 4 19 18 58 31 85 13
28 32 75 43 105 11 30 28 76 38 102 10 26 56 148 103 272 l85 226 923 0 c870
0 923 -1 928 -17 10 -30 86 -226 101 -260 7 -17 29 -74 47 -125 19 -51 64
-172 101 -268 36 -96 78 -206 92 -245 15 -38 31 -76 36 -82 13 -17 1157 -19
1157 -2 0 6 -7 25 -15 42 -28 62 -75 182 -75 195 0 6 -4 12 -10 12 -5 0 -10 5
-10 11 0 6 -32 88 -70 183 -39 94 -89 216 -112 271 -22 55 -47 116 -56 135 -8
19 -32 76 -52 125 -53 129 -121 294 -170 410 -23 55 -51 127 -63 160 -12 33
-24 62 -27 65 -3 3 -17 34 -32 70 -26 64 -138 338 -239 580 -28 69 -65 159
-81 200 -17 41 -41 100 -55 130 -14 30 -36 84 -50 120 -14 36 -41 103 -60 150
-20 47 -41 99 -48 115 -7 17 -23 55 -35 85 -12 30 -37 91 -56 135 -18 44 -56
136 -84 205 -28 69 -55 134 -60 145 -5 11 -41 99 -80 195 -40 96 -80 195 -91
218 -11 24 -37 87 -59 140 -21 54 -63 158 -93 232 l-55 135 -621 3 -622 2 -29
-66z m680 -1072 c11 -31 25 -66 29 -77 9 -19 20 -48 75 -195 41 -110 76 -203
91 -240 8 -19 26 -66 40 -105 47 -123 107 -279 121 -310 7 -16 26 -68 42 -115
16 -47 39 -105 49 -130 11 -25 29 -72 41 -105 12 -33 41 -113 66 -177 24 -64
41 -119 38 -123 -3 -3 -286 -5 -629 -5 -695 0 -639 -7 -604 73 10 23 35 87 56
142 20 55 48 127 60 160 92 240 217 571 280 735 116 307 164 433 174 455 5 11
15 34 22 52 7 17 16 30 20 27 4 -2 17 -30 29 -62z"/>
</g>
</svg>
