<?xml version="1.0" standalone="no"?>
<!DOCTYPE svg PUBLIC "-//W3C//DTD SVG 20010904//EN"
 "http://www.w3.org/TR/2001/REC-SVG-20010904/DTD/svg10.dtd">
<svg version="1.0" xmlns="http://www.w3.org/2000/svg"
 width="275.000000pt" height="183.000000pt" viewBox="0 0 275.000000 183.000000"
 preserveAspectRatio="xMidYMid meet">
<metadata>
Created by potrace 1.16, written by Peter Selinger 2001-2019
</metadata>
<g transform="translate(0.000000,183.000000) scale(0.100000,-0.100000)"
fill="#000000" stroke="none">
<path d="M0 1257 c0 -534 1 -575 18 -589 41 -36 60 -40 106 -19 58 25 111 37
102 22 -4 -6 -15 -11 -25 -11 -10 0 -21 -3 -25 -7 -3 -4 -16 -8 -28 -10 -27
-4 -37 -14 -21 -20 7 -3 13 -17 12 -31 0 -16 -3 -21 -6 -12 -8 20 -29 40 -36
34 -3 -3 -15 0 -27 6 -12 6 -33 9 -46 6 -23 -6 -24 -10 -24 -82 l0 -76 95 7
95 7 0 -35 c0 -19 3 -49 7 -67 6 -31 5 -33 -20 -28 -15 3 -35 -1 -44 -8 -10
-7 -32 -14 -49 -14 -16 0 -38 -6 -49 -13 -16 -13 -15 -14 14 -15 17 0 31 4 31
10 0 7 15 8 41 4 26 -4 38 -3 34 3 -6 11 42 27 52 18 3 -4 7 -18 8 -31 3 -24
1 -25 -43 -21 -33 3 -41 2 -27 -5 11 -5 30 -9 43 -9 12 -1 22 -5 22 -11 0 -5
7 -10 15 -10 8 0 31 -18 51 -40 21 -22 44 -40 53 -41 9 0 4 -5 -12 -11 -15 -5
-27 -13 -27 -18 0 -4 -44 -9 -98 -12 -89 -3 -101 -6 -137 -33 -49 -37 -55 -44
-55 -72 l0 -23 1043 0 1042 0 35 36 35 36 75 -4 c70 -5 73 2 8 16 -16 4 -28
10 -28 15 0 11 56 25 69 17 5 -3 26 -8 47 -11 30 -3 35 -2 21 6 -28 16 -10 28
26 18 74 -20 127 -27 127 -15 0 24 -17 34 -62 41 -26 4 -45 11 -42 16 3 5 -2
6 -10 3 -11 -4 -16 0 -16 10 0 20 11 20 57 1 41 -17 44 -16 47 20 1 27 1 27
56 19 30 -4 91 -8 135 -9 l80 0 3 38 c2 25 -1 37 -10 38 -7 0 -26 3 -42 5 -16
3 -49 -2 -75 -11 -25 -9 -67 -18 -93 -21 l-48 -5 12 26 c6 14 17 25 25 25 7 0
13 5 13 10 0 6 -4 10 -10 10 -5 0 -10 4 -10 9 0 5 35 12 78 15 152 13 162 16
162 42 0 22 -3 23 -52 19 -50 -3 -93 -11 -93 -16 0 -1 -17 -3 -37 -4 -37 -2
-38 -2 -38 35 l0 37 53 8 c28 4 70 8 92 7 37 -1 38 0 15 10 -14 6 -55 10 -92
9 -53 -1 -68 1 -68 12 0 17 99 29 173 22 l47 -5 0 650 0 650 -1375 0 -1375 0
0 -573z m2044 433 c87 -11 80 -8 157 -66 108 -83 216 -236 263 -377 3 -10 19
-23 36 -29 30 -10 50 -34 50 -59 0 -8 -7 -5 -20 6 -17 15 -31 17 -102 12 -145
-11 -579 -121 -633 -161 -19 -14 -19 -14 2 -33 35 -30 31 -54 -21 -106 l-47
-49 20 41 c12 22 29 45 38 50 10 6 15 11 10 11 -4 0 -16 -6 -27 -12 -17 -11
-22 -10 -29 1 -12 18 -58 7 -64 -17 -3 -12 -5 -10 -6 7 -1 23 -2 24 -21 6 -11
-10 -20 -13 -20 -7 0 6 10 18 22 26 12 9 19 16 15 16 -5 0 -1 7 7 16 16 16 21
36 10 46 -3 3 -30 0 -59 -7 -30 -7 -52 -9 -50 -5 5 8 -69 2 -129 -10 -44 -10
-76 -3 -54 11 16 11 168 60 260 85 36 10 64 22 62 26 -2 4 5 5 17 3 18 -4 20
-1 14 23 -4 15 -8 28 -10 30 -7 8 -176 -42 -305 -89 -150 -55 -132 -53 -527
-69 -335 -14 -413 -20 -413 -35 0 -16 -23 -25 -65 -25 -34 0 -57 -17 -33 -24
40 -12 52 -19 41 -23 -9 -3 -9 -12 -2 -30 6 -18 6 -30 -2 -39 -8 -10 -8 -14 0
-14 6 0 11 4 11 9 0 5 11 11 25 13 19 4 26 0 34 -23 8 -25 7 -29 -7 -29 -15 0
-15 -2 -2 -10 22 -14 6 -12 -23 3 -14 7 -63 14 -108 16 -46 1 -85 4 -87 5 -2
2 -3 14 -3 27 0 13 1 36 1 52 0 15 7 41 15 58 19 36 98 89 134 89 33 1 54 17
75 58 10 19 31 41 47 50 23 13 29 24 29 50 0 32 -13 42 -26 20 -4 -7 -3 -8 4
-4 8 5 12 -2 12 -18 0 -24 -3 -26 -50 -26 -48 0 -50 1 -50 29 0 43 28 68 82
76 43 6 48 4 60 -20 l14 -25 41 57 c69 97 150 180 255 259 109 83 154 106 244
124 58 12 227 15 244 5 15 -9 210 -13 210 -5 0 5 36 8 80 8 44 0 80 -4 80 -8
0 -12 47 -5 63 9 22 18 90 39 112 35 11 -2 55 -8 99 -14z m-490 -726 c9 -3 16
-13 16 -21 0 -9 6 -13 15 -9 16 6 24 -15 28 -69 2 -28 -1 -30 -43 -37 -25 -3
-87 -7 -137 -7 -51 -1 -93 -5 -93 -9 0 -4 -25 -7 -55 -7 -30 0 -55 5 -54 10 0
6 12 33 27 60 24 43 33 51 67 58 22 4 65 14 95 22 61 15 110 18 134 9z m273
-237 c49 -28 84 -98 98 -195 l7 -52 -31 0 c-23 0 -31 5 -32 18 0 10 -3 12 -6
5 -2 -7 -11 -13 -18 -13 -23 0 -28 -57 -10 -115 10 -30 15 -61 12 -70 -8 -20
-66 -20 -95 1 -24 17 -57 72 -48 82 3 3 6 0 6 -6 0 -7 10 -12 21 -12 19 0 20
-2 8 -16 -11 -14 -10 -19 10 -35 23 -19 71 -26 71 -11 -1 19 -38 124 -47 133
-9 9 -16 4 -30 -17 -19 -32 -47 -34 -58 -6 -5 14 -4 15 6 5 7 -7 18 -13 24
-13 5 0 4 4 -4 9 -11 7 -10 14 8 39 23 32 30 112 10 112 -8 0 -7 5 1 15 11 13
10 14 -2 10 -22 -9 -40 18 -30 45 6 17 11 20 17 11 4 -8 2 -17 -6 -23 -11 -8
-10 -9 4 -4 12 4 21 -2 29 -19 6 -13 15 -22 19 -19 12 7 51 -15 67 -38 9 -12
26 -18 49 -18 l36 0 -7 41 c-7 42 -38 113 -55 123 -5 4 -12 -13 -16 -35 -4
-25 -10 -37 -15 -29 -5 8 -9 5 -13 -9 -3 -12 -1 -19 4 -15 5 3 9 0 9 -5 0 -6
-8 -11 -19 -11 -17 0 -17 3 -5 52 24 91 16 105 -46 73 -38 -20 -40 -11 -2 9
33 18 50 19 79 3z m-693 -70 c67 6 109 -7 100 -31 -3 -8 -1 -17 5 -21 6 -3 11
-13 11 -21 0 -9 -5 -12 -12 -8 -28 18 -105 19 -443 9 -182 -6 -258 -12 -278
-22 -15 -7 -32 -11 -36 -8 -5 3 -12 -1 -14 -7 -10 -24 -7 16 3 54 13 46 18 48
122 39 9 0 21 -13 27 -28 10 -28 10 -28 8 7 l-2 35 220 5 c121 3 221 2 223 -2
2 -4 32 -4 66 -1z m356 -256 c0 -5 -10 -12 -22 -14 -20 -4 -20 -4 4 -6 20 -1
29 -9 37 -32 6 -18 11 -33 11 -34 0 -2 -26 -5 -57 -7 -31 -3 -59 -10 -61 -16
-2 -7 -12 -12 -23 -12 -10 0 -19 -4 -19 -9 0 -10 -87 -21 -106 -14 -9 3 -5 15
13 41 13 20 27 49 30 65 3 15 11 27 17 27 32 1 152 13 155 16 8 7 21 4 21 -5z
m-483 -41 c2 -13 10 -35 18 -47 12 -18 13 -23 2 -23 -7 0 -30 -9 -51 -20 -29
-14 -44 -17 -57 -9 -11 5 -31 8 -46 6 -16 -2 -36 0 -47 5 -10 6 -16 6 -13 1 3
-4 -25 -7 -61 -6 -37 1 -73 2 -81 3 -9 0 -11 6 -6 18 4 9 12 36 17 58 l9 42
156 -2 156 -1 4 -25z"/>
<path d="M965 1556 c-28 -24 -59 -46 -70 -49 -46 -15 -295 -300 -295 -337 0
-8 174 -7 533 5 102 3 157 2 157 -5 0 -6 -39 -10 -97 -10 -193 -1 -444 -12
-471 -21 -23 -7 -20 -8 13 -4 22 3 184 7 360 10 176 3 324 10 328 14 5 5 -19
9 -52 8 -33 0 -64 2 -68 6 -3 4 72 7 168 6 96 0 165 -4 154 -8 -11 -5 -25 -6
-31 -4 -7 2 -15 -1 -19 -7 -4 -7 1 -9 17 -6 13 2 61 11 107 20 96 19 102 19
79 5 -35 -20 -9 -79 28 -65 11 4 15 2 11 -8 -4 -9 1 -17 11 -19 16 -4 15 -5 0
-6 -10 0 -18 -5 -18 -10 0 -5 15 -8 33 -7 69 6 99 28 57 41 -11 3 -20 15 -20
25 0 20 11 23 124 35 32 4 75 15 95 26 33 17 164 43 278 56 28 3 43 10 46 21
3 12 5 10 6 -5 0 -12 6 -25 12 -29 18 -11 0 55 -33 116 -16 30 -27 46 -24 35
6 -20 6 -20 -9 0 -9 11 -13 25 -11 32 3 7 0 12 -7 10 -7 -1 -11 6 -11 15 1 10
-2 16 -6 13 -4 -3 -20 14 -36 36 -25 36 -52 59 -69 59 -4 0 3 -8 16 -19 20
-16 21 -21 10 -35 -7 -9 -11 -23 -7 -31 3 -9 2 -13 -3 -10 -19 11 -22 -15 -6
-46 9 -17 15 -32 13 -34 -5 -5 -31 29 -88 116 -49 74 -51 75 -92 76 -32 0 -35
-1 -11 -4 29 -4 36 -13 82 -103 28 -54 51 -101 51 -104 0 -3 -7 -3 -16 1 -11
4 -27 -7 -50 -32 -19 -21 -34 -33 -34 -25 0 7 -3 10 -7 7 -3 -4 0 -25 7 -47 8
-25 10 -44 4 -49 -5 -5 -51 -11 -101 -15 l-93 -6 0 24 c0 22 5 25 58 31 31 3
64 7 72 8 21 3 19 31 -2 35 -10 2 -18 -2 -18 -10 0 -9 -3 -9 -8 -2 -5 8 -22 6
-57 -5 -45 -14 -50 -19 -53 -48 -2 -25 -8 -33 -22 -33 -11 0 -17 5 -15 13 3 6
-2 30 -10 52 l-14 40 -1 -54 c0 -45 -2 -52 -14 -42 -12 10 -14 35 -10 129 3
64 7 123 10 130 6 20 -7 63 -17 56 -5 -3 -4 7 1 22 9 22 8 25 -3 16 -10 -9
-14 -8 -15 3 -1 8 -3 22 -4 30 -3 26 -16 17 -29 -20 l-13 -35 -91 -1 c-49 -1
-173 -5 -275 -8 l-185 -7 130 -3 130 -4 -205 -13 c-251 -16 -287 -21 -294 -40
-4 -11 -10 -12 -25 -4 -15 7 -23 6 -35 -6 -9 -8 -21 -12 -27 -8 -7 4 -10 1 -7
-7 3 -8 9 -13 14 -13 5 1 41 5 79 9 l70 7 -20 -22 c-11 -12 -28 -26 -39 -32
-16 -9 -18 -7 -13 6 5 13 0 16 -24 16 -18 0 -28 -4 -24 -10 3 -6 -1 -13 -9
-16 -16 -6 -41 -55 -70 -136 l-18 -48 -76 0 c-58 1 -73 3 -59 11 9 5 23 7 30
3 9 -5 9 -4 0 7 -17 17 -17 56 0 66 7 4 23 29 37 55 13 26 29 44 35 41 5 -4 7
-3 3 1 -11 13 92 114 124 121 39 9 137 54 119 54 -9 1 -12 9 -9 26 3 14 5 25
4 25 -1 0 -24 -20 -51 -44z"/>
<path d="M2658 193 c-10 -2 -18 -11 -18 -20 0 -11 -7 -14 -22 -10 -13 3 -41 2
-63 -2 l-40 -8 30 -8 c17 -4 41 -13 55 -20 14 -7 36 -18 50 -24 21 -9 18 -9
-20 -5 l-45 5 33 -15 c37 -18 102 -31 102 -22 0 4 -10 11 -22 16 -18 8 -15 8
15 4 l37 -6 0 56 c0 60 -5 65 -54 46 -20 -7 -24 -6 -19 5 3 8 4 14 2 14 -2 -1
-12 -3 -21 -6z"/>
</g>
</svg>
